<ttFont>
    <TTGlyph name="A" xMin="-8" yMin="0" xMax="673" yMax="621">
      <contour>
        <pt x="673" y="0" on="1"/>
        <pt x="383" y="0" on="1"/>
        <pt x="367" y="95" on="1"/>
        <pt x="289" y="95" on="1"/>
        <pt x="272" y="0" on="1"/>
        <pt x="-8" y="0" on="1"/>
        <pt x="113" y="621" on="1"/>
        <pt x="552" y="621" on="1"/>
      </contour>
      <contour>
        <pt x="345" y="228" on="1"/>
        <pt x="345" y="352" on="1"/>
        <pt x="313" y="352" on="1"/>
        <pt x="313" y="228" on="1"/>
      </contour>
    </TTGlyph>
    <TTGlyph name="AE" xMin="-20" yMin="0" xMax="867" yMax="621">
      <contour>
        <pt x="848" y="0" on="1"/>
        <pt x="398" y="0" on="1"/>
        <pt x="398" y="95" on="1"/>
        <pt x="295" y="95" on="1"/>
        <pt x="258" y="0" on="1"/>
        <pt x="-20" y="0" on="1"/>
        <pt x="240" y="621" on="1"/>
        <pt x="867" y="621" on="1"/>
        <pt x="852" y="417" on="1"/>
        <pt x="680" y="417" on="1"/>
        <pt x="680" y="381" on="1"/>
        <pt x="848" y="381" on="1"/>
        <pt x="838" y="215" on="1"/>
        <pt x="680" y="215" on="1"/>
        <pt x="680" y="179" on="1"/>
        <pt x="863" y="179" on="1"/>
      </contour>
      <contour>
        <pt x="398" y="228" on="1"/>
        <pt x="398" y="397" on="1"/>
        <pt x="394" y="397" on="1"/>
        <pt x="336" y="228" on="1"/>
      </contour>
    </TTGlyph>
    <TTGlyph name="Aacute" xMin="-8" yMin="0" xMax="673" yMax="769">
      <contour>
        <pt x="673" y="0" on="1"/>
        <pt x="383" y="0" on="1"/>
        <pt x="367" y="95" on="1"/>
        <pt x="289" y="95" on="1"/>
        <pt x="272" y="0" on="1"/>
        <pt x="-8" y="0" on="1"/>
        <pt x="113" y="621" on="1"/>
        <pt x="552" y="621" on="1"/>
      </contour>
      <contour>
        <pt x="345" y="228" on="1"/>
        <pt x="345" y="352" on="1"/>
        <pt x="313" y="352" on="1"/>
        <pt x="313" y="228" on="1"/>
      </contour>
      <contour>
        <pt x="508" y="769" on="1"/>
        <pt x="395" y="645" on="1"/>
        <pt x="225" y="645" on="1"/>
        <pt x="286" y="769" on="1"/>
      </contour>
    </TTGlyph>
    <TTGlyph name="Acircumflex" xMin="-8" yMin="0" xMax="673" yMax="763">
      <contour>
        <pt x="673" y="0" on="1"/>
        <pt x="383" y="0" on="1"/>
        <pt x="367" y="95" on="1"/>
        <pt x="289" y="95" on="1"/>
        <pt x="272" y="0" on="1"/>
        <pt x="-8" y="0" on="1"/>
        <pt x="113" y="621" on="1"/>
        <pt x="552" y="621" on="1"/>
      </contour>
      <contour>
        <pt x="345" y="228" on="1"/>
        <pt x="345" y="352" on="1"/>
        <pt x="313" y="352" on="1"/>
        <pt x="313" y="228" on="1"/>
      </contour>
      <contour>
        <pt x="449" y="763" on="1"/>
        <pt x="514" y="636" on="1"/>
        <pt x="349" y="636" on="1"/>
        <pt x="333" y="670" on="1"/>
        <pt x="330" y="670" on="1"/>
        <pt x="314" y="636" on="1"/>
        <pt x="145" y="636" on="1"/>
        <pt x="210" y="763" on="1"/>
      </contour>
    </TTGlyph>
    <TTGlyph name="Adieresis" xMin="-8" yMin="0" xMax="673" yMax="768">
      <contour>
        <pt x="673" y="0" on="1"/>
        <pt x="383" y="0" on="1"/>
        <pt x="367" y="95" on="1"/>
        <pt x="289" y="95" on="1"/>
        <pt x="272" y="0" on="1"/>
        <pt x="-8" y="0" on="1"/>
        <pt x="113" y="621" on="1"/>
        <pt x="552" y="621" on="1"/>
      </contour>
      <contour>
        <pt x="345" y="228" on="1"/>
        <pt x="345" y="352" on="1"/>
        <pt x="313" y="352" on="1"/>
        <pt x="313" y="228" on="1"/>
      </contour>
      <contour>
        <pt x="170" y="641" on="0"/>
        <pt x="128" y="667" on="0"/>
        <pt x="128" y="740" on="0"/>
        <pt x="171" y="768" on="0"/>
        <pt x="277" y="768" on="0"/>
        <pt x="318" y="741" on="0"/>
        <pt x="318" y="667" on="0"/>
        <pt x="278" y="641" on="0"/>
      </contour>
      <contour>
        <pt x="380" y="641" on="0"/>
        <pt x="339" y="667" on="0"/>
        <pt x="339" y="740" on="0"/>
        <pt x="381" y="768" on="0"/>
        <pt x="488" y="768" on="0"/>
        <pt x="529" y="741" on="0"/>
        <pt x="529" y="667" on="0"/>
        <pt x="489" y="641" on="0"/>
      </contour>
    </TTGlyph>
    <TTGlyph name="Agrave" xMin="-8" yMin="0" xMax="673" yMax="769">
      <contour>
        <pt x="673" y="0" on="1"/>
        <pt x="383" y="0" on="1"/>
        <pt x="367" y="95" on="1"/>
        <pt x="289" y="95" on="1"/>
        <pt x="272" y="0" on="1"/>
        <pt x="-8" y="0" on="1"/>
        <pt x="113" y="621" on="1"/>
        <pt x="552" y="621" on="1"/>
      </contour>
      <contour>
        <pt x="345" y="228" on="1"/>
        <pt x="345" y="352" on="1"/>
        <pt x="313" y="352" on="1"/>
        <pt x="313" y="228" on="1"/>
      </contour>
      <contour>
        <pt x="262" y="645" on="1"/>
        <pt x="149" y="769" on="1"/>
        <pt x="371" y="769" on="1"/>
        <pt x="432" y="645" on="1"/>
      </contour>
    </TTGlyph>
    <TTGlyph name="Aring" xMin="-8" yMin="0" xMax="673" yMax="733">
      <contour>
        <pt x="202" y="699" on="0"/>
        <pt x="262" y="733" on="0"/>
        <pt x="403" y="733" on="0"/>
        <pt x="462" y="701" on="0"/>
        <pt x="462" y="655" on="1"/>
        <pt x="462" y="633" on="0"/>
        <pt x="458" y="621" on="1"/>
        <pt x="552" y="621" on="1"/>
        <pt x="673" y="0" on="1"/>
        <pt x="383" y="0" on="1"/>
        <pt x="367" y="95" on="1"/>
        <pt x="289" y="95" on="1"/>
        <pt x="272" y="0" on="1"/>
        <pt x="-8" y="0" on="1"/>
        <pt x="113" y="621" on="1"/>
        <pt x="206" y="621" on="1"/>
        <pt x="202" y="632" on="0"/>
        <pt x="202" y="650" on="1"/>
      </contour>
      <contour>
        <pt x="345" y="228" on="1"/>
        <pt x="345" y="352" on="1"/>
        <pt x="313" y="352" on="1"/>
        <pt x="313" y="228" on="1"/>
      </contour>
      <contour>
        <pt x="342" y="621" on="1"/>
        <pt x="342" y="676" on="1"/>
        <pt x="322" y="676" on="1"/>
        <pt x="322" y="621" on="1"/>
      </contour>
    </TTGlyph>
    <TTGlyph name="Atilde" xMin="-8" yMin="0" xMax="673" yMax="783">
      <contour>
        <pt x="673" y="0" on="1"/>
        <pt x="383" y="0" on="1"/>
        <pt x="367" y="95" on="1"/>
        <pt x="289" y="95" on="1"/>
        <pt x="272" y="0" on="1"/>
        <pt x="-8" y="0" on="1"/>
        <pt x="113" y="621" on="1"/>
        <pt x="552" y="621" on="1"/>
      </contour>
      <contour>
        <pt x="345" y="228" on="1"/>
        <pt x="345" y="352" on="1"/>
        <pt x="313" y="352" on="1"/>
        <pt x="313" y="228" on="1"/>
      </contour>
      <contour>
        <pt x="529" y="783" on="1"/>
        <pt x="529" y="770" on="1"/>
        <pt x="529" y="701" on="0"/>
        <pt x="481" y="640" on="0"/>
        <pt x="408" y="640" on="1"/>
        <pt x="373" y="640" on="0"/>
        <pt x="304" y="663" on="1"/>
        <pt x="304" y="640" on="1"/>
        <pt x="132" y="640" on="1"/>
        <pt x="132" y="654" on="1"/>
        <pt x="132" y="720" on="0"/>
        <pt x="183" y="783" on="0"/>
        <pt x="249" y="783" on="1"/>
        <pt x="283" y="783" on="0"/>
        <pt x="358" y="760" on="1"/>
        <pt x="358" y="783" on="1"/>
      </contour>
    </TTGlyph>
    <TTGlyph name="B" xMin="20" yMin="0" xMax="627" yMax="621">
      <contour>
        <pt x="627" y="183" on="1"/>
        <pt x="627" y="93" on="0"/>
        <pt x="523" y="0" on="0"/>
        <pt x="402" y="0" on="1"/>
        <pt x="20" y="0" on="1"/>
        <pt x="20" y="621" on="1"/>
        <pt x="398" y="621" on="1"/>
        <pt x="615" y="621" on="0"/>
        <pt x="615" y="457" on="1"/>
        <pt x="615" y="406" on="0"/>
        <pt x="590" y="350" on="0"/>
        <pt x="555" y="330" on="1"/>
        <pt x="555" y="326" on="1"/>
        <pt x="627" y="298" on="0"/>
      </contour>
      <contour>
        <pt x="332" y="127" on="1"/>
        <pt x="332" y="250" on="1"/>
        <pt x="300" y="250" on="1"/>
        <pt x="300" y="127" on="1"/>
      </contour>
      <contour>
        <pt x="332" y="364" on="1"/>
        <pt x="332" y="468" on="1"/>
        <pt x="300" y="468" on="1"/>
        <pt x="300" y="364" on="1"/>
      </contour>
    </TTGlyph>
    <TTGlyph name="C" xMin="6" yMin="-10" xMax="460" yMax="630">
      <contour>
        <pt x="338" y="249" on="0"/>
        <pt x="361" y="219" on="0"/>
        <pt x="403" y="219" on="0"/>
        <pt x="445" y="227" on="1"/>
        <pt x="460" y="0" on="1"/>
        <pt x="388" y="-10" on="0"/>
        <pt x="325" y="-10" on="1"/>
        <pt x="163" y="-10" on="0"/>
        <pt x="6" y="143" on="0"/>
        <pt x="6" y="486" on="0"/>
        <pt x="168" y="630" on="0"/>
        <pt x="341" y="630" on="1"/>
        <pt x="385" y="630" on="0"/>
        <pt x="460" y="620" on="1"/>
        <pt x="443" y="381" on="1"/>
        <pt x="403" y="386" on="0"/>
        <pt x="360" y="386" on="0"/>
        <pt x="338" y="358" on="0"/>
      </contour>
    </TTGlyph>
    <TTGlyph name="Ccedilla" xMin="6" yMin="-169" xMax="460" yMax="630">
      <contour>
        <pt x="383" y="-79" on="1"/>
        <pt x="383" y="-121" on="0"/>
        <pt x="317" y="-169" on="0"/>
        <pt x="182" y="-169" on="0"/>
        <pt x="122" y="-133" on="1"/>
        <pt x="169" y="-51" on="1"/>
        <pt x="208" y="-78" on="0"/>
        <pt x="253" y="-91" on="1"/>
        <pt x="257" y="-83" on="1"/>
        <pt x="200" y="-58" on="1"/>
        <pt x="181" y="-48" on="0"/>
        <pt x="181" y="-14" on="0"/>
        <pt x="201" y="4" on="1"/>
        <pt x="102" y="29" on="0"/>
        <pt x="6" y="180" on="0"/>
        <pt x="6" y="315" on="1"/>
        <pt x="6" y="486" on="0"/>
        <pt x="168" y="630" on="0"/>
        <pt x="341" y="630" on="1"/>
        <pt x="385" y="630" on="0"/>
        <pt x="460" y="620" on="1"/>
        <pt x="443" y="381" on="1"/>
        <pt x="403" y="386" on="0"/>
        <pt x="360" y="386" on="0"/>
        <pt x="338" y="358" on="0"/>
        <pt x="338" y="249" on="0"/>
        <pt x="361" y="219" on="0"/>
        <pt x="403" y="219" on="0"/>
        <pt x="445" y="227" on="1"/>
        <pt x="460" y="0" on="1"/>
        <pt x="388" y="-10" on="0"/>
        <pt x="325" y="-10" on="1"/>
        <pt x="308" y="-10" on="1"/>
        <pt x="306" y="-13" on="1"/>
        <pt x="306" y="-17" on="1"/>
        <pt x="383" y="-17" on="0"/>
      </contour>
    </TTGlyph>
    <TTGlyph name="D" xMin="20" yMin="0" xMax="631" yMax="621">
      <contour>
        <pt x="631" y="324" on="1"/>
        <pt x="631" y="0" on="0"/>
        <pt x="289" y="0" on="1"/>
        <pt x="20" y="0" on="1"/>
        <pt x="20" y="621" on="1"/>
        <pt x="295" y="621" on="1"/>
        <pt x="478" y="621" on="0"/>
        <pt x="631" y="468" on="0"/>
      </contour>
      <contour>
        <pt x="326" y="157" on="1"/>
        <pt x="326" y="435" on="1"/>
        <pt x="294" y="435" on="1"/>
        <pt x="294" y="157" on="1"/>
      </contour>
    </TTGlyph>
    <TTGlyph name="Delta" xMin="-8" yMin="0" xMax="673" yMax="621">
      <contour>
        <pt x="-8" y="0" on="1"/>
        <pt x="123" y="621" on="1"/>
        <pt x="542" y="621" on="1"/>
        <pt x="673" y="0" on="1"/>
      </contour>
      <contour>
        <pt x="325" y="397" on="1"/>
        <pt x="291" y="211" on="1"/>
        <pt x="367" y="211" on="1"/>
        <pt x="331" y="397" on="1"/>
      </contour>
    </TTGlyph>
    <TTGlyph name="E" xMin="20" yMin="0" xMax="489" yMax="621">
      <contour>
        <pt x="470" y="0" on="1"/>
        <pt x="20" y="0" on="1"/>
        <pt x="20" y="621" on="1"/>
        <pt x="489" y="621" on="1"/>
        <pt x="474" y="417" on="1"/>
        <pt x="302" y="417" on="1"/>
        <pt x="302" y="381" on="1"/>
        <pt x="470" y="381" on="1"/>
        <pt x="460" y="215" on="1"/>
        <pt x="302" y="215" on="1"/>
        <pt x="302" y="179" on="1"/>
        <pt x="485" y="179" on="1"/>
      </contour>
    </TTGlyph>
    <TTGlyph name="Eacute" xMin="20" yMin="0" xMax="489" yMax="769">
      <contour>
        <pt x="470" y="0" on="1"/>
        <pt x="20" y="0" on="1"/>
        <pt x="20" y="621" on="1"/>
        <pt x="489" y="621" on="1"/>
        <pt x="474" y="417" on="1"/>
        <pt x="302" y="417" on="1"/>
        <pt x="302" y="381" on="1"/>
        <pt x="470" y="381" on="1"/>
        <pt x="460" y="215" on="1"/>
        <pt x="302" y="215" on="1"/>
        <pt x="302" y="179" on="1"/>
        <pt x="485" y="179" on="1"/>
      </contour>
      <contour>
        <pt x="458" y="769" on="1"/>
        <pt x="345" y="645" on="1"/>
        <pt x="175" y="645" on="1"/>
        <pt x="236" y="769" on="1"/>
      </contour>
    </TTGlyph>
    <TTGlyph name="Ecircumflex" xMin="20" yMin="0" xMax="489" yMax="763">
      <contour>
        <pt x="470" y="0" on="1"/>
        <pt x="20" y="0" on="1"/>
        <pt x="20" y="621" on="1"/>
        <pt x="489" y="621" on="1"/>
        <pt x="474" y="417" on="1"/>
        <pt x="302" y="417" on="1"/>
        <pt x="302" y="381" on="1"/>
        <pt x="470" y="381" on="1"/>
        <pt x="460" y="215" on="1"/>
        <pt x="302" y="215" on="1"/>
        <pt x="302" y="179" on="1"/>
        <pt x="485" y="179" on="1"/>
      </contour>
      <contour>
        <pt x="372" y="763" on="1"/>
        <pt x="437" y="636" on="1"/>
        <pt x="272" y="636" on="1"/>
        <pt x="256" y="670" on="1"/>
        <pt x="253" y="670" on="1"/>
        <pt x="237" y="636" on="1"/>
        <pt x="68" y="636" on="1"/>
        <pt x="133" y="763" on="1"/>
      </contour>
    </TTGlyph>
    <TTGlyph name="Edieresis" xMin="20" yMin="0" xMax="489" yMax="768">
      <contour>
        <pt x="470" y="0" on="1"/>
        <pt x="20" y="0" on="1"/>
        <pt x="20" y="621" on="1"/>
        <pt x="489" y="621" on="1"/>
        <pt x="474" y="417" on="1"/>
        <pt x="302" y="417" on="1"/>
        <pt x="302" y="381" on="1"/>
        <pt x="470" y="381" on="1"/>
        <pt x="460" y="215" on="1"/>
        <pt x="302" y="215" on="1"/>
        <pt x="302" y="179" on="1"/>
        <pt x="485" y="179" on="1"/>
      </contour>
      <contour>
        <pt x="101" y="641" on="0"/>
        <pt x="59" y="667" on="0"/>
        <pt x="59" y="740" on="0"/>
        <pt x="102" y="768" on="0"/>
        <pt x="208" y="768" on="0"/>
        <pt x="249" y="741" on="0"/>
        <pt x="249" y="667" on="0"/>
        <pt x="209" y="641" on="0"/>
      </contour>
      <contour>
        <pt x="311" y="641" on="0"/>
        <pt x="270" y="667" on="0"/>
        <pt x="270" y="740" on="0"/>
        <pt x="312" y="768" on="0"/>
        <pt x="419" y="768" on="0"/>
        <pt x="460" y="741" on="0"/>
        <pt x="460" y="667" on="0"/>
        <pt x="420" y="641" on="0"/>
      </contour>
    </TTGlyph>
    <TTGlyph name="Egrave" xMin="20" yMin="0" xMax="489" yMax="769">
      <contour>
        <pt x="470" y="0" on="1"/>
        <pt x="20" y="0" on="1"/>
        <pt x="20" y="621" on="1"/>
        <pt x="489" y="621" on="1"/>
        <pt x="474" y="417" on="1"/>
        <pt x="302" y="417" on="1"/>
        <pt x="302" y="381" on="1"/>
        <pt x="470" y="381" on="1"/>
        <pt x="460" y="215" on="1"/>
        <pt x="302" y="215" on="1"/>
        <pt x="302" y="179" on="1"/>
        <pt x="485" y="179" on="1"/>
      </contour>
      <contour>
        <pt x="202" y="645" on="1"/>
        <pt x="89" y="769" on="1"/>
        <pt x="311" y="769" on="1"/>
        <pt x="372" y="645" on="1"/>
      </contour>
    </TTGlyph>
    <TTGlyph name="Eth" xMin="-15" yMin="0" xMax="631" yMax="621">
      <contour>
        <pt x="631" y="324" on="1"/>
        <pt x="631" y="0" on="0"/>
        <pt x="289" y="0" on="1"/>
        <pt x="20" y="0" on="1"/>
        <pt x="20" y="195" on="1"/>
        <pt x="-15" y="195" on="1"/>
        <pt x="-15" y="399" on="1"/>
        <pt x="20" y="399" on="1"/>
        <pt x="20" y="621" on="1"/>
        <pt x="295" y="621" on="1"/>
        <pt x="478" y="621" on="0"/>
        <pt x="631" y="468" on="0"/>
      </contour>
      <contour>
        <pt x="328" y="157" on="1"/>
        <pt x="328" y="435" on="1"/>
        <pt x="292" y="435" on="1"/>
        <pt x="292" y="157" on="1"/>
      </contour>
    </TTGlyph>
    <TTGlyph name="Euro" xMin="0" yMin="-10" xMax="534" yMax="630">
      <contour>
        <pt x="0" y="415" on="1"/>
        <pt x="63" y="415" on="1"/>
        <pt x="80" y="528" on="0"/>
        <pt x="225" y="630" on="0"/>
        <pt x="373" y="630" on="1"/>
        <pt x="437" y="630" on="0"/>
        <pt x="534" y="613" on="1"/>
        <pt x="515" y="433" on="1"/>
        <pt x="416" y="444" on="0"/>
        <pt x="394" y="444" on="1"/>
        <pt x="343" y="444" on="0"/>
        <pt x="334" y="415" on="1"/>
        <pt x="514" y="415" on="1"/>
        <pt x="506" y="303" on="1"/>
        <pt x="315" y="303" on="1"/>
        <pt x="315" y="288" on="1"/>
        <pt x="504" y="288" on="1"/>
        <pt x="497" y="178" on="1"/>
        <pt x="330" y="178" on="1"/>
        <pt x="338" y="153" on="0"/>
        <pt x="391" y="153" on="1"/>
        <pt x="410" y="153" on="0"/>
        <pt x="511" y="165" on="1"/>
        <pt x="531" y="6" on="1"/>
        <pt x="421" y="-10" on="0"/>
        <pt x="355" y="-10" on="1"/>
        <pt x="226" y="-10" on="0"/>
        <pt x="88" y="73" on="0"/>
        <pt x="67" y="178" on="1"/>
        <pt x="0" y="178" on="1"/>
        <pt x="0" y="288" on="1"/>
        <pt x="61" y="288" on="1"/>
        <pt x="61" y="303" on="1"/>
        <pt x="0" y="303" on="1"/>
      </contour>
    </TTGlyph>
    <TTGlyph name="F" xMin="20" yMin="0" xMax="478" yMax="621">
      <contour>
        <pt x="302" y="220" on="1"/>
        <pt x="302" y="0" on="1"/>
        <pt x="20" y="0" on="1"/>
        <pt x="20" y="621" on="1"/>
        <pt x="478" y="621" on="1"/>
        <pt x="463" y="417" on="1"/>
        <pt x="302" y="417" on="1"/>
        <pt x="302" y="381" on="1"/>
        <pt x="460" y="381" on="1"/>
        <pt x="450" y="220" on="1"/>
      </contour>
    </TTGlyph>
    <TTGlyph name="G" xMin="6" yMin="-10" xMax="603" yMax="630">
      <contour>
        <pt x="556" y="392" on="1"/>
        <pt x="367" y="410" on="0"/>
        <pt x="334" y="410" on="0"/>
        <pt x="325" y="400" on="0"/>
        <pt x="325" y="383" on="1"/>
        <pt x="325" y="157" on="1"/>
        <pt x="357" y="157" on="1"/>
        <pt x="357" y="338" on="1"/>
        <pt x="603" y="338" on="1"/>
        <pt x="603" y="0" on="1"/>
        <pt x="409" y="0" on="1"/>
        <pt x="399" y="26" on="1"/>
        <pt x="395" y="26" on="1"/>
        <pt x="343" y="-10" on="0"/>
        <pt x="259" y="-10" on="1"/>
        <pt x="6" y="-10" on="0"/>
        <pt x="6" y="313" on="1"/>
        <pt x="6" y="473" on="0"/>
        <pt x="159" y="630" on="0"/>
        <pt x="337" y="630" on="1"/>
        <pt x="440" y="630" on="0"/>
        <pt x="582" y="606" on="1"/>
      </contour>
    </TTGlyph>
    <TTGlyph name="H" xMin="20" yMin="0" xMax="620" yMax="621">
      <contour>
        <pt x="620" y="0" on="1"/>
        <pt x="336" y="0" on="1"/>
        <pt x="336" y="218" on="1"/>
        <pt x="304" y="218" on="1"/>
        <pt x="304" y="0" on="1"/>
        <pt x="20" y="0" on="1"/>
        <pt x="20" y="621" on="1"/>
        <pt x="304" y="621" on="1"/>
        <pt x="304" y="390" on="1"/>
        <pt x="336" y="390" on="1"/>
        <pt x="336" y="621" on="1"/>
        <pt x="620" y="621" on="1"/>
      </contour>
    </TTGlyph>
    <TTGlyph name="I" xMin="20" yMin="0" xMax="302" yMax="621">
      <contour>
        <pt x="302" y="0" on="1"/>
        <pt x="20" y="0" on="1"/>
        <pt x="20" y="621" on="1"/>
        <pt x="302" y="621" on="1"/>
      </contour>
    </TTGlyph>
    <TTGlyph name="IJ" xMin="20" yMin="-10" xMax="655" yMax="621">
      <contour>
        <pt x="302" y="0" on="1"/>
        <pt x="20" y="0" on="1"/>
        <pt x="20" y="621" on="1"/>
        <pt x="302" y="621" on="1"/>
      </contour>
      <contour>
        <pt x="655" y="621" on="1"/>
        <pt x="655" y="131" on="1"/>
        <pt x="655" y="53" on="0"/>
        <pt x="593" y="-10" on="0"/>
        <pt x="501" y="-10" on="1"/>
        <pt x="333" y="-10" on="1"/>
        <pt x="322" y="171" on="1"/>
        <pt x="373" y="171" on="1"/>
        <pt x="373" y="621" on="1"/>
      </contour>
    </TTGlyph>
    <TTGlyph name="Iacute" xMin="20" yMin="0" xMax="326" yMax="779">
      <contour>
        <pt x="302" y="0" on="1"/>
        <pt x="20" y="0" on="1"/>
        <pt x="20" y="621" on="1"/>
        <pt x="302" y="621" on="1"/>
      </contour>
      <contour>
        <pt x="326" y="779" on="1"/>
        <pt x="213" y="655" on="1"/>
        <pt x="43" y="655" on="1"/>
        <pt x="104" y="779" on="1"/>
      </contour>
    </TTGlyph>
    <TTGlyph name="Icircumflex" xMin="-25" yMin="0" xMax="344" yMax="773">
      <contour>
        <pt x="302" y="0" on="1"/>
        <pt x="20" y="0" on="1"/>
        <pt x="20" y="621" on="1"/>
        <pt x="302" y="621" on="1"/>
      </contour>
      <contour>
        <pt x="279" y="773" on="1"/>
        <pt x="344" y="646" on="1"/>
        <pt x="179" y="646" on="1"/>
        <pt x="163" y="680" on="1"/>
        <pt x="160" y="680" on="1"/>
        <pt x="144" y="646" on="1"/>
        <pt x="-25" y="646" on="1"/>
        <pt x="40" y="773" on="1"/>
      </contour>
    </TTGlyph>
    <TTGlyph name="Idieresis" xMin="-39" yMin="0" xMax="362" yMax="778">
      <contour>
        <pt x="301" y="0" on="1"/>
        <pt x="19" y="0" on="1"/>
        <pt x="19" y="621" on="1"/>
        <pt x="301" y="621" on="1"/>
      </contour>
      <contour>
        <pt x="3" y="651" on="0"/>
        <pt x="-39" y="677" on="0"/>
        <pt x="-39" y="750" on="0"/>
        <pt x="4" y="778" on="0"/>
        <pt x="110" y="778" on="0"/>
        <pt x="151" y="751" on="0"/>
        <pt x="151" y="677" on="0"/>
        <pt x="111" y="651" on="0"/>
      </contour>
      <contour>
        <pt x="213" y="651" on="0"/>
        <pt x="172" y="677" on="0"/>
        <pt x="172" y="750" on="0"/>
        <pt x="214" y="778" on="0"/>
        <pt x="321" y="778" on="0"/>
        <pt x="362" y="751" on="0"/>
        <pt x="362" y="677" on="0"/>
        <pt x="322" y="651" on="0"/>
      </contour>
    </TTGlyph>
    <TTGlyph name="Igrave" xMin="-7" yMin="0" xMax="302" yMax="779">
      <contour>
        <pt x="302" y="0" on="1"/>
        <pt x="20" y="0" on="1"/>
        <pt x="20" y="621" on="1"/>
        <pt x="302" y="621" on="1"/>
      </contour>
      <contour>
        <pt x="106" y="655" on="1"/>
        <pt x="-7" y="779" on="1"/>
        <pt x="215" y="779" on="1"/>
        <pt x="276" y="655" on="1"/>
      </contour>
    </TTGlyph>
    <TTGlyph name="Itilde" xMin="-39" yMin="0" xMax="358" yMax="783">
      <contour>
        <pt x="302" y="0" on="1"/>
        <pt x="20" y="0" on="1"/>
        <pt x="20" y="621" on="1"/>
        <pt x="302" y="621" on="1"/>
      </contour>
      <contour>
        <pt x="358" y="783" on="1"/>
        <pt x="358" y="770" on="1"/>
        <pt x="358" y="701" on="0"/>
        <pt x="310" y="640" on="0"/>
        <pt x="237" y="640" on="1"/>
        <pt x="202" y="640" on="0"/>
        <pt x="133" y="663" on="1"/>
        <pt x="133" y="640" on="1"/>
        <pt x="-39" y="640" on="1"/>
        <pt x="-39" y="654" on="1"/>
        <pt x="-39" y="720" on="0"/>
        <pt x="12" y="783" on="0"/>
        <pt x="78" y="783" on="1"/>
        <pt x="112" y="783" on="0"/>
        <pt x="187" y="760" on="1"/>
        <pt x="187" y="783" on="1"/>
      </contour>
    </TTGlyph>
    <TTGlyph name="J" xMin="0" yMin="-10" xMax="333" yMax="621">
      <contour>
        <pt x="333" y="621" on="1"/>
        <pt x="333" y="131" on="1"/>
        <pt x="333" y="53" on="0"/>
        <pt x="271" y="-10" on="0"/>
        <pt x="179" y="-10" on="1"/>
        <pt x="11" y="-10" on="1"/>
        <pt x="0" y="171" on="1"/>
        <pt x="51" y="171" on="1"/>
        <pt x="51" y="621" on="1"/>
      </contour>
    </TTGlyph>
    <TTGlyph name="Jcircumflex" xMin="-7" yMin="-10" xMax="362" yMax="763">
      <contour>
        <pt x="333" y="621" on="1"/>
        <pt x="333" y="131" on="1"/>
        <pt x="333" y="53" on="0"/>
        <pt x="271" y="-10" on="0"/>
        <pt x="179" y="-10" on="1"/>
        <pt x="11" y="-10" on="1"/>
        <pt x="0" y="171" on="1"/>
        <pt x="51" y="171" on="1"/>
        <pt x="51" y="621" on="1"/>
      </contour>
      <contour>
        <pt x="297" y="763" on="1"/>
        <pt x="362" y="636" on="1"/>
        <pt x="197" y="636" on="1"/>
        <pt x="181" y="670" on="1"/>
        <pt x="178" y="670" on="1"/>
        <pt x="162" y="636" on="1"/>
        <pt x="-7" y="636" on="1"/>
        <pt x="58" y="763" on="1"/>
      </contour>
    </TTGlyph>
    <TTGlyph name="K" xMin="35" yMin="0" xMax="661" yMax="621">
      <contour>
        <pt x="659" y="0" on="1"/>
        <pt x="368" y="0" on="1"/>
        <pt x="327" y="216" on="1"/>
        <pt x="317" y="216" on="1"/>
        <pt x="317" y="0" on="1"/>
        <pt x="35" y="0" on="1"/>
        <pt x="35" y="621" on="1"/>
        <pt x="317" y="621" on="1"/>
        <pt x="317" y="369" on="1"/>
        <pt x="327" y="369" on="1"/>
        <pt x="379" y="621" on="1"/>
        <pt x="661" y="621" on="1"/>
        <pt x="593" y="309" on="1"/>
      </contour>
    </TTGlyph>
    <TTGlyph name="L" xMin="20" yMin="0" xMax="406" yMax="621">
      <contour>
        <pt x="392" y="0" on="1"/>
        <pt x="20" y="0" on="1"/>
        <pt x="20" y="621" on="1"/>
        <pt x="302" y="621" on="1"/>
        <pt x="302" y="199" on="1"/>
        <pt x="406" y="199" on="1"/>
      </contour>
    </TTGlyph>
    <TTGlyph name="Ldotaccent" xMin="20" yMin="0" xMax="584" yMax="621">
      <contour>
        <pt x="392" y="0" on="1"/>
        <pt x="20" y="0" on="1"/>
        <pt x="20" y="621" on="1"/>
        <pt x="302" y="621" on="1"/>
        <pt x="302" y="199" on="1"/>
        <pt x="406" y="199" on="1"/>
      </contour>
      <contour>
        <pt x="317" y="288" on="1"/>
        <pt x="317" y="319" on="1"/>
        <pt x="317" y="356" on="0"/>
        <pt x="374" y="389" on="0"/>
        <pt x="433" y="389" on="1"/>
        <pt x="461" y="389" on="1"/>
        <pt x="525" y="389" on="0"/>
        <pt x="584" y="356" on="0"/>
        <pt x="584" y="319" on="1"/>
        <pt x="584" y="288" on="1"/>
        <pt x="584" y="250" on="0"/>
        <pt x="524" y="218" on="0"/>
        <pt x="459" y="218" on="1"/>
        <pt x="429" y="218" on="1"/>
        <pt x="371" y="218" on="0"/>
        <pt x="317" y="248" on="0"/>
      </contour>
    </TTGlyph>
    <TTGlyph name="Lslash" xMin="0" yMin="0" xMax="416" yMax="621">
      <contour>
        <pt x="402" y="0" on="1"/>
        <pt x="30" y="0" on="1"/>
        <pt x="30" y="147" on="1"/>
        <pt x="0" y="135" on="1"/>
        <pt x="0" y="349" on="1"/>
        <pt x="30" y="361" on="1"/>
        <pt x="30" y="621" on="1"/>
        <pt x="312" y="621" on="1"/>
        <pt x="312" y="476" on="1"/>
        <pt x="347" y="491" on="1"/>
        <pt x="347" y="278" on="1"/>
        <pt x="312" y="263" on="1"/>
        <pt x="312" y="199" on="1"/>
        <pt x="416" y="199" on="1"/>
      </contour>
    </TTGlyph>
    <TTGlyph name="M" xMin="20" yMin="0" xMax="807" yMax="621">
      <contour>
        <pt x="807" y="0" on="1"/>
        <pt x="566" y="0" on="1"/>
        <pt x="557" y="249" on="1"/>
        <pt x="548" y="249" on="1"/>
        <pt x="522" y="0" on="1"/>
        <pt x="293" y="0" on="1"/>
        <pt x="270" y="249" on="1"/>
        <pt x="262" y="249" on="1"/>
        <pt x="251" y="0" on="1"/>
        <pt x="20" y="0" on="1"/>
        <pt x="46" y="621" on="1"/>
        <pt x="374" y="621" on="1"/>
        <pt x="405" y="395" on="1"/>
        <pt x="419" y="395" on="1"/>
        <pt x="445" y="621" on="1"/>
        <pt x="781" y="621" on="1"/>
      </contour>
    </TTGlyph>
    <TTGlyph name="N" xMin="20" yMin="0" xMax="632" yMax="621">
      <contour>
        <pt x="632" y="0" on="1"/>
        <pt x="376" y="0" on="1"/>
        <pt x="263" y="199" on="1"/>
        <pt x="263" y="0" on="1"/>
        <pt x="20" y="0" on="1"/>
        <pt x="20" y="621" on="1"/>
        <pt x="283" y="621" on="1"/>
        <pt x="387" y="420" on="1"/>
        <pt x="387" y="621" on="1"/>
        <pt x="632" y="621" on="1"/>
      </contour>
    </TTGlyph>
    <TTGlyph name="Nacute" xMin="20" yMin="0" xMax="632" yMax="769">
      <contour>
        <pt x="632" y="0" on="1"/>
        <pt x="376" y="0" on="1"/>
        <pt x="263" y="199" on="1"/>
        <pt x="263" y="0" on="1"/>
        <pt x="20" y="0" on="1"/>
        <pt x="20" y="621" on="1"/>
        <pt x="283" y="621" on="1"/>
        <pt x="387" y="420" on="1"/>
        <pt x="387" y="621" on="1"/>
        <pt x="632" y="621" on="1"/>
      </contour>
      <contour>
        <pt x="508" y="769" on="1"/>
        <pt x="395" y="645" on="1"/>
        <pt x="225" y="645" on="1"/>
        <pt x="286" y="769" on="1"/>
      </contour>
    </TTGlyph>
    <TTGlyph name="Ntilde" xMin="20" yMin="0" xMax="632" yMax="783">
      <contour>
        <pt x="632" y="0" on="1"/>
        <pt x="376" y="0" on="1"/>
        <pt x="263" y="199" on="1"/>
        <pt x="263" y="0" on="1"/>
        <pt x="20" y="0" on="1"/>
        <pt x="20" y="621" on="1"/>
        <pt x="283" y="621" on="1"/>
        <pt x="387" y="420" on="1"/>
        <pt x="387" y="621" on="1"/>
        <pt x="632" y="621" on="1"/>
      </contour>
      <contour>
        <pt x="519" y="783" on="1"/>
        <pt x="519" y="770" on="1"/>
        <pt x="519" y="701" on="0"/>
        <pt x="471" y="640" on="0"/>
        <pt x="398" y="640" on="1"/>
        <pt x="363" y="640" on="0"/>
        <pt x="294" y="663" on="1"/>
        <pt x="294" y="640" on="1"/>
        <pt x="122" y="640" on="1"/>
        <pt x="122" y="654" on="1"/>
        <pt x="122" y="720" on="0"/>
        <pt x="173" y="783" on="0"/>
        <pt x="239" y="783" on="1"/>
        <pt x="273" y="783" on="0"/>
        <pt x="348" y="760" on="1"/>
        <pt x="348" y="783" on="1"/>
      </contour>
    </TTGlyph>
    <TTGlyph name="O" xMin="6" yMin="-10" xMax="664" yMax="630">
      <contour>
        <pt x="6" y="481" on="0"/>
        <pt x="159" y="630" on="0"/>
        <pt x="513" y="630" on="0"/>
        <pt x="664" y="483" on="0"/>
        <pt x="664" y="150" on="0"/>
        <pt x="508" y="-10" on="0"/>
        <pt x="159" y="-10" on="0"/>
        <pt x="6" y="148" on="0"/>
      </contour>
      <contour>
        <pt x="357" y="157" on="1"/>
        <pt x="357" y="435" on="1"/>
        <pt x="325" y="435" on="1"/>
        <pt x="325" y="157" on="1"/>
      </contour>
    </TTGlyph>
    <TTGlyph name="OE" xMin="5" yMin="-10" xMax="825" yMax="630">
      <contour>
        <pt x="806" y="0" on="1"/>
        <pt x="443" y="0" on="1"/>
        <pt x="388" y="-10" on="0"/>
        <pt x="331" y="-10" on="1"/>
        <pt x="158" y="-10" on="0"/>
        <pt x="5" y="148" on="0"/>
        <pt x="5" y="481" on="0"/>
        <pt x="158" y="630" on="0"/>
        <pt x="336" y="630" on="1"/>
        <pt x="398" y="630" on="0"/>
        <pt x="447" y="621" on="1"/>
        <pt x="825" y="621" on="1"/>
        <pt x="810" y="417" on="1"/>
        <pt x="638" y="417" on="1"/>
        <pt x="638" y="381" on="1"/>
        <pt x="806" y="381" on="1"/>
        <pt x="796" y="215" on="1"/>
        <pt x="638" y="215" on="1"/>
        <pt x="638" y="179" on="1"/>
        <pt x="821" y="179" on="1"/>
      </contour>
      <contour>
        <pt x="356" y="157" on="1"/>
        <pt x="356" y="435" on="1"/>
        <pt x="324" y="435" on="1"/>
        <pt x="324" y="157" on="1"/>
      </contour>
    </TTGlyph>
    <TTGlyph name="Oacute" xMin="6" yMin="-10" xMax="664" yMax="779">
      <contour>
        <pt x="6" y="481" on="0"/>
        <pt x="159" y="630" on="0"/>
        <pt x="513" y="630" on="0"/>
        <pt x="664" y="483" on="0"/>
        <pt x="664" y="150" on="0"/>
        <pt x="508" y="-10" on="0"/>
        <pt x="159" y="-10" on="0"/>
        <pt x="6" y="148" on="0"/>
      </contour>
      <contour>
        <pt x="525" y="779" on="1"/>
        <pt x="412" y="655" on="1"/>
        <pt x="242" y="655" on="1"/>
        <pt x="303" y="779" on="1"/>
      </contour>
      <contour>
        <pt x="357" y="157" on="1"/>
        <pt x="357" y="435" on="1"/>
        <pt x="325" y="435" on="1"/>
        <pt x="325" y="157" on="1"/>
      </contour>
    </TTGlyph>
    <TTGlyph name="Ocircumflex" xMin="6" yMin="-10" xMax="664" yMax="773">
      <contour>
        <pt x="6" y="481" on="0"/>
        <pt x="159" y="630" on="0"/>
        <pt x="513" y="630" on="0"/>
        <pt x="664" y="483" on="0"/>
        <pt x="664" y="150" on="0"/>
        <pt x="508" y="-10" on="0"/>
        <pt x="159" y="-10" on="0"/>
        <pt x="6" y="148" on="0"/>
      </contour>
      <contour>
        <pt x="449" y="773" on="1"/>
        <pt x="514" y="646" on="1"/>
        <pt x="349" y="646" on="1"/>
        <pt x="333" y="680" on="1"/>
        <pt x="330" y="680" on="1"/>
        <pt x="314" y="646" on="1"/>
        <pt x="145" y="646" on="1"/>
        <pt x="210" y="773" on="1"/>
      </contour>
      <contour>
        <pt x="357" y="157" on="1"/>
        <pt x="357" y="435" on="1"/>
        <pt x="325" y="435" on="1"/>
        <pt x="325" y="157" on="1"/>
      </contour>
    </TTGlyph>
    <TTGlyph name="Odieresis" xMin="6" yMin="-10" xMax="664" yMax="768">
      <contour>
        <pt x="6" y="481" on="0"/>
        <pt x="159" y="630" on="0"/>
        <pt x="513" y="630" on="0"/>
        <pt x="664" y="483" on="0"/>
        <pt x="664" y="150" on="0"/>
        <pt x="508" y="-10" on="0"/>
        <pt x="159" y="-10" on="0"/>
        <pt x="6" y="148" on="0"/>
      </contour>
      <contour>
        <pt x="381" y="641" on="0"/>
        <pt x="340" y="667" on="0"/>
        <pt x="340" y="740" on="0"/>
        <pt x="382" y="768" on="0"/>
        <pt x="489" y="768" on="0"/>
        <pt x="530" y="741" on="0"/>
        <pt x="530" y="667" on="0"/>
        <pt x="490" y="641" on="0"/>
      </contour>
      <contour>
        <pt x="171" y="641" on="0"/>
        <pt x="129" y="667" on="0"/>
        <pt x="129" y="740" on="0"/>
        <pt x="172" y="768" on="0"/>
        <pt x="278" y="768" on="0"/>
        <pt x="319" y="741" on="0"/>
        <pt x="319" y="667" on="0"/>
        <pt x="279" y="641" on="0"/>
      </contour>
      <contour>
        <pt x="357" y="157" on="1"/>
        <pt x="357" y="435" on="1"/>
        <pt x="325" y="435" on="1"/>
        <pt x="325" y="157" on="1"/>
      </contour>
    </TTGlyph>
    <TTGlyph name="Ograve" xMin="6" yMin="-10" xMax="664" yMax="779">
      <contour>
        <pt x="6" y="481" on="0"/>
        <pt x="159" y="630" on="0"/>
        <pt x="513" y="630" on="0"/>
        <pt x="664" y="483" on="0"/>
        <pt x="664" y="150" on="0"/>
        <pt x="508" y="-10" on="0"/>
        <pt x="159" y="-10" on="0"/>
        <pt x="6" y="148" on="0"/>
      </contour>
      <contour>
        <pt x="254" y="655" on="1"/>
        <pt x="141" y="779" on="1"/>
        <pt x="363" y="779" on="1"/>
        <pt x="424" y="655" on="1"/>
      </contour>
      <contour>
        <pt x="357" y="157" on="1"/>
        <pt x="357" y="435" on="1"/>
        <pt x="325" y="435" on="1"/>
        <pt x="325" y="157" on="1"/>
      </contour>
    </TTGlyph>
    <TTGlyph name="Omega" xMin="4" yMin="0" xMax="678" yMax="630">
      <contour>
        <pt x="4" y="0" on="1"/>
        <pt x="4" y="184" on="1"/>
        <pt x="69" y="184" on="1"/>
        <pt x="69" y="188" on="1"/>
        <pt x="38" y="234" on="0"/>
        <pt x="10" y="313" on="0"/>
        <pt x="10" y="368" on="1"/>
        <pt x="10" y="500" on="0"/>
        <pt x="180" y="630" on="0"/>
        <pt x="341" y="630" on="1"/>
        <pt x="668" y="630" on="0"/>
        <pt x="668" y="375" on="1"/>
        <pt x="668" y="314" on="0"/>
        <pt x="642" y="232" on="0"/>
        <pt x="610" y="188" on="1"/>
        <pt x="610" y="184" on="1"/>
        <pt x="678" y="184" on="1"/>
        <pt x="678" y="0" on="1"/>
        <pt x="363" y="0" on="1"/>
        <pt x="363" y="410" on="1"/>
        <pt x="327" y="410" on="1"/>
        <pt x="327" y="0" on="1"/>
      </contour>
    </TTGlyph>
    <TTGlyph name="Oslash" xMin="6" yMin="-48" xMax="664" yMax="673">
      <contour>
        <pt x="337" y="631" on="1"/>
        <pt x="361" y="631" on="0"/>
        <pt x="373" y="630" on="1"/>
        <pt x="393" y="673" on="1"/>
        <pt x="655" y="673" on="1"/>
        <pt x="596" y="549" on="1"/>
        <pt x="664" y="475" on="0"/>
        <pt x="664" y="150" on="0"/>
        <pt x="508" y="-10" on="0"/>
        <pt x="332" y="-10" on="1"/>
        <pt x="324" y="-10" on="1"/>
        <pt x="306" y="-48" on="1"/>
        <pt x="41" y="-48" on="1"/>
        <pt x="93" y="59" on="1"/>
        <pt x="6" y="135" on="0"/>
        <pt x="6" y="481" on="0"/>
        <pt x="160" y="631" on="0"/>
      </contour>
      <contour>
        <pt x="359" y="157" on="1"/>
        <pt x="359" y="435" on="1"/>
        <pt x="323" y="435" on="1"/>
        <pt x="323" y="157" on="1"/>
      </contour>
    </TTGlyph>
    <TTGlyph name="Otilde" xMin="6" yMin="-10" xMax="664" yMax="783">
      <contour>
        <pt x="6" y="481" on="0"/>
        <pt x="159" y="630" on="0"/>
        <pt x="513" y="630" on="0"/>
        <pt x="664" y="483" on="0"/>
        <pt x="664" y="150" on="0"/>
        <pt x="508" y="-10" on="0"/>
        <pt x="159" y="-10" on="0"/>
        <pt x="6" y="148" on="0"/>
      </contour>
      <contour>
        <pt x="532" y="783" on="1"/>
        <pt x="532" y="770" on="1"/>
        <pt x="532" y="701" on="0"/>
        <pt x="484" y="640" on="0"/>
        <pt x="411" y="640" on="1"/>
        <pt x="376" y="640" on="0"/>
        <pt x="307" y="663" on="1"/>
        <pt x="307" y="640" on="1"/>
        <pt x="135" y="640" on="1"/>
        <pt x="135" y="654" on="1"/>
        <pt x="135" y="720" on="0"/>
        <pt x="186" y="783" on="0"/>
        <pt x="252" y="783" on="1"/>
        <pt x="286" y="783" on="0"/>
        <pt x="361" y="760" on="1"/>
        <pt x="361" y="783" on="1"/>
      </contour>
      <contour>
        <pt x="357" y="157" on="1"/>
        <pt x="357" y="435" on="1"/>
        <pt x="325" y="435" on="1"/>
        <pt x="325" y="157" on="1"/>
      </contour>
    </TTGlyph>
    <TTGlyph name="P" xMin="20" yMin="0" xMax="594" yMax="621">
      <contour>
        <pt x="331" y="173" on="1"/>
        <pt x="302" y="173" on="1"/>
        <pt x="302" y="0" on="1"/>
        <pt x="20" y="0" on="1"/>
        <pt x="20" y="621" on="1"/>
        <pt x="319" y="621" on="1"/>
        <pt x="461" y="621" on="0"/>
        <pt x="594" y="511" on="0"/>
        <pt x="594" y="279" on="0"/>
        <pt x="466" y="173" on="0"/>
      </contour>
      <contour>
        <pt x="330" y="318" on="1"/>
        <pt x="330" y="442" on="1"/>
        <pt x="298" y="442" on="1"/>
        <pt x="298" y="318" on="1"/>
      </contour>
    </TTGlyph>
    <TTGlyph name="Q" xMin="6" yMin="-108" xMax="664" yMax="630">
      <contour>
        <pt x="6" y="481" on="0"/>
        <pt x="159" y="630" on="0"/>
        <pt x="513" y="630" on="0"/>
        <pt x="664" y="483" on="0"/>
        <pt x="664" y="320" on="1"/>
        <pt x="664" y="120" on="0"/>
        <pt x="518" y="51" on="1"/>
        <pt x="518" y="47" on="1"/>
        <pt x="653" y="47" on="1"/>
        <pt x="634" y="-108" on="1"/>
        <pt x="539" y="-108" on="1"/>
        <pt x="422" y="-108" on="0"/>
        <pt x="372" y="-65" on="1"/>
        <pt x="307" y="-10" on="1"/>
        <pt x="159" y="-10" on="0"/>
        <pt x="6" y="154" on="0"/>
      </contour>
      <contour>
        <pt x="357" y="157" on="1"/>
        <pt x="357" y="435" on="1"/>
        <pt x="325" y="435" on="1"/>
        <pt x="325" y="157" on="1"/>
      </contour>
    </TTGlyph>
    <TTGlyph name="R" xMin="20" yMin="0" xMax="628" yMax="621">
      <contour>
        <pt x="484" y="621" on="0"/>
        <pt x="608" y="523" on="0"/>
        <pt x="608" y="320" on="0"/>
        <pt x="545" y="264" on="1"/>
        <pt x="628" y="0" on="1"/>
        <pt x="356" y="0" on="1"/>
        <pt x="320" y="193" on="1"/>
        <pt x="302" y="193" on="1"/>
        <pt x="302" y="0" on="1"/>
        <pt x="20" y="0" on="1"/>
        <pt x="20" y="621" on="1"/>
        <pt x="350" y="621" on="1"/>
      </contour>
      <contour>
        <pt x="330" y="340" on="1"/>
        <pt x="330" y="442" on="1"/>
        <pt x="298" y="442" on="1"/>
        <pt x="298" y="340" on="1"/>
      </contour>
    </TTGlyph>
    <TTGlyph name="Racute" xMin="20" yMin="0" xMax="628" yMax="769">
      <contour>
        <pt x="484" y="621" on="0"/>
        <pt x="608" y="523" on="0"/>
        <pt x="608" y="320" on="0"/>
        <pt x="545" y="264" on="1"/>
        <pt x="628" y="0" on="1"/>
        <pt x="356" y="0" on="1"/>
        <pt x="320" y="193" on="1"/>
        <pt x="302" y="193" on="1"/>
        <pt x="302" y="0" on="1"/>
        <pt x="20" y="0" on="1"/>
        <pt x="20" y="621" on="1"/>
        <pt x="350" y="621" on="1"/>
      </contour>
      <contour>
        <pt x="330" y="340" on="1"/>
        <pt x="330" y="442" on="1"/>
        <pt x="298" y="442" on="1"/>
        <pt x="298" y="340" on="1"/>
      </contour>
      <contour>
        <pt x="478" y="769" on="1"/>
        <pt x="365" y="645" on="1"/>
        <pt x="195" y="645" on="1"/>
        <pt x="256" y="769" on="1"/>
      </contour>
    </TTGlyph>
    <TTGlyph name="Rcaron" xMin="20" yMin="0" xMax="628" yMax="769">
      <contour>
        <pt x="484" y="621" on="0"/>
        <pt x="608" y="523" on="0"/>
        <pt x="608" y="320" on="0"/>
        <pt x="545" y="264" on="1"/>
        <pt x="628" y="0" on="1"/>
        <pt x="356" y="0" on="1"/>
        <pt x="320" y="193" on="1"/>
        <pt x="302" y="193" on="1"/>
        <pt x="302" y="0" on="1"/>
        <pt x="20" y="0" on="1"/>
        <pt x="20" y="621" on="1"/>
        <pt x="350" y="621" on="1"/>
      </contour>
      <contour>
        <pt x="330" y="340" on="1"/>
        <pt x="330" y="442" on="1"/>
        <pt x="298" y="442" on="1"/>
        <pt x="298" y="340" on="1"/>
      </contour>
      <contour>
        <pt x="182" y="642" on="1"/>
        <pt x="117" y="769" on="1"/>
        <pt x="282" y="769" on="1"/>
        <pt x="298" y="735" on="1"/>
        <pt x="301" y="735" on="1"/>
        <pt x="317" y="769" on="1"/>
        <pt x="486" y="769" on="1"/>
        <pt x="421" y="642" on="1"/>
      </contour>
    </TTGlyph>
    <TTGlyph name="Rcommaaccent" xMin="20" yMin="-175" xMax="628" yMax="621">
      <contour>
        <pt x="484" y="621" on="0"/>
        <pt x="608" y="523" on="0"/>
        <pt x="608" y="320" on="0"/>
        <pt x="545" y="264" on="1"/>
        <pt x="628" y="0" on="1"/>
        <pt x="356" y="0" on="1"/>
        <pt x="320" y="193" on="1"/>
        <pt x="302" y="193" on="1"/>
        <pt x="302" y="0" on="1"/>
        <pt x="20" y="0" on="1"/>
        <pt x="20" y="621" on="1"/>
        <pt x="350" y="621" on="1"/>
      </contour>
      <contour>
        <pt x="330" y="340" on="1"/>
        <pt x="330" y="442" on="1"/>
        <pt x="298" y="442" on="1"/>
        <pt x="298" y="340" on="1"/>
      </contour>
      <contour>
        <pt x="236" y="-89" on="1"/>
        <pt x="236" y="-64" on="1"/>
        <pt x="236" y="-9" on="0"/>
        <pt x="312" y="-9" on="1"/>
        <pt x="347" y="-9" on="1"/>
        <pt x="391" y="-9" on="0"/>
        <pt x="426" y="-37" on="0"/>
        <pt x="426" y="-109" on="0"/>
        <pt x="402" y="-151" on="0"/>
        <pt x="366" y="-175" on="1"/>
        <pt x="269" y="-175" on="1"/>
        <pt x="296" y="-137" on="1"/>
        <pt x="263" y="-137" on="0"/>
        <pt x="236" y="-117" on="0"/>
      </contour>
    </TTGlyph>
    <TTGlyph name="S" xMin="0" yMin="-10" xMax="529" yMax="630">
      <contour>
        <pt x="529" y="204" on="1"/>
        <pt x="529" y="-10" on="0"/>
        <pt x="272" y="-10" on="1"/>
        <pt x="145" y="-10" on="0"/>
        <pt x="19" y="20" on="1"/>
        <pt x="27" y="202" on="1"/>
        <pt x="257" y="158" on="1"/>
        <pt x="257" y="176" on="1"/>
        <pt x="190" y="190" on="0"/>
        <pt x="106" y="219" on="0"/>
        <pt x="70" y="245" on="1"/>
        <pt x="0" y="295" on="0"/>
        <pt x="0" y="514" on="0"/>
        <pt x="133" y="630" on="0"/>
        <pt x="379" y="630" on="0"/>
        <pt x="513" y="609" on="1"/>
        <pt x="494" y="410" on="1"/>
        <pt x="271" y="444" on="1"/>
        <pt x="271" y="425" on="1"/>
        <pt x="405" y="407" on="0"/>
        <pt x="529" y="314" on="0"/>
      </contour>
    </TTGlyph>
    <TTGlyph name="Scaron" xMin="0" yMin="-10" xMax="529" yMax="769">
      <contour>
        <pt x="529" y="204" on="1"/>
        <pt x="529" y="-10" on="0"/>
        <pt x="272" y="-10" on="1"/>
        <pt x="145" y="-10" on="0"/>
        <pt x="19" y="20" on="1"/>
        <pt x="27" y="202" on="1"/>
        <pt x="257" y="158" on="1"/>
        <pt x="257" y="176" on="1"/>
        <pt x="190" y="190" on="0"/>
        <pt x="106" y="219" on="0"/>
        <pt x="70" y="245" on="1"/>
        <pt x="0" y="295" on="0"/>
        <pt x="0" y="514" on="0"/>
        <pt x="133" y="630" on="0"/>
        <pt x="379" y="630" on="0"/>
        <pt x="513" y="609" on="1"/>
        <pt x="494" y="410" on="1"/>
        <pt x="271" y="444" on="1"/>
        <pt x="271" y="425" on="1"/>
        <pt x="405" y="407" on="0"/>
        <pt x="529" y="314" on="0"/>
      </contour>
      <contour>
        <pt x="136" y="642" on="1"/>
        <pt x="71" y="769" on="1"/>
        <pt x="236" y="769" on="1"/>
        <pt x="252" y="735" on="1"/>
        <pt x="255" y="735" on="1"/>
        <pt x="271" y="769" on="1"/>
        <pt x="440" y="769" on="1"/>
        <pt x="375" y="642" on="1"/>
      </contour>
    </TTGlyph>
    <TTGlyph name="T" xMin="0" yMin="0" xMax="486" yMax="621">
      <contour>
        <pt x="473" y="419" on="1"/>
        <pt x="383" y="419" on="1"/>
        <pt x="383" y="0" on="1"/>
        <pt x="100" y="0" on="1"/>
        <pt x="100" y="419" on="1"/>
        <pt x="0" y="419" on="1"/>
        <pt x="10" y="621" on="1"/>
        <pt x="486" y="621" on="1"/>
      </contour>
    </TTGlyph>
    <TTGlyph name="Thorn" xMin="20" yMin="0" xMax="594" yMax="621">
      <contour>
        <pt x="594" y="423" on="0"/>
        <pt x="594" y="191" on="0"/>
        <pt x="465" y="83" on="0"/>
        <pt x="331" y="83" on="1"/>
        <pt x="302" y="83" on="1"/>
        <pt x="302" y="0" on="1"/>
        <pt x="20" y="0" on="1"/>
        <pt x="20" y="621" on="1"/>
        <pt x="302" y="621" on="1"/>
        <pt x="302" y="531" on="1"/>
        <pt x="319" y="531" on="1"/>
        <pt x="462" y="531" on="0"/>
      </contour>
      <contour>
        <pt x="330" y="230" on="1"/>
        <pt x="330" y="354" on="1"/>
        <pt x="302" y="354" on="1"/>
        <pt x="302" y="230" on="1"/>
      </contour>
    </TTGlyph>
    <TTGlyph name="U" xMin="20" yMin="-10" xMax="624" yMax="621">
      <contour>
        <pt x="304" y="621" on="1"/>
        <pt x="304" y="177" on="1"/>
        <pt x="336" y="177" on="1"/>
        <pt x="336" y="621" on="1"/>
        <pt x="624" y="621" on="1"/>
        <pt x="624" y="208" on="1"/>
        <pt x="624" y="-10" on="0"/>
        <pt x="319" y="-10" on="1"/>
        <pt x="174" y="-10" on="0"/>
        <pt x="20" y="98" on="0"/>
        <pt x="20" y="206" on="1"/>
        <pt x="20" y="621" on="1"/>
      </contour>
    </TTGlyph>
    <TTGlyph name="Uacute" xMin="20" yMin="-10" xMax="624" yMax="769">
      <contour>
        <pt x="304" y="621" on="1"/>
        <pt x="304" y="177" on="1"/>
        <pt x="336" y="177" on="1"/>
        <pt x="336" y="621" on="1"/>
        <pt x="624" y="621" on="1"/>
        <pt x="624" y="208" on="1"/>
        <pt x="624" y="-10" on="0"/>
        <pt x="319" y="-10" on="1"/>
        <pt x="174" y="-10" on="0"/>
        <pt x="20" y="98" on="0"/>
        <pt x="20" y="206" on="1"/>
        <pt x="20" y="621" on="1"/>
      </contour>
      <contour>
        <pt x="519" y="769" on="1"/>
        <pt x="406" y="645" on="1"/>
        <pt x="236" y="645" on="1"/>
        <pt x="297" y="769" on="1"/>
      </contour>
    </TTGlyph>
    <TTGlyph name="Ucircumflex" xMin="20" yMin="-10" xMax="624" yMax="763">
      <contour>
        <pt x="304" y="621" on="1"/>
        <pt x="304" y="177" on="1"/>
        <pt x="336" y="177" on="1"/>
        <pt x="336" y="621" on="1"/>
        <pt x="624" y="621" on="1"/>
        <pt x="624" y="208" on="1"/>
        <pt x="624" y="-10" on="0"/>
        <pt x="319" y="-10" on="1"/>
        <pt x="174" y="-10" on="0"/>
        <pt x="20" y="98" on="0"/>
        <pt x="20" y="206" on="1"/>
        <pt x="20" y="621" on="1"/>
      </contour>
      <contour>
        <pt x="437" y="763" on="1"/>
        <pt x="502" y="636" on="1"/>
        <pt x="337" y="636" on="1"/>
        <pt x="321" y="670" on="1"/>
        <pt x="318" y="670" on="1"/>
        <pt x="302" y="636" on="1"/>
        <pt x="133" y="636" on="1"/>
        <pt x="198" y="763" on="1"/>
      </contour>
    </TTGlyph>
    <TTGlyph name="Udieresis" xMin="20" yMin="-10" xMax="624" yMax="768">
      <contour>
        <pt x="304" y="621" on="1"/>
        <pt x="304" y="177" on="1"/>
        <pt x="336" y="177" on="1"/>
        <pt x="336" y="621" on="1"/>
        <pt x="624" y="621" on="1"/>
        <pt x="624" y="208" on="1"/>
        <pt x="624" y="-10" on="0"/>
        <pt x="319" y="-10" on="1"/>
        <pt x="174" y="-10" on="0"/>
        <pt x="20" y="98" on="0"/>
        <pt x="20" y="206" on="1"/>
        <pt x="20" y="621" on="1"/>
      </contour>
      <contour>
        <pt x="160" y="641" on="0"/>
        <pt x="118" y="667" on="0"/>
        <pt x="118" y="740" on="0"/>
        <pt x="161" y="768" on="0"/>
        <pt x="267" y="768" on="0"/>
        <pt x="308" y="741" on="0"/>
        <pt x="308" y="667" on="0"/>
        <pt x="268" y="641" on="0"/>
      </contour>
      <contour>
        <pt x="370" y="641" on="0"/>
        <pt x="329" y="667" on="0"/>
        <pt x="329" y="740" on="0"/>
        <pt x="371" y="768" on="0"/>
        <pt x="478" y="768" on="0"/>
        <pt x="519" y="741" on="0"/>
        <pt x="519" y="667" on="0"/>
        <pt x="479" y="641" on="0"/>
      </contour>
    </TTGlyph>
    <TTGlyph name="Ugrave" xMin="20" yMin="-10" xMax="624" yMax="769">
      <contour>
        <pt x="304" y="621" on="1"/>
        <pt x="304" y="177" on="1"/>
        <pt x="336" y="177" on="1"/>
        <pt x="336" y="621" on="1"/>
        <pt x="624" y="621" on="1"/>
        <pt x="624" y="208" on="1"/>
        <pt x="624" y="-10" on="0"/>
        <pt x="319" y="-10" on="1"/>
        <pt x="174" y="-10" on="0"/>
        <pt x="20" y="98" on="0"/>
        <pt x="20" y="206" on="1"/>
        <pt x="20" y="621" on="1"/>
      </contour>
      <contour>
        <pt x="234" y="645" on="1"/>
        <pt x="121" y="769" on="1"/>
        <pt x="343" y="769" on="1"/>
        <pt x="404" y="645" on="1"/>
      </contour>
    </TTGlyph>
    <TTGlyph name="V" xMin="0" yMin="0" xMax="636" yMax="621">
      <contour>
        <pt x="636" y="621" on="1"/>
        <pt x="545" y="0" on="1"/>
        <pt x="99" y="0" on="1"/>
        <pt x="0" y="621" on="1"/>
        <pt x="292" y="621" on="1"/>
        <pt x="316" y="257" on="1"/>
        <pt x="335" y="257" on="1"/>
        <pt x="356" y="621" on="1"/>
      </contour>
    </TTGlyph>
    <TTGlyph name="W" xMin="0" yMin="0" xMax="816" yMax="621">
      <contour>
        <pt x="816" y="621" on="1"/>
        <pt x="769" y="0" on="1"/>
        <pt x="454" y="0" on="1"/>
        <pt x="423" y="226" on="1"/>
        <pt x="409" y="226" on="1"/>
        <pt x="383" y="0" on="1"/>
        <pt x="60" y="0" on="1"/>
        <pt x="0" y="621" on="1"/>
        <pt x="245" y="621" on="1"/>
        <pt x="262" y="369" on="1"/>
        <pt x="274" y="369" on="1"/>
        <pt x="297" y="621" on="1"/>
        <pt x="532" y="621" on="1"/>
        <pt x="554" y="369" on="1"/>
        <pt x="565" y="369" on="1"/>
        <pt x="580" y="621" on="1"/>
      </contour>
    </TTGlyph>
    <TTGlyph name="X" xMin="-6" yMin="0" xMax="660" yMax="621">
      <contour>
        <pt x="660" y="0" on="1"/>
        <pt x="359" y="0" on="1"/>
        <pt x="327" y="150" on="1"/>
        <pt x="314" y="150" on="1"/>
        <pt x="280" y="0" on="1"/>
        <pt x="-6" y="0" on="1"/>
        <pt x="92" y="315" on="1"/>
        <pt x="6" y="621" on="1"/>
        <pt x="302" y="621" on="1"/>
        <pt x="330" y="473" on="1"/>
        <pt x="342" y="473" on="1"/>
        <pt x="366" y="621" on="1"/>
        <pt x="644" y="621" on="1"/>
        <pt x="567" y="315" on="1"/>
      </contour>
    </TTGlyph>
    <TTGlyph name="Y" xMin="-12" yMin="0" xMax="599" yMax="621">
      <contour>
        <pt x="599" y="621" on="1"/>
        <pt x="432" y="161" on="1"/>
        <pt x="432" y="0" on="1"/>
        <pt x="150" y="0" on="1"/>
        <pt x="150" y="162" on="1"/>
        <pt x="-12" y="621" on="1"/>
        <pt x="266" y="621" on="1"/>
        <pt x="291" y="417" on="1"/>
        <pt x="303" y="417" on="1"/>
        <pt x="328" y="621" on="1"/>
      </contour>
    </TTGlyph>
    <TTGlyph name="Yacute" xMin="-6" yMin="0" xMax="605" yMax="769">
      <contour>
        <pt x="605" y="621" on="1"/>
        <pt x="438" y="161" on="1"/>
        <pt x="438" y="0" on="1"/>
        <pt x="156" y="0" on="1"/>
        <pt x="156" y="162" on="1"/>
        <pt x="-6" y="621" on="1"/>
        <pt x="272" y="621" on="1"/>
        <pt x="297" y="417" on="1"/>
        <pt x="309" y="417" on="1"/>
        <pt x="334" y="621" on="1"/>
      </contour>
      <contour>
        <pt x="495" y="769" on="1"/>
        <pt x="382" y="645" on="1"/>
        <pt x="212" y="645" on="1"/>
        <pt x="273" y="769" on="1"/>
      </contour>
    </TTGlyph>
    <TTGlyph name="Ydieresis" xMin="-6" yMin="0" xMax="605" yMax="768">
      <contour>
        <pt x="605" y="621" on="1"/>
        <pt x="438" y="161" on="1"/>
        <pt x="438" y="0" on="1"/>
        <pt x="156" y="0" on="1"/>
        <pt x="156" y="162" on="1"/>
        <pt x="-6" y="621" on="1"/>
        <pt x="272" y="621" on="1"/>
        <pt x="297" y="417" on="1"/>
        <pt x="309" y="417" on="1"/>
        <pt x="334" y="621" on="1"/>
      </contour>
      <contour>
        <pt x="140" y="641" on="0"/>
        <pt x="98" y="667" on="0"/>
        <pt x="98" y="740" on="0"/>
        <pt x="141" y="768" on="0"/>
        <pt x="247" y="768" on="0"/>
        <pt x="288" y="741" on="0"/>
        <pt x="288" y="667" on="0"/>
        <pt x="248" y="641" on="0"/>
      </contour>
      <contour>
        <pt x="350" y="641" on="0"/>
        <pt x="309" y="667" on="0"/>
        <pt x="309" y="740" on="0"/>
        <pt x="351" y="768" on="0"/>
        <pt x="458" y="768" on="0"/>
        <pt x="499" y="741" on="0"/>
        <pt x="499" y="667" on="0"/>
        <pt x="459" y="641" on="0"/>
      </contour>
    </TTGlyph>
    <TTGlyph name="Z" xMin="2" yMin="0" xMax="579" yMax="621">
      <contour>
        <pt x="579" y="0" on="1"/>
        <pt x="28" y="1" on="1"/>
        <pt x="20" y="155" on="1"/>
        <pt x="206" y="417" on="1"/>
        <pt x="15" y="417" on="1"/>
        <pt x="2" y="621" on="1"/>
        <pt x="565" y="621" on="1"/>
        <pt x="573" y="467" on="1"/>
        <pt x="407" y="187" on="1"/>
        <pt x="579" y="187" on="1"/>
      </contour>
    </TTGlyph>
    <TTGlyph name="Zcaron" xMin="0" yMin="0" xMax="577" yMax="769">
      <contour>
        <pt x="577" y="0" on="1"/>
        <pt x="26" y="1" on="1"/>
        <pt x="18" y="155" on="1"/>
        <pt x="204" y="417" on="1"/>
        <pt x="13" y="417" on="1"/>
        <pt x="0" y="621" on="1"/>
        <pt x="563" y="621" on="1"/>
        <pt x="571" y="467" on="1"/>
        <pt x="405" y="187" on="1"/>
        <pt x="577" y="187" on="1"/>
      </contour>
      <contour>
        <pt x="172" y="642" on="1"/>
        <pt x="107" y="769" on="1"/>
        <pt x="272" y="769" on="1"/>
        <pt x="288" y="735" on="1"/>
        <pt x="291" y="735" on="1"/>
        <pt x="307" y="769" on="1"/>
        <pt x="476" y="769" on="1"/>
        <pt x="411" y="642" on="1"/>
      </contour>
    </TTGlyph>
    <TTGlyph name="a" xMin="0" yMin="-10" xMax="545" yMax="491">
      <contour>
        <pt x="525" y="346" on="1"/>
        <pt x="520" y="174" on="1"/>
        <pt x="520" y="150" on="0"/>
        <pt x="545" y="150" on="1"/>
        <pt x="531" y="-6" on="1"/>
        <pt x="471" y="-10" on="0"/>
        <pt x="435" y="-10" on="1"/>
        <pt x="345" y="-10" on="0"/>
        <pt x="305" y="21" on="1"/>
        <pt x="300" y="21" on="1"/>
        <pt x="240" y="-10" on="0"/>
        <pt x="168" y="-10" on="1"/>
        <pt x="0" y="-10" on="0"/>
        <pt x="0" y="136" on="1"/>
        <pt x="0" y="227" on="0"/>
        <pt x="70" y="260" on="1"/>
        <pt x="107" y="277" on="0"/>
        <pt x="197" y="291" on="0"/>
        <pt x="266" y="294" on="1"/>
        <pt x="266" y="315" on="1"/>
        <pt x="38" y="296" on="1"/>
        <pt x="19" y="472" on="1"/>
        <pt x="168" y="491" on="0"/>
        <pt x="417" y="491" on="0"/>
        <pt x="525" y="425" on="0"/>
      </contour>
      <contour>
        <pt x="256" y="196" on="1"/>
        <pt x="256" y="116" on="1"/>
        <pt x="276" y="116" on="1"/>
        <pt x="276" y="196" on="1"/>
      </contour>
    </TTGlyph>
    <TTGlyph name="aacute" xMin="0" yMin="-10" xMax="545" yMax="641">
      <contour>
        <pt x="525" y="346" on="1"/>
        <pt x="520" y="174" on="1"/>
        <pt x="520" y="150" on="0"/>
        <pt x="545" y="150" on="1"/>
        <pt x="531" y="-6" on="1"/>
        <pt x="471" y="-10" on="0"/>
        <pt x="435" y="-10" on="1"/>
        <pt x="345" y="-10" on="0"/>
        <pt x="305" y="21" on="1"/>
        <pt x="300" y="21" on="1"/>
        <pt x="240" y="-10" on="0"/>
        <pt x="168" y="-10" on="1"/>
        <pt x="0" y="-10" on="0"/>
        <pt x="0" y="136" on="1"/>
        <pt x="0" y="227" on="0"/>
        <pt x="70" y="260" on="1"/>
        <pt x="107" y="277" on="0"/>
        <pt x="197" y="291" on="0"/>
        <pt x="266" y="294" on="1"/>
        <pt x="266" y="315" on="1"/>
        <pt x="38" y="296" on="1"/>
        <pt x="19" y="472" on="1"/>
        <pt x="168" y="491" on="0"/>
        <pt x="417" y="491" on="0"/>
        <pt x="525" y="425" on="0"/>
      </contour>
      <contour>
        <pt x="256" y="196" on="1"/>
        <pt x="256" y="116" on="1"/>
        <pt x="276" y="116" on="1"/>
        <pt x="276" y="196" on="1"/>
      </contour>
      <contour>
        <pt x="483" y="641" on="1"/>
        <pt x="364" y="511" on="1"/>
        <pt x="185" y="511" on="1"/>
        <pt x="249" y="641" on="1"/>
      </contour>
    </TTGlyph>
    <TTGlyph name="acircumflex" xMin="0" yMin="-10" xMax="545" yMax="635">
      <contour>
        <pt x="525" y="346" on="1"/>
        <pt x="520" y="174" on="1"/>
        <pt x="520" y="150" on="0"/>
        <pt x="545" y="150" on="1"/>
        <pt x="531" y="-6" on="1"/>
        <pt x="471" y="-10" on="0"/>
        <pt x="435" y="-10" on="1"/>
        <pt x="345" y="-10" on="0"/>
        <pt x="305" y="21" on="1"/>
        <pt x="300" y="21" on="1"/>
        <pt x="240" y="-10" on="0"/>
        <pt x="168" y="-10" on="1"/>
        <pt x="0" y="-10" on="0"/>
        <pt x="0" y="136" on="1"/>
        <pt x="0" y="227" on="0"/>
        <pt x="70" y="260" on="1"/>
        <pt x="107" y="277" on="0"/>
        <pt x="197" y="291" on="0"/>
        <pt x="266" y="294" on="1"/>
        <pt x="266" y="315" on="1"/>
        <pt x="38" y="296" on="1"/>
        <pt x="19" y="472" on="1"/>
        <pt x="168" y="491" on="0"/>
        <pt x="417" y="491" on="0"/>
        <pt x="525" y="425" on="0"/>
      </contour>
      <contour>
        <pt x="256" y="196" on="1"/>
        <pt x="256" y="116" on="1"/>
        <pt x="276" y="116" on="1"/>
        <pt x="276" y="196" on="1"/>
      </contour>
      <contour>
        <pt x="398" y="635" on="1"/>
        <pt x="466" y="501" on="1"/>
        <pt x="292" y="501" on="1"/>
        <pt x="276" y="537" on="1"/>
        <pt x="272" y="537" on="1"/>
        <pt x="256" y="501" on="1"/>
        <pt x="78" y="501" on="1"/>
        <pt x="146" y="635" on="1"/>
      </contour>
    </TTGlyph>
    <TTGlyph name="acute" xMin="179" yMin="511" xMax="477" yMax="641">
      <contour>
        <pt x="477" y="641" on="1"/>
        <pt x="358" y="511" on="1"/>
        <pt x="179" y="511" on="1"/>
        <pt x="243" y="641" on="1"/>
      </contour>
    </TTGlyph>
    <TTGlyph name="adieresis" xMin="0" yMin="-10" xMax="545" yMax="640">
      <contour>
        <pt x="525" y="346" on="1"/>
        <pt x="520" y="174" on="1"/>
        <pt x="520" y="150" on="0"/>
        <pt x="545" y="150" on="1"/>
        <pt x="531" y="-6" on="1"/>
        <pt x="471" y="-10" on="0"/>
        <pt x="435" y="-10" on="1"/>
        <pt x="345" y="-10" on="0"/>
        <pt x="305" y="21" on="1"/>
        <pt x="300" y="21" on="1"/>
        <pt x="240" y="-10" on="0"/>
        <pt x="168" y="-10" on="1"/>
        <pt x="0" y="-10" on="0"/>
        <pt x="0" y="136" on="1"/>
        <pt x="0" y="227" on="0"/>
        <pt x="70" y="260" on="1"/>
        <pt x="107" y="277" on="0"/>
        <pt x="197" y="291" on="0"/>
        <pt x="266" y="294" on="1"/>
        <pt x="266" y="315" on="1"/>
        <pt x="38" y="296" on="1"/>
        <pt x="19" y="472" on="1"/>
        <pt x="168" y="491" on="0"/>
        <pt x="417" y="491" on="0"/>
        <pt x="525" y="425" on="0"/>
      </contour>
      <contour>
        <pt x="256" y="196" on="1"/>
        <pt x="256" y="116" on="1"/>
        <pt x="276" y="116" on="1"/>
        <pt x="276" y="196" on="1"/>
      </contour>
      <contour>
        <pt x="108" y="506" on="0"/>
        <pt x="64" y="534" on="0"/>
        <pt x="64" y="611" on="0"/>
        <pt x="109" y="640" on="0"/>
        <pt x="221" y="640" on="0"/>
        <pt x="264" y="611" on="0"/>
        <pt x="264" y="534" on="0"/>
        <pt x="222" y="506" on="0"/>
      </contour>
      <contour>
        <pt x="330" y="506" on="0"/>
        <pt x="286" y="534" on="0"/>
        <pt x="286" y="611" on="0"/>
        <pt x="331" y="640" on="0"/>
        <pt x="443" y="640" on="0"/>
        <pt x="486" y="611" on="0"/>
        <pt x="486" y="534" on="0"/>
        <pt x="444" y="506" on="0"/>
      </contour>
    </TTGlyph>
    <TTGlyph name="ae" xMin="0" yMin="-10" xMax="806" yMax="491">
      <contour>
        <pt x="806" y="298" on="1"/>
        <pt x="806" y="255" on="0"/>
        <pt x="798" y="180" on="1"/>
        <pt x="533" y="180" on="1"/>
        <pt x="533" y="162" on="1"/>
        <pt x="576" y="157" on="0"/>
        <pt x="662" y="157" on="0"/>
        <pt x="780" y="163" on="1"/>
        <pt x="790" y="12" on="1"/>
        <pt x="652" y="-10" on="0"/>
        <pt x="430" y="-10" on="0"/>
        <pt x="355" y="21" on="1"/>
        <pt x="350" y="21" on="1"/>
        <pt x="267" y="-10" on="0"/>
        <pt x="168" y="-10" on="1"/>
        <pt x="0" y="-10" on="0"/>
        <pt x="0" y="136" on="1"/>
        <pt x="0" y="227" on="0"/>
        <pt x="70" y="260" on="1"/>
        <pt x="107" y="277" on="0"/>
        <pt x="197" y="291" on="0"/>
        <pt x="266" y="294" on="1"/>
        <pt x="266" y="315" on="1"/>
        <pt x="38" y="296" on="1"/>
        <pt x="19" y="472" on="1"/>
        <pt x="168" y="491" on="0"/>
        <pt x="383" y="491" on="0"/>
        <pt x="432" y="475" on="1"/>
        <pt x="483" y="491" on="0"/>
        <pt x="556" y="491" on="1"/>
        <pt x="695" y="491" on="0"/>
        <pt x="806" y="392" on="0"/>
      </contour>
      <contour>
        <pt x="256" y="196" on="1"/>
        <pt x="256" y="116" on="1"/>
        <pt x="276" y="116" on="1"/>
        <pt x="276" y="196" on="1"/>
      </contour>
      <contour>
        <pt x="552" y="254" on="1"/>
        <pt x="552" y="333" on="1"/>
        <pt x="532" y="333" on="1"/>
        <pt x="532" y="254" on="1"/>
      </contour>
    </TTGlyph>
    <TTGlyph name="agrave" xMin="0" yMin="-10" xMax="545" yMax="641">
      <contour>
        <pt x="525" y="346" on="1"/>
        <pt x="520" y="174" on="1"/>
        <pt x="520" y="150" on="0"/>
        <pt x="545" y="150" on="1"/>
        <pt x="531" y="-6" on="1"/>
        <pt x="471" y="-10" on="0"/>
        <pt x="435" y="-10" on="1"/>
        <pt x="345" y="-10" on="0"/>
        <pt x="305" y="21" on="1"/>
        <pt x="300" y="21" on="1"/>
        <pt x="240" y="-10" on="0"/>
        <pt x="168" y="-10" on="1"/>
        <pt x="0" y="-10" on="0"/>
        <pt x="0" y="136" on="1"/>
        <pt x="0" y="227" on="0"/>
        <pt x="70" y="260" on="1"/>
        <pt x="107" y="277" on="0"/>
        <pt x="197" y="291" on="0"/>
        <pt x="266" y="294" on="1"/>
        <pt x="266" y="315" on="1"/>
        <pt x="38" y="296" on="1"/>
        <pt x="19" y="472" on="1"/>
        <pt x="168" y="491" on="0"/>
        <pt x="417" y="491" on="0"/>
        <pt x="525" y="425" on="0"/>
      </contour>
      <contour>
        <pt x="256" y="196" on="1"/>
        <pt x="256" y="116" on="1"/>
        <pt x="276" y="116" on="1"/>
        <pt x="276" y="196" on="1"/>
      </contour>
      <contour>
        <pt x="210" y="511" on="1"/>
        <pt x="91" y="641" on="1"/>
        <pt x="325" y="641" on="1"/>
        <pt x="389" y="511" on="1"/>
      </contour>
    </TTGlyph>
    <TTGlyph name="ampersand" xMin="0" yMin="-10" xMax="698" yMax="631">
      <contour>
        <pt x="279" y="-10" on="1"/>
        <pt x="0" y="-10" on="0"/>
        <pt x="0" y="179" on="1"/>
        <pt x="0" y="247" on="0"/>
        <pt x="58" y="322" on="0"/>
        <pt x="115" y="345" on="1"/>
        <pt x="115" y="349" on="1"/>
        <pt x="59" y="393" on="0"/>
        <pt x="59" y="460" on="1"/>
        <pt x="59" y="631" on="0"/>
        <pt x="314" y="631" on="1"/>
        <pt x="437" y="631" on="0"/>
        <pt x="568" y="547" on="0"/>
        <pt x="568" y="398" on="0"/>
        <pt x="507" y="330" on="0"/>
        <pt x="434" y="305" on="1"/>
        <pt x="434" y="301" on="1"/>
        <pt x="485" y="250" on="1"/>
        <pt x="489" y="250" on="1"/>
        <pt x="489" y="305" on="1"/>
        <pt x="687" y="305" on="1"/>
        <pt x="687" y="252" on="1"/>
        <pt x="687" y="174" on="0"/>
        <pt x="646" y="134" on="1"/>
        <pt x="648" y="130" on="1"/>
        <pt x="698" y="130" on="1"/>
        <pt x="690" y="-10" on="1"/>
        <pt x="588" y="-10" on="1"/>
        <pt x="502" y="-10" on="0"/>
        <pt x="455" y="15" on="1"/>
        <pt x="447" y="15" on="1"/>
        <pt x="369" y="-10" on="0"/>
      </contour>
      <contour>
        <pt x="336" y="385" on="1"/>
        <pt x="336" y="467" on="1"/>
        <pt x="300" y="467" on="1"/>
        <pt x="300" y="385" on="1"/>
      </contour>
      <contour>
        <pt x="317" y="130" on="1"/>
        <pt x="238" y="206" on="1"/>
        <pt x="238" y="149" on="1"/>
        <pt x="238" y="130" on="0"/>
        <pt x="258" y="130" on="1"/>
      </contour>
    </TTGlyph>
    <TTGlyph name="approxequal" xMin="36" yMin="58" xMax="446" yMax="456">
      <contour>
        <pt x="446" y="456" on="1"/>
        <pt x="446" y="424" on="1"/>
        <pt x="446" y="349" on="0"/>
        <pt x="393" y="269" on="0"/>
        <pt x="314" y="269" on="1"/>
        <pt x="268" y="269" on="0"/>
        <pt x="216" y="287" on="1"/>
        <pt x="216" y="264" on="1"/>
        <pt x="36" y="264" on="1"/>
        <pt x="36" y="297" on="1"/>
        <pt x="36" y="373" on="0"/>
        <pt x="92" y="452" on="0"/>
        <pt x="164" y="452" on="1"/>
        <pt x="199" y="452" on="0"/>
        <pt x="266" y="432" on="1"/>
        <pt x="266" y="456" on="1"/>
      </contour>
      <contour>
        <pt x="446" y="250" on="1"/>
        <pt x="446" y="218" on="1"/>
        <pt x="446" y="143" on="0"/>
        <pt x="393" y="63" on="0"/>
        <pt x="314" y="63" on="1"/>
        <pt x="268" y="63" on="0"/>
        <pt x="216" y="81" on="1"/>
        <pt x="216" y="58" on="1"/>
        <pt x="36" y="58" on="1"/>
        <pt x="36" y="91" on="1"/>
        <pt x="36" y="167" on="0"/>
        <pt x="92" y="246" on="0"/>
        <pt x="164" y="246" on="1"/>
        <pt x="199" y="246" on="0"/>
        <pt x="266" y="226" on="1"/>
        <pt x="266" y="250" on="1"/>
      </contour>
    </TTGlyph>
    <TTGlyph name="aring" xMin="0" yMin="-10" xMax="545" yMax="662">
      <contour>
        <pt x="525" y="346" on="1"/>
        <pt x="520" y="174" on="1"/>
        <pt x="520" y="150" on="0"/>
        <pt x="545" y="150" on="1"/>
        <pt x="531" y="-6" on="1"/>
        <pt x="471" y="-10" on="0"/>
        <pt x="435" y="-10" on="1"/>
        <pt x="345" y="-10" on="0"/>
        <pt x="305" y="21" on="1"/>
        <pt x="300" y="21" on="1"/>
        <pt x="240" y="-10" on="0"/>
        <pt x="168" y="-10" on="1"/>
        <pt x="0" y="-10" on="0"/>
        <pt x="0" y="136" on="1"/>
        <pt x="0" y="227" on="0"/>
        <pt x="70" y="260" on="1"/>
        <pt x="107" y="277" on="0"/>
        <pt x="197" y="291" on="0"/>
        <pt x="266" y="294" on="1"/>
        <pt x="266" y="315" on="1"/>
        <pt x="38" y="296" on="1"/>
        <pt x="19" y="472" on="1"/>
        <pt x="168" y="491" on="0"/>
        <pt x="417" y="491" on="0"/>
        <pt x="525" y="425" on="0"/>
      </contour>
      <contour>
        <pt x="144" y="628" on="0"/>
        <pt x="204" y="662" on="0"/>
        <pt x="345" y="662" on="0"/>
        <pt x="404" y="630" on="0"/>
        <pt x="404" y="533" on="0"/>
        <pt x="346" y="501" on="0"/>
        <pt x="204" y="501" on="0"/>
        <pt x="144" y="533" on="0"/>
      </contour>
      <contour>
        <pt x="256" y="196" on="1"/>
        <pt x="256" y="116" on="1"/>
        <pt x="276" y="116" on="1"/>
        <pt x="276" y="196" on="1"/>
      </contour>
      <contour>
        <pt x="284" y="550" on="1"/>
        <pt x="284" y="605" on="1"/>
        <pt x="264" y="605" on="1"/>
        <pt x="264" y="550" on="1"/>
      </contour>
    </TTGlyph>
    <TTGlyph name="asciicircum" xMin="53" yMin="501" xMax="441" yMax="635">
      <contour>
        <pt x="373" y="635" on="1"/>
        <pt x="441" y="501" on="1"/>
        <pt x="267" y="501" on="1"/>
        <pt x="251" y="537" on="1"/>
        <pt x="247" y="537" on="1"/>
        <pt x="231" y="501" on="1"/>
        <pt x="53" y="501" on="1"/>
        <pt x="121" y="635" on="1"/>
      </contour>
    </TTGlyph>
    <TTGlyph name="asciitilde" xMin="43" yMin="505" xMax="461" yMax="656">
      <contour>
        <pt x="461" y="656" on="1"/>
        <pt x="461" y="642" on="1"/>
        <pt x="461" y="570" on="0"/>
        <pt x="410" y="505" on="0"/>
        <pt x="334" y="505" on="1"/>
        <pt x="300" y="505" on="0"/>
        <pt x="224" y="529" on="1"/>
        <pt x="224" y="505" on="1"/>
        <pt x="43" y="505" on="1"/>
        <pt x="43" y="520" on="1"/>
        <pt x="43" y="590" on="0"/>
        <pt x="96" y="656" on="0"/>
        <pt x="166" y="656" on="1"/>
        <pt x="199" y="656" on="0"/>
        <pt x="281" y="632" on="1"/>
        <pt x="281" y="656" on="1"/>
      </contour>
    </TTGlyph>
    <TTGlyph name="asterisk" xMin="8" yMin="248" xMax="478" yMax="640">
      <contour>
        <pt x="478" y="446" on="1"/>
        <pt x="383" y="416" on="1"/>
        <pt x="451" y="326" on="1"/>
        <pt x="324" y="248" on="1"/>
        <pt x="246" y="330" on="1"/>
        <pt x="173" y="249" on="1"/>
        <pt x="47" y="323" on="1"/>
        <pt x="101" y="414" on="1"/>
        <pt x="8" y="446" on="1"/>
        <pt x="36" y="566" on="1"/>
        <pt x="152" y="547" on="1"/>
        <pt x="163" y="640" on="1"/>
        <pt x="328" y="640" on="1"/>
        <pt x="336" y="547" on="1"/>
        <pt x="445" y="566" on="1"/>
      </contour>
    </TTGlyph>
    <TTGlyph name="at" xMin="4" yMin="-217" xMax="1048" yMax="697">
      <contour>
        <pt x="268" y="419" on="0"/>
        <pt x="374" y="491" on="0"/>
        <pt x="672" y="491" on="0"/>
        <pt x="782" y="435" on="0"/>
        <pt x="782" y="356" on="1"/>
        <pt x="782" y="161" on="1"/>
        <pt x="802" y="161" on="1"/>
        <pt x="802" y="356" on="1"/>
        <pt x="802" y="448" on="0"/>
        <pt x="677" y="512" on="0"/>
        <pt x="355" y="512" on="0"/>
        <pt x="244" y="428" on="0"/>
        <pt x="244" y="287" on="1"/>
        <pt x="244" y="146" on="1"/>
        <pt x="244" y="45" on="0"/>
        <pt x="326" y="-30" on="0"/>
        <pt x="419" y="-30" on="1"/>
        <pt x="803" y="-30" on="1"/>
        <pt x="803" y="-194" on="1"/>
        <pt x="622" y="-217" on="0"/>
        <pt x="395" y="-217" on="0"/>
        <pt x="261" y="-206" on="0"/>
        <pt x="141" y="-170" on="0"/>
        <pt x="73" y="-110" on="0"/>
        <pt x="23" y="-6" on="0"/>
        <pt x="4" y="137" on="0"/>
        <pt x="4" y="377" on="0"/>
        <pt x="53" y="548" on="0"/>
        <pt x="182" y="656" on="0"/>
        <pt x="385" y="697" on="0"/>
        <pt x="654" y="697" on="0"/>
        <pt x="805" y="680" on="0"/>
        <pt x="919" y="638" on="0"/>
        <pt x="989" y="577" on="0"/>
        <pt x="1032" y="479" on="0"/>
        <pt x="1048" y="361" on="0"/>
        <pt x="1048" y="191" on="0"/>
        <pt x="1030" y="89" on="0"/>
        <pt x="977" y="17" on="0"/>
        <pt x="883" y="-10" on="0"/>
        <pt x="805" y="-10" on="1"/>
        <pt x="641" y="-10" on="1"/>
        <pt x="580" y="-10" on="0"/>
        <pt x="555" y="21" on="1"/>
        <pt x="551" y="21" on="1"/>
        <pt x="526" y="-10" on="0"/>
        <pt x="462" y="-10" on="1"/>
        <pt x="419" y="-10" on="1"/>
        <pt x="336" y="-10" on="0"/>
        <pt x="265" y="61" on="0"/>
        <pt x="265" y="242" on="0"/>
        <pt x="311" y="289" on="0"/>
        <pt x="410" y="289" on="1"/>
        <pt x="532" y="289" on="1"/>
        <pt x="532" y="306" on="1"/>
        <pt x="268" y="306" on="1"/>
      </contour>
      <contour>
        <pt x="513" y="194" on="1"/>
        <pt x="513" y="114" on="1"/>
        <pt x="533" y="114" on="1"/>
        <pt x="533" y="194" on="1"/>
      </contour>
    </TTGlyph>
    <TTGlyph name="atilde" xMin="0" yMin="-10" xMax="545" yMax="656">
      <contour>
        <pt x="525" y="346" on="1"/>
        <pt x="520" y="174" on="1"/>
        <pt x="520" y="150" on="0"/>
        <pt x="545" y="150" on="1"/>
        <pt x="531" y="-6" on="1"/>
        <pt x="471" y="-10" on="0"/>
        <pt x="435" y="-10" on="1"/>
        <pt x="345" y="-10" on="0"/>
        <pt x="305" y="21" on="1"/>
        <pt x="300" y="21" on="1"/>
        <pt x="240" y="-10" on="0"/>
        <pt x="168" y="-10" on="1"/>
        <pt x="0" y="-10" on="0"/>
        <pt x="0" y="136" on="1"/>
        <pt x="0" y="227" on="0"/>
        <pt x="70" y="260" on="1"/>
        <pt x="107" y="277" on="0"/>
        <pt x="197" y="291" on="0"/>
        <pt x="266" y="294" on="1"/>
        <pt x="266" y="315" on="1"/>
        <pt x="38" y="296" on="1"/>
        <pt x="19" y="472" on="1"/>
        <pt x="168" y="491" on="0"/>
        <pt x="417" y="491" on="0"/>
        <pt x="525" y="425" on="0"/>
      </contour>
      <contour>
        <pt x="256" y="196" on="1"/>
        <pt x="256" y="116" on="1"/>
        <pt x="276" y="116" on="1"/>
        <pt x="276" y="196" on="1"/>
      </contour>
      <contour>
        <pt x="478" y="656" on="1"/>
        <pt x="478" y="642" on="1"/>
        <pt x="478" y="570" on="0"/>
        <pt x="427" y="505" on="0"/>
        <pt x="351" y="505" on="1"/>
        <pt x="317" y="505" on="0"/>
        <pt x="241" y="529" on="1"/>
        <pt x="241" y="505" on="1"/>
        <pt x="60" y="505" on="1"/>
        <pt x="60" y="520" on="1"/>
        <pt x="60" y="590" on="0"/>
        <pt x="113" y="656" on="0"/>
        <pt x="183" y="656" on="1"/>
        <pt x="216" y="656" on="0"/>
        <pt x="298" y="632" on="1"/>
        <pt x="298" y="656" on="1"/>
      </contour>
    </TTGlyph>
    <TTGlyph name="b" xMin="16" yMin="-10" xMax="572" yMax="630">
      <contour>
        <pt x="572" y="251" on="1"/>
        <pt x="572" y="117" on="0"/>
        <pt x="487" y="-10" on="0"/>
        <pt x="367" y="-10" on="1"/>
        <pt x="305" y="-10" on="0"/>
        <pt x="233" y="19" on="1"/>
        <pt x="229" y="0" on="1"/>
        <pt x="16" y="0" on="1"/>
        <pt x="16" y="630" on="1"/>
        <pt x="271" y="630" on="1"/>
        <pt x="271" y="480" on="1"/>
        <pt x="307" y="491" on="0"/>
        <pt x="422" y="491" on="0"/>
        <pt x="509" y="463" on="0"/>
        <pt x="556" y="398" on="0"/>
        <pt x="572" y="316" on="0"/>
      </contour>
      <contour>
        <pt x="289" y="131" on="1"/>
        <pt x="289" y="321" on="1"/>
        <pt x="269" y="321" on="1"/>
        <pt x="269" y="131" on="1"/>
      </contour>
    </TTGlyph>
    <TTGlyph name="backslash" xMin="-10" yMin="-137" xMax="393" yMax="621">
      <contour>
        <pt x="146" y="-137" on="1"/>
        <pt x="-10" y="621" on="1"/>
        <pt x="238" y="621" on="1"/>
        <pt x="393" y="-137" on="1"/>
      </contour>
    </TTGlyph>
    <TTGlyph name="bar" xMin="20" yMin="-137" xMax="258" yMax="621">
      <contour>
        <pt x="258" y="-137" on="1"/>
        <pt x="20" y="-137" on="1"/>
        <pt x="20" y="621" on="1"/>
        <pt x="258" y="621" on="1"/>
      </contour>
    </TTGlyph>
    <TTGlyph name="braceleft" xMin="0" yMin="-137" xMax="387" yMax="630">
      <contour>
        <pt x="387" y="-137" on="1"/>
        <pt x="239" y="-137" on="1"/>
        <pt x="147" y="-137" on="0"/>
        <pt x="67" y="-75" on="0"/>
        <pt x="67" y="-3" on="1"/>
        <pt x="67" y="155" on="1"/>
        <pt x="67" y="173" on="0"/>
        <pt x="43" y="181" on="0"/>
        <pt x="0" y="181" on="1"/>
        <pt x="0" y="323" on="1"/>
        <pt x="45" y="323" on="0"/>
        <pt x="67" y="330" on="0"/>
        <pt x="67" y="349" on="1"/>
        <pt x="67" y="488" on="1"/>
        <pt x="67" y="566" on="0"/>
        <pt x="144" y="630" on="0"/>
        <pt x="239" y="630" on="1"/>
        <pt x="387" y="630" on="1"/>
        <pt x="387" y="483" on="1"/>
        <pt x="311" y="483" on="1"/>
        <pt x="311" y="328" on="1"/>
        <pt x="311" y="297" on="0"/>
        <pt x="290" y="267" on="0"/>
        <pt x="264" y="254" on="1"/>
        <pt x="264" y="248" on="1"/>
        <pt x="289" y="236" on="0"/>
        <pt x="311" y="204" on="0"/>
        <pt x="311" y="175" on="1"/>
        <pt x="311" y="5" on="1"/>
        <pt x="387" y="5" on="1"/>
      </contour>
    </TTGlyph>
    <TTGlyph name="braceright" xMin="10" yMin="-137" xMax="397" yMax="630">
      <contour>
        <pt x="158" y="-137" on="1"/>
        <pt x="10" y="-137" on="1"/>
        <pt x="10" y="5" on="1"/>
        <pt x="86" y="5" on="1"/>
        <pt x="86" y="175" on="1"/>
        <pt x="86" y="204" on="0"/>
        <pt x="109" y="236" on="0"/>
        <pt x="134" y="248" on="1"/>
        <pt x="134" y="254" on="1"/>
        <pt x="107" y="267" on="0"/>
        <pt x="86" y="296" on="0"/>
        <pt x="86" y="328" on="1"/>
        <pt x="86" y="483" on="1"/>
        <pt x="10" y="483" on="1"/>
        <pt x="10" y="630" on="1"/>
        <pt x="158" y="630" on="1"/>
        <pt x="253" y="630" on="0"/>
        <pt x="330" y="566" on="0"/>
        <pt x="330" y="488" on="1"/>
        <pt x="330" y="349" on="1"/>
        <pt x="330" y="330" on="0"/>
        <pt x="352" y="323" on="0"/>
        <pt x="397" y="323" on="1"/>
        <pt x="397" y="181" on="1"/>
        <pt x="338" y="181" on="0"/>
        <pt x="332" y="170" on="1"/>
        <pt x="330" y="165" on="0"/>
        <pt x="330" y="155" on="1"/>
        <pt x="330" y="-3" on="1"/>
        <pt x="330" y="-75" on="0"/>
        <pt x="250" y="-137" on="0"/>
      </contour>
    </TTGlyph>
    <TTGlyph name="bracketleft" xMin="44" yMin="-137" xMax="376" yMax="630">
      <contour>
        <pt x="376" y="-137" on="1"/>
        <pt x="44" y="-137" on="1"/>
        <pt x="44" y="630" on="1"/>
        <pt x="376" y="630" on="1"/>
        <pt x="376" y="486" on="1"/>
        <pt x="299" y="486" on="1"/>
        <pt x="299" y="6" on="1"/>
        <pt x="376" y="6" on="1"/>
      </contour>
    </TTGlyph>
    <TTGlyph name="bracketright" xMin="10" yMin="-137" xMax="342" yMax="630">
      <contour>
        <pt x="342" y="-137" on="1"/>
        <pt x="10" y="-137" on="1"/>
        <pt x="10" y="6" on="1"/>
        <pt x="89" y="6" on="1"/>
        <pt x="89" y="486" on="1"/>
        <pt x="10" y="486" on="1"/>
        <pt x="10" y="630" on="1"/>
        <pt x="342" y="630" on="1"/>
      </contour>
    </TTGlyph>
    <TTGlyph name="breve" xMin="61" yMin="474" xMax="446" yMax="639">
      <contour>
        <pt x="247" y="592" on="1"/>
        <pt x="263" y="592" on="1"/>
        <pt x="263" y="639" on="1"/>
        <pt x="446" y="639" on="1"/>
        <pt x="444" y="555" on="0"/>
        <pt x="351" y="474" on="0"/>
        <pt x="153" y="474" on="0"/>
        <pt x="61" y="554" on="0"/>
        <pt x="61" y="639" on="1"/>
        <pt x="247" y="639" on="1"/>
      </contour>
    </TTGlyph>
    <TTGlyph name="brokenbar" xMin="20" yMin="-137" xMax="258" yMax="621">
      <contour>
        <pt x="258" y="-137" on="1"/>
        <pt x="20" y="-137" on="1"/>
        <pt x="20" y="217" on="1"/>
        <pt x="258" y="217" on="1"/>
      </contour>
      <contour>
        <pt x="258" y="621" on="1"/>
        <pt x="258" y="285" on="1"/>
        <pt x="20" y="285" on="1"/>
        <pt x="20" y="621" on="1"/>
      </contour>
    </TTGlyph>
    <TTGlyph name="bullet" xMin="72" yMin="170" xMax="379" yMax="430">
      <contour>
        <pt x="72" y="301" on="1"/>
        <pt x="72" y="430" on="0"/>
        <pt x="226" y="430" on="1"/>
        <pt x="304" y="430" on="0"/>
        <pt x="379" y="367" on="0"/>
        <pt x="379" y="229" on="0"/>
        <pt x="307" y="170" on="0"/>
        <pt x="148" y="170" on="0"/>
        <pt x="72" y="231" on="0"/>
      </contour>
    </TTGlyph>
    <TTGlyph name="c" xMin="4" yMin="-10" xMax="388" yMax="491">
      <contour>
        <pt x="308" y="281" on="0"/>
        <pt x="292" y="262" on="0"/>
        <pt x="292" y="205" on="0"/>
        <pt x="307" y="188" on="0"/>
        <pt x="334" y="188" on="0"/>
        <pt x="372" y="192" on="1"/>
        <pt x="383" y="1" on="1"/>
        <pt x="317" y="-10" on="0"/>
        <pt x="267" y="-10" on="1"/>
        <pt x="133" y="-10" on="0"/>
        <pt x="4" y="107" on="0"/>
        <pt x="4" y="231" on="1"/>
        <pt x="4" y="491" on="0"/>
        <pt x="270" y="491" on="1"/>
        <pt x="333" y="491" on="0"/>
        <pt x="388" y="481" on="1"/>
        <pt x="371" y="277" on="1"/>
        <pt x="333" y="281" on="0"/>
      </contour>
    </TTGlyph>
    <TTGlyph name="caron" xMin="59" yMin="507" xMax="447" yMax="641">
      <contour>
        <pt x="127" y="507" on="1"/>
        <pt x="59" y="641" on="1"/>
        <pt x="233" y="641" on="1"/>
        <pt x="249" y="605" on="1"/>
        <pt x="253" y="605" on="1"/>
        <pt x="269" y="641" on="1"/>
        <pt x="447" y="641" on="1"/>
        <pt x="379" y="507" on="1"/>
      </contour>
    </TTGlyph>
    <TTGlyph name="ccedilla" xMin="4" yMin="-169" xMax="388" yMax="491">
      <contour>
        <pt x="270" y="491" on="1"/>
        <pt x="333" y="491" on="0"/>
        <pt x="388" y="481" on="1"/>
        <pt x="371" y="281" on="1"/>
        <pt x="329" y="285" on="0"/>
        <pt x="318" y="285" on="1"/>
        <pt x="292" y="285" on="0"/>
        <pt x="292" y="236" on="1"/>
        <pt x="292" y="202" on="0"/>
        <pt x="307" y="184" on="0"/>
        <pt x="334" y="184" on="0"/>
        <pt x="372" y="188" on="1"/>
        <pt x="383" y="1" on="1"/>
        <pt x="318" y="-10" on="0"/>
        <pt x="270" y="-10" on="1"/>
        <pt x="268" y="-13" on="1"/>
        <pt x="268" y="-17" on="1"/>
        <pt x="345" y="-17" on="0"/>
        <pt x="345" y="-79" on="1"/>
        <pt x="345" y="-121" on="0"/>
        <pt x="279" y="-169" on="0"/>
        <pt x="144" y="-169" on="0"/>
        <pt x="84" y="-133" on="1"/>
        <pt x="131" y="-51" on="1"/>
        <pt x="170" y="-78" on="0"/>
        <pt x="215" y="-91" on="1"/>
        <pt x="219" y="-83" on="1"/>
        <pt x="162" y="-58" on="1"/>
        <pt x="143" y="-48" on="0"/>
        <pt x="143" y="-15" on="0"/>
        <pt x="160" y="2" on="1"/>
        <pt x="4" y="42" on="0"/>
        <pt x="4" y="231" on="1"/>
        <pt x="4" y="491" on="0"/>
      </contour>
    </TTGlyph>
    <TTGlyph name="cedilla" xMin="107" yMin="-169" xMax="368" yMax="4">
      <contour>
        <pt x="368" y="-79" on="1"/>
        <pt x="368" y="-121" on="0"/>
        <pt x="302" y="-169" on="0"/>
        <pt x="167" y="-169" on="0"/>
        <pt x="107" y="-133" on="1"/>
        <pt x="154" y="-51" on="1"/>
        <pt x="193" y="-78" on="0"/>
        <pt x="238" y="-91" on="1"/>
        <pt x="242" y="-83" on="1"/>
        <pt x="185" y="-58" on="1"/>
        <pt x="166" y="-48" on="0"/>
        <pt x="166" y="-14" on="0"/>
        <pt x="186" y="4" on="1"/>
        <pt x="304" y="4" on="1"/>
        <pt x="291" y="-13" on="1"/>
        <pt x="291" y="-17" on="1"/>
        <pt x="368" y="-17" on="0"/>
      </contour>
    </TTGlyph>
    <TTGlyph name="cent" xMin="4" yMin="-64" xMax="388" yMax="537">
      <contour>
        <pt x="308" y="281" on="0"/>
        <pt x="292" y="262" on="0"/>
        <pt x="292" y="205" on="0"/>
        <pt x="307" y="188" on="0"/>
        <pt x="334" y="188" on="0"/>
        <pt x="372" y="192" on="1"/>
        <pt x="383" y="1" on="1"/>
        <pt x="338" y="-6" on="0"/>
        <pt x="322" y="-8" on="1"/>
        <pt x="322" y="-64" on="1"/>
        <pt x="99" y="-64" on="1"/>
        <pt x="99" y="26" on="1"/>
        <pt x="4" y="82" on="0"/>
        <pt x="4" y="384" on="0"/>
        <pt x="99" y="448" on="1"/>
        <pt x="99" y="537" on="1"/>
        <pt x="321" y="537" on="1"/>
        <pt x="321" y="489" on="1"/>
        <pt x="345" y="488" on="0"/>
        <pt x="388" y="481" on="1"/>
        <pt x="371" y="277" on="1"/>
        <pt x="333" y="281" on="0"/>
      </contour>
    </TTGlyph>
    <TTGlyph name="circumflex" xMin="53" yMin="501" xMax="441" yMax="635">
      <contour>
        <pt x="373" y="635" on="1"/>
        <pt x="441" y="501" on="1"/>
        <pt x="267" y="501" on="1"/>
        <pt x="251" y="537" on="1"/>
        <pt x="247" y="537" on="1"/>
        <pt x="231" y="501" on="1"/>
        <pt x="53" y="501" on="1"/>
        <pt x="121" y="635" on="1"/>
      </contour>
    </TTGlyph>
    <TTGlyph name="colon" xMin="10" yMin="-10" xMax="232" yMax="458">
      <contour>
        <pt x="10" y="59" on="1"/>
        <pt x="10" y="90" on="1"/>
        <pt x="10" y="127" on="0"/>
        <pt x="53" y="158" on="0"/>
        <pt x="103" y="158" on="1"/>
        <pt x="134" y="158" on="1"/>
        <pt x="189" y="158" on="0"/>
        <pt x="232" y="127" on="0"/>
        <pt x="232" y="90" on="1"/>
        <pt x="232" y="59" on="1"/>
        <pt x="232" y="21" on="0"/>
        <pt x="188" y="-10" on="0"/>
        <pt x="132" y="-10" on="1"/>
        <pt x="100" y="-10" on="1"/>
        <pt x="51" y="-10" on="0"/>
        <pt x="10" y="20" on="0"/>
      </contour>
      <contour>
        <pt x="10" y="359" on="1"/>
        <pt x="10" y="390" on="1"/>
        <pt x="10" y="427" on="0"/>
        <pt x="53" y="458" on="0"/>
        <pt x="103" y="458" on="1"/>
        <pt x="134" y="458" on="1"/>
        <pt x="189" y="458" on="0"/>
        <pt x="232" y="427" on="0"/>
        <pt x="232" y="390" on="1"/>
        <pt x="232" y="359" on="1"/>
        <pt x="232" y="321" on="0"/>
        <pt x="188" y="290" on="0"/>
        <pt x="132" y="290" on="1"/>
        <pt x="100" y="290" on="1"/>
        <pt x="51" y="290" on="0"/>
        <pt x="10" y="320" on="0"/>
      </contour>
    </TTGlyph>
    <TTGlyph name="comma" xMin="10" yMin="-105" xMax="232" yMax="158">
      <contour>
        <pt x="10" y="59" on="1"/>
        <pt x="10" y="90" on="1"/>
        <pt x="10" y="127" on="0"/>
        <pt x="53" y="158" on="0"/>
        <pt x="103" y="158" on="1"/>
        <pt x="134" y="158" on="1"/>
        <pt x="189" y="158" on="0"/>
        <pt x="232" y="127" on="0"/>
        <pt x="232" y="90" on="1"/>
        <pt x="232" y="56" on="1"/>
        <pt x="232" y="3" on="0"/>
        <pt x="183" y="-72" on="0"/>
        <pt x="129" y="-105" on="1"/>
        <pt x="51" y="-105" on="1"/>
        <pt x="80" y="-10" on="1"/>
        <pt x="70" y="-10" on="1"/>
        <pt x="37" y="-10" on="0"/>
        <pt x="10" y="20" on="0"/>
      </contour>
    </TTGlyph>
    <TTGlyph name="commaaccent" xMin="153" yMin="-175" xMax="343" yMax="-9">
      <contour>
        <pt x="153" y="-89" on="1"/>
        <pt x="153" y="-64" on="1"/>
        <pt x="153" y="-9" on="0"/>
        <pt x="229" y="-9" on="1"/>
        <pt x="264" y="-9" on="1"/>
        <pt x="308" y="-9" on="0"/>
        <pt x="343" y="-37" on="0"/>
        <pt x="343" y="-109" on="0"/>
        <pt x="319" y="-151" on="0"/>
        <pt x="283" y="-175" on="1"/>
        <pt x="186" y="-175" on="1"/>
        <pt x="213" y="-137" on="1"/>
        <pt x="180" y="-137" on="0"/>
        <pt x="153" y="-117" on="0"/>
      </contour>
    </TTGlyph>
    <TTGlyph name="copyright" xMin="10" yMin="-226" xMax="1029" yMax="707">
      <contour>
        <pt x="330" y="695" on="1"/>
        <pt x="410" y="707" on="0"/>
        <pt x="674" y="707" on="0"/>
        <pt x="856" y="669" on="0"/>
        <pt x="980" y="563" on="0"/>
        <pt x="1029" y="384" on="0"/>
        <pt x="1029" y="141" on="0"/>
        <pt x="1008" y="-3" on="0"/>
        <pt x="957" y="-108" on="0"/>
        <pt x="887" y="-173" on="0"/>
        <pt x="772" y="-212" on="0"/>
        <pt x="639" y="-226" on="0"/>
        <pt x="440" y="-226" on="0"/>
        <pt x="297" y="-213" on="0"/>
        <pt x="169" y="-176" on="0"/>
        <pt x="92" y="-112" on="0"/>
        <pt x="63" y="-60" on="1"/>
        <pt x="10" y="36" on="0"/>
        <pt x="10" y="460" on="0"/>
        <pt x="154" y="669" on="0"/>
      </contour>
      <contour>
        <pt x="789" y="108" on="1"/>
        <pt x="789" y="354" on="1"/>
        <pt x="789" y="445" on="0"/>
        <pt x="703" y="512" on="0"/>
        <pt x="604" y="512" on="1"/>
        <pt x="421" y="512" on="1"/>
        <pt x="332" y="512" on="0"/>
        <pt x="250" y="443" on="0"/>
        <pt x="250" y="351" on="1"/>
        <pt x="250" y="113" on="1"/>
        <pt x="250" y="24" on="0"/>
        <pt x="336" y="-43" on="0"/>
        <pt x="431" y="-43" on="1"/>
        <pt x="619" y="-43" on="1"/>
        <pt x="714" y="-43" on="0"/>
        <pt x="789" y="21" on="0"/>
      </contour>
      <contour>
        <pt x="547" y="184" on="0"/>
        <pt x="565" y="161" on="0"/>
        <pt x="632" y="161" on="0"/>
        <pt x="695" y="168" on="1"/>
        <pt x="703" y="-7" on="1"/>
        <pt x="556" y="-18" on="0"/>
        <pt x="516" y="-18" on="1"/>
        <pt x="391" y="-18" on="0"/>
        <pt x="285" y="99" on="0"/>
        <pt x="285" y="373" on="0"/>
        <pt x="395" y="482" on="0"/>
        <pt x="529" y="482" on="1"/>
        <pt x="582" y="482" on="0"/>
        <pt x="703" y="473" on="1"/>
        <pt x="692" y="287" on="1"/>
        <pt x="619" y="292" on="0"/>
        <pt x="564" y="292" on="0"/>
        <pt x="547" y="270" on="0"/>
      </contour>
    </TTGlyph>
    <TTGlyph name="currency" xMin="48" yMin="72" xMax="731" yMax="542">
      <contour>
        <pt x="84" y="76" on="1"/>
        <pt x="54" y="126" on="1"/>
        <pt x="178" y="198" on="1"/>
        <pt x="161" y="252" on="0"/>
        <pt x="161" y="350" on="0"/>
        <pt x="173" y="395" on="1"/>
        <pt x="48" y="468" on="1"/>
        <pt x="79" y="521" on="1"/>
        <pt x="199" y="452" on="1"/>
        <pt x="268" y="542" on="0"/>
        <pt x="519" y="542" on="0"/>
        <pt x="587" y="454" on="1"/>
        <pt x="701" y="521" on="1"/>
        <pt x="731" y="468" on="1"/>
        <pt x="614" y="400" on="1"/>
        <pt x="627" y="355" on="0"/>
        <pt x="627" y="255" on="0"/>
        <pt x="607" y="197" on="1"/>
        <pt x="727" y="126" on="1"/>
        <pt x="695" y="75" on="1"/>
        <pt x="575" y="146" on="1"/>
        <pt x="506" y="72" on="0"/>
        <pt x="274" y="72" on="0"/>
        <pt x="206" y="148" on="1"/>
        <pt x="163" y="124" on="0"/>
      </contour>
      <contour>
        <pt x="391" y="122" on="1"/>
        <pt x="565" y="122" on="0"/>
        <pt x="565" y="306" on="1"/>
        <pt x="565" y="394" on="0"/>
        <pt x="478" y="490" on="0"/>
        <pt x="391" y="490" on="1"/>
        <pt x="219" y="490" on="0"/>
        <pt x="219" y="305" on="1"/>
        <pt x="219" y="214" on="0"/>
        <pt x="309" y="122" on="0"/>
      </contour>
    </TTGlyph>
    <TTGlyph name="d" xMin="4" yMin="-10" xMax="581" yMax="630">
      <contour>
        <pt x="474" y="-10" on="1"/>
        <pt x="384" y="-10" on="0"/>
        <pt x="342" y="20" on="1"/>
        <pt x="337" y="20" on="1"/>
        <pt x="287" y="-10" on="0"/>
        <pt x="222" y="-10" on="1"/>
        <pt x="4" y="-10" on="0"/>
        <pt x="4" y="244" on="1"/>
        <pt x="4" y="364" on="0"/>
        <pt x="119" y="491" on="0"/>
        <pt x="227" y="491" on="1"/>
        <pt x="254" y="491" on="0"/>
        <pt x="302" y="483" on="1"/>
        <pt x="302" y="630" on="1"/>
        <pt x="557" y="630" on="1"/>
        <pt x="557" y="173" on="1"/>
        <pt x="557" y="150" on="0"/>
        <pt x="581" y="150" on="1"/>
        <pt x="567" y="-5" on="1"/>
        <pt x="500" y="-10" on="0"/>
      </contour>
      <contour>
        <pt x="309" y="131" on="1"/>
        <pt x="309" y="321" on="1"/>
        <pt x="289" y="321" on="1"/>
        <pt x="289" y="131" on="1"/>
      </contour>
    </TTGlyph>
    <TTGlyph name="dagger" xMin="15" yMin="-137" xMax="489" yMax="606">
      <contour>
        <pt x="15" y="320" on="1"/>
        <pt x="15" y="479" on="1"/>
        <pt x="138" y="479" on="1"/>
        <pt x="138" y="606" on="1"/>
        <pt x="360" y="606" on="1"/>
        <pt x="360" y="479" on="1"/>
        <pt x="489" y="479" on="1"/>
        <pt x="489" y="320" on="1"/>
        <pt x="360" y="320" on="1"/>
        <pt x="360" y="-137" on="1"/>
        <pt x="138" y="-137" on="1"/>
        <pt x="138" y="320" on="1"/>
      </contour>
    </TTGlyph>
    <TTGlyph name="daggerdbl" xMin="15" yMin="-137" xMax="489" yMax="606">
      <contour>
        <pt x="15" y="0" on="1"/>
        <pt x="15" y="159" on="1"/>
        <pt x="138" y="159" on="1"/>
        <pt x="138" y="320" on="1"/>
        <pt x="15" y="320" on="1"/>
        <pt x="15" y="479" on="1"/>
        <pt x="138" y="479" on="1"/>
        <pt x="138" y="606" on="1"/>
        <pt x="360" y="606" on="1"/>
        <pt x="360" y="479" on="1"/>
        <pt x="489" y="479" on="1"/>
        <pt x="489" y="320" on="1"/>
        <pt x="360" y="320" on="1"/>
        <pt x="360" y="159" on="1"/>
        <pt x="489" y="159" on="1"/>
        <pt x="489" y="0" on="1"/>
        <pt x="360" y="0" on="1"/>
        <pt x="360" y="-137" on="1"/>
        <pt x="138" y="-137" on="1"/>
        <pt x="138" y="0" on="1"/>
      </contour>
    </TTGlyph>
    <TTGlyph name="degree" xMin="5" yMin="367" xMax="334" yMax="625">
      <contour>
        <pt x="257" y="625" on="0"/>
        <pt x="334" y="562" on="0"/>
        <pt x="334" y="429" on="0"/>
        <pt x="257" y="367" on="0"/>
        <pt x="83" y="367" on="0"/>
        <pt x="5" y="429" on="0"/>
        <pt x="5" y="561" on="0"/>
        <pt x="83" y="625" on="0"/>
      </contour>
      <contour>
        <pt x="159" y="511" on="1"/>
        <pt x="159" y="477" on="1"/>
        <pt x="179" y="477" on="1"/>
        <pt x="179" y="511" on="1"/>
      </contour>
    </TTGlyph>
    <TTGlyph name="dieresis" xMin="41" yMin="506" xMax="463" yMax="640">
      <contour>
        <pt x="85" y="506" on="0"/>
        <pt x="41" y="534" on="0"/>
        <pt x="41" y="611" on="0"/>
        <pt x="86" y="640" on="0"/>
        <pt x="198" y="640" on="0"/>
        <pt x="241" y="611" on="0"/>
        <pt x="241" y="534" on="0"/>
        <pt x="199" y="506" on="0"/>
      </contour>
      <contour>
        <pt x="307" y="506" on="0"/>
        <pt x="263" y="534" on="0"/>
        <pt x="263" y="611" on="0"/>
        <pt x="308" y="640" on="0"/>
        <pt x="420" y="640" on="0"/>
        <pt x="463" y="611" on="0"/>
        <pt x="463" y="534" on="0"/>
        <pt x="421" y="506" on="0"/>
      </contour>
    </TTGlyph>
    <TTGlyph name="divide" xMin="15" yMin="0" xMax="430" yMax="567">
      <contour>
        <pt x="117" y="69" on="1"/>
        <pt x="117" y="100" on="1"/>
        <pt x="117" y="137" on="0"/>
        <pt x="160" y="168" on="0"/>
        <pt x="210" y="168" on="1"/>
        <pt x="241" y="168" on="1"/>
        <pt x="296" y="168" on="0"/>
        <pt x="339" y="137" on="0"/>
        <pt x="339" y="100" on="1"/>
        <pt x="339" y="69" on="1"/>
        <pt x="339" y="31" on="0"/>
        <pt x="295" y="0" on="0"/>
        <pt x="239" y="0" on="1"/>
        <pt x="207" y="0" on="1"/>
        <pt x="158" y="0" on="0"/>
        <pt x="117" y="30" on="0"/>
      </contour>
      <contour>
        <pt x="117" y="468" on="1"/>
        <pt x="117" y="499" on="1"/>
        <pt x="117" y="536" on="0"/>
        <pt x="160" y="567" on="0"/>
        <pt x="210" y="567" on="1"/>
        <pt x="241" y="567" on="1"/>
        <pt x="296" y="567" on="0"/>
        <pt x="339" y="536" on="0"/>
        <pt x="339" y="499" on="1"/>
        <pt x="339" y="468" on="1"/>
        <pt x="339" y="430" on="0"/>
        <pt x="295" y="399" on="0"/>
        <pt x="239" y="399" on="1"/>
        <pt x="207" y="399" on="1"/>
        <pt x="158" y="399" on="0"/>
        <pt x="117" y="429" on="0"/>
      </contour>
      <contour>
        <pt x="430" y="186" on="1"/>
        <pt x="15" y="186" on="1"/>
        <pt x="15" y="380" on="1"/>
        <pt x="430" y="380" on="1"/>
      </contour>
    </TTGlyph>
    <TTGlyph name="dollar" xMin="0" yMin="-64" xMax="529" yMax="693">
      <contour>
        <pt x="33" y="271" on="0"/>
        <pt x="0" y="352" on="0"/>
        <pt x="0" y="488" on="0"/>
        <pt x="76" y="594" on="0"/>
        <pt x="149" y="616" on="1"/>
        <pt x="149" y="693" on="1"/>
        <pt x="381" y="693" on="1"/>
        <pt x="381" y="626" on="1"/>
        <pt x="434" y="621" on="0"/>
        <pt x="513" y="609" on="1"/>
        <pt x="494" y="410" on="1"/>
        <pt x="271" y="444" on="1"/>
        <pt x="271" y="425" on="1"/>
        <pt x="405" y="407" on="0"/>
        <pt x="529" y="314" on="0"/>
        <pt x="529" y="202" on="1"/>
        <pt x="529" y="44" on="0"/>
        <pt x="382" y="4" on="1"/>
        <pt x="382" y="-64" on="1"/>
        <pt x="149" y="-64" on="1"/>
        <pt x="149" y="-4" on="1"/>
        <pt x="99" y="0" on="0"/>
        <pt x="19" y="20" on="1"/>
        <pt x="27" y="202" on="1"/>
        <pt x="257" y="158" on="1"/>
        <pt x="257" y="176" on="1"/>
        <pt x="190" y="190" on="0"/>
        <pt x="106" y="219" on="0"/>
      </contour>
    </TTGlyph>
    <TTGlyph name="dotaccent" xMin="114" yMin="477" xMax="376" yMax="645">
      <contour>
        <pt x="114" y="556" on="1"/>
        <pt x="114" y="567" on="1"/>
        <pt x="114" y="645" on="0"/>
        <pt x="227" y="645" on="1"/>
        <pt x="258" y="645" on="1"/>
        <pt x="376" y="645" on="0"/>
        <pt x="376" y="567" on="1"/>
        <pt x="376" y="556" on="1"/>
        <pt x="376" y="477" on="0"/>
        <pt x="258" y="477" on="1"/>
        <pt x="226" y="477" on="1"/>
        <pt x="114" y="477" on="0"/>
      </contour>
    </TTGlyph>
    <TTGlyph name="dotaccentcmb" xMin="114" yMin="477" xMax="376" yMax="645">
      <contour>
        <pt x="114" y="556" on="1"/>
        <pt x="114" y="567" on="1"/>
        <pt x="114" y="645" on="0"/>
        <pt x="227" y="645" on="1"/>
        <pt x="258" y="645" on="1"/>
        <pt x="376" y="645" on="0"/>
        <pt x="376" y="567" on="1"/>
        <pt x="376" y="556" on="1"/>
        <pt x="376" y="477" on="0"/>
        <pt x="258" y="477" on="1"/>
        <pt x="226" y="477" on="1"/>
        <pt x="114" y="477" on="0"/>
      </contour>
    </TTGlyph>
    <TTGlyph name="dotlessi" xMin="10" yMin="0" xMax="272" yMax="464">
      <contour>
        <pt x="272" y="0" on="1"/>
        <pt x="10" y="0" on="1"/>
        <pt x="10" y="464" on="1"/>
        <pt x="272" y="464" on="1"/>
      </contour>
    </TTGlyph>
    <TTGlyph name="e" xMin="2" yMin="-10" xMax="541" yMax="491">
      <contour>
        <pt x="541" y="298" on="1"/>
        <pt x="541" y="255" on="0"/>
        <pt x="533" y="180" on="1"/>
        <pt x="268" y="180" on="1"/>
        <pt x="268" y="162" on="1"/>
        <pt x="311" y="157" on="0"/>
        <pt x="397" y="157" on="0"/>
        <pt x="515" y="163" on="1"/>
        <pt x="525" y="12" on="1"/>
        <pt x="388" y="-10" on="0"/>
        <pt x="280" y="-10" on="1"/>
        <pt x="2" y="-10" on="0"/>
        <pt x="2" y="237" on="1"/>
        <pt x="2" y="491" on="0"/>
        <pt x="291" y="491" on="1"/>
        <pt x="430" y="491" on="0"/>
        <pt x="541" y="392" on="0"/>
      </contour>
      <contour>
        <pt x="287" y="254" on="1"/>
        <pt x="287" y="333" on="1"/>
        <pt x="267" y="333" on="1"/>
        <pt x="267" y="254" on="1"/>
      </contour>
    </TTGlyph>
    <TTGlyph name="eacute" xMin="2" yMin="-10" xMax="541" yMax="641">
      <contour>
        <pt x="541" y="298" on="1"/>
        <pt x="541" y="255" on="0"/>
        <pt x="533" y="180" on="1"/>
        <pt x="268" y="180" on="1"/>
        <pt x="268" y="162" on="1"/>
        <pt x="311" y="157" on="0"/>
        <pt x="397" y="157" on="0"/>
        <pt x="515" y="163" on="1"/>
        <pt x="525" y="12" on="1"/>
        <pt x="388" y="-10" on="0"/>
        <pt x="280" y="-10" on="1"/>
        <pt x="2" y="-10" on="0"/>
        <pt x="2" y="237" on="1"/>
        <pt x="2" y="491" on="0"/>
        <pt x="291" y="491" on="1"/>
        <pt x="430" y="491" on="0"/>
        <pt x="541" y="392" on="0"/>
      </contour>
      <contour>
        <pt x="487" y="641" on="1"/>
        <pt x="368" y="511" on="1"/>
        <pt x="189" y="511" on="1"/>
        <pt x="253" y="641" on="1"/>
      </contour>
      <contour>
        <pt x="287" y="254" on="1"/>
        <pt x="287" y="333" on="1"/>
        <pt x="267" y="333" on="1"/>
        <pt x="267" y="254" on="1"/>
      </contour>
    </TTGlyph>
    <TTGlyph name="ecircumflex" xMin="2" yMin="-10" xMax="541" yMax="635">
      <contour>
        <pt x="541" y="298" on="1"/>
        <pt x="541" y="255" on="0"/>
        <pt x="533" y="180" on="1"/>
        <pt x="268" y="180" on="1"/>
        <pt x="268" y="162" on="1"/>
        <pt x="311" y="157" on="0"/>
        <pt x="397" y="157" on="0"/>
        <pt x="515" y="163" on="1"/>
        <pt x="525" y="12" on="1"/>
        <pt x="388" y="-10" on="0"/>
        <pt x="280" y="-10" on="1"/>
        <pt x="2" y="-10" on="0"/>
        <pt x="2" y="237" on="1"/>
        <pt x="2" y="491" on="0"/>
        <pt x="291" y="491" on="1"/>
        <pt x="430" y="491" on="0"/>
        <pt x="541" y="392" on="0"/>
      </contour>
      <contour>
        <pt x="402" y="635" on="1"/>
        <pt x="470" y="501" on="1"/>
        <pt x="296" y="501" on="1"/>
        <pt x="280" y="537" on="1"/>
        <pt x="276" y="537" on="1"/>
        <pt x="260" y="501" on="1"/>
        <pt x="82" y="501" on="1"/>
        <pt x="150" y="635" on="1"/>
      </contour>
      <contour>
        <pt x="287" y="254" on="1"/>
        <pt x="287" y="333" on="1"/>
        <pt x="267" y="333" on="1"/>
        <pt x="267" y="254" on="1"/>
      </contour>
    </TTGlyph>
    <TTGlyph name="edieresis" xMin="2" yMin="-10" xMax="541" yMax="640">
      <contour>
        <pt x="541" y="298" on="1"/>
        <pt x="541" y="255" on="0"/>
        <pt x="533" y="180" on="1"/>
        <pt x="268" y="180" on="1"/>
        <pt x="268" y="162" on="1"/>
        <pt x="311" y="157" on="0"/>
        <pt x="397" y="157" on="0"/>
        <pt x="515" y="163" on="1"/>
        <pt x="525" y="12" on="1"/>
        <pt x="388" y="-10" on="0"/>
        <pt x="280" y="-10" on="1"/>
        <pt x="2" y="-10" on="0"/>
        <pt x="2" y="237" on="1"/>
        <pt x="2" y="491" on="0"/>
        <pt x="291" y="491" on="1"/>
        <pt x="430" y="491" on="0"/>
        <pt x="541" y="392" on="0"/>
      </contour>
      <contour>
        <pt x="334" y="506" on="0"/>
        <pt x="290" y="534" on="0"/>
        <pt x="290" y="611" on="0"/>
        <pt x="335" y="640" on="0"/>
        <pt x="447" y="640" on="0"/>
        <pt x="490" y="611" on="0"/>
        <pt x="490" y="534" on="0"/>
        <pt x="448" y="506" on="0"/>
      </contour>
      <contour>
        <pt x="112" y="506" on="0"/>
        <pt x="68" y="534" on="0"/>
        <pt x="68" y="611" on="0"/>
        <pt x="113" y="640" on="0"/>
        <pt x="225" y="640" on="0"/>
        <pt x="268" y="611" on="0"/>
        <pt x="268" y="534" on="0"/>
        <pt x="226" y="506" on="0"/>
      </contour>
      <contour>
        <pt x="287" y="254" on="1"/>
        <pt x="287" y="333" on="1"/>
        <pt x="267" y="333" on="1"/>
        <pt x="267" y="254" on="1"/>
      </contour>
    </TTGlyph>
    <TTGlyph name="egrave" xMin="2" yMin="-10" xMax="541" yMax="641">
      <contour>
        <pt x="541" y="298" on="1"/>
        <pt x="541" y="255" on="0"/>
        <pt x="533" y="180" on="1"/>
        <pt x="268" y="180" on="1"/>
        <pt x="268" y="162" on="1"/>
        <pt x="311" y="157" on="0"/>
        <pt x="397" y="157" on="0"/>
        <pt x="515" y="163" on="1"/>
        <pt x="525" y="12" on="1"/>
        <pt x="388" y="-10" on="0"/>
        <pt x="280" y="-10" on="1"/>
        <pt x="2" y="-10" on="0"/>
        <pt x="2" y="237" on="1"/>
        <pt x="2" y="491" on="0"/>
        <pt x="291" y="491" on="1"/>
        <pt x="430" y="491" on="0"/>
        <pt x="541" y="392" on="0"/>
      </contour>
      <contour>
        <pt x="216" y="511" on="1"/>
        <pt x="97" y="641" on="1"/>
        <pt x="331" y="641" on="1"/>
        <pt x="395" y="511" on="1"/>
      </contour>
      <contour>
        <pt x="287" y="254" on="1"/>
        <pt x="287" y="333" on="1"/>
        <pt x="267" y="333" on="1"/>
        <pt x="267" y="254" on="1"/>
      </contour>
    </TTGlyph>
    <TTGlyph name="eight" xMin="4" yMin="-10" xMax="575" yMax="631">
      <contour>
        <pt x="288" y="631" on="1"/>
        <pt x="566" y="631" on="0"/>
        <pt x="566" y="459" on="1"/>
        <pt x="566" y="403" on="0"/>
        <pt x="529" y="342" on="0"/>
        <pt x="480" y="317" on="1"/>
        <pt x="480" y="311" on="1"/>
        <pt x="532" y="298" on="0"/>
        <pt x="575" y="235" on="0"/>
        <pt x="575" y="181" on="1"/>
        <pt x="575" y="82" on="0"/>
        <pt x="431" y="-10" on="0"/>
        <pt x="294" y="-10" on="1"/>
        <pt x="4" y="-10" on="0"/>
        <pt x="4" y="173" on="1"/>
        <pt x="4" y="273" on="0"/>
        <pt x="99" y="308" on="1"/>
        <pt x="99" y="314" on="1"/>
        <pt x="52" y="338" on="0"/>
        <pt x="11" y="401" on="0"/>
        <pt x="11" y="455" on="1"/>
        <pt x="11" y="543" on="0"/>
        <pt x="160" y="631" on="0"/>
      </contour>
      <contour>
        <pt x="310" y="129" on="1"/>
        <pt x="310" y="252" on="1"/>
        <pt x="274" y="252" on="1"/>
        <pt x="274" y="129" on="1"/>
      </contour>
      <contour>
        <pt x="310" y="368" on="1"/>
        <pt x="310" y="472" on="1"/>
        <pt x="274" y="472" on="1"/>
        <pt x="274" y="368" on="1"/>
      </contour>
    </TTGlyph>
    <TTGlyph name="ellipsis" xMin="10" yMin="-10" xMax="714" yMax="158">
      <contour>
        <pt x="10" y="59" on="1"/>
        <pt x="10" y="90" on="1"/>
        <pt x="10" y="127" on="0"/>
        <pt x="53" y="158" on="0"/>
        <pt x="103" y="158" on="1"/>
        <pt x="134" y="158" on="1"/>
        <pt x="189" y="158" on="0"/>
        <pt x="232" y="127" on="0"/>
        <pt x="232" y="90" on="1"/>
        <pt x="232" y="59" on="1"/>
        <pt x="232" y="21" on="0"/>
        <pt x="188" y="-10" on="0"/>
        <pt x="132" y="-10" on="1"/>
        <pt x="100" y="-10" on="1"/>
        <pt x="51" y="-10" on="0"/>
        <pt x="10" y="20" on="0"/>
      </contour>
      <contour>
        <pt x="252" y="59" on="1"/>
        <pt x="252" y="90" on="1"/>
        <pt x="252" y="127" on="0"/>
        <pt x="295" y="158" on="0"/>
        <pt x="345" y="158" on="1"/>
        <pt x="376" y="158" on="1"/>
        <pt x="431" y="158" on="0"/>
        <pt x="474" y="127" on="0"/>
        <pt x="474" y="90" on="1"/>
        <pt x="474" y="59" on="1"/>
        <pt x="474" y="21" on="0"/>
        <pt x="430" y="-10" on="0"/>
        <pt x="374" y="-10" on="1"/>
        <pt x="342" y="-10" on="1"/>
        <pt x="293" y="-10" on="0"/>
        <pt x="252" y="20" on="0"/>
      </contour>
      <contour>
        <pt x="492" y="59" on="1"/>
        <pt x="492" y="90" on="1"/>
        <pt x="492" y="127" on="0"/>
        <pt x="535" y="158" on="0"/>
        <pt x="585" y="158" on="1"/>
        <pt x="616" y="158" on="1"/>
        <pt x="671" y="158" on="0"/>
        <pt x="714" y="127" on="0"/>
        <pt x="714" y="90" on="1"/>
        <pt x="714" y="59" on="1"/>
        <pt x="714" y="21" on="0"/>
        <pt x="670" y="-10" on="0"/>
        <pt x="614" y="-10" on="1"/>
        <pt x="582" y="-10" on="1"/>
        <pt x="533" y="-10" on="0"/>
        <pt x="492" y="20" on="0"/>
      </contour>
    </TTGlyph>
    <TTGlyph name="emdash" xMin="15" yMin="146" xMax="568" yMax="340">
      <contour>
        <pt x="568" y="146" on="1"/>
        <pt x="15" y="146" on="1"/>
        <pt x="15" y="340" on="1"/>
        <pt x="568" y="340" on="1"/>
      </contour>
    </TTGlyph>
    <TTGlyph name="endash" xMin="15" yMin="146" xMax="368" yMax="340">
      <contour>
        <pt x="368" y="146" on="1"/>
        <pt x="15" y="146" on="1"/>
        <pt x="15" y="340" on="1"/>
        <pt x="368" y="340" on="1"/>
      </contour>
    </TTGlyph>
    <TTGlyph name="equal" xMin="20" yMin="86" xMax="428" yMax="429">
      <contour>
        <pt x="428" y="270" on="1"/>
        <pt x="20" y="270" on="1"/>
        <pt x="20" y="429" on="1"/>
        <pt x="428" y="429" on="1"/>
      </contour>
      <contour>
        <pt x="428" y="86" on="1"/>
        <pt x="20" y="86" on="1"/>
        <pt x="20" y="246" on="1"/>
        <pt x="428" y="246" on="1"/>
      </contour>
    </TTGlyph>
    <TTGlyph name="eth" xMin="4" yMin="-10" xMax="566" yMax="673">
      <contour>
        <pt x="233" y="401" on="1"/>
        <pt x="268" y="401" on="0"/>
        <pt x="300" y="397" on="1"/>
        <pt x="301" y="400" on="1"/>
        <pt x="282" y="422" on="0"/>
        <pt x="254" y="435" on="1"/>
        <pt x="122" y="397" on="1"/>
        <pt x="122" y="490" on="1"/>
        <pt x="143" y="496" on="1"/>
        <pt x="143" y="501" on="1"/>
        <pt x="56" y="501" on="1"/>
        <pt x="56" y="654" on="1"/>
        <pt x="227" y="654" on="0"/>
        <pt x="340" y="621" on="1"/>
        <pt x="475" y="673" on="1"/>
        <pt x="475" y="541" on="1"/>
        <pt x="453" y="530" on="1"/>
        <pt x="566" y="426" on="0"/>
        <pt x="566" y="265" on="1"/>
        <pt x="566" y="132" on="0"/>
        <pt x="434" y="-10" on="0"/>
        <pt x="292" y="-10" on="1"/>
        <pt x="4" y="-10" on="0"/>
        <pt x="4" y="208" on="1"/>
        <pt x="4" y="401" on="0"/>
      </contour>
      <contour>
        <pt x="295" y="131" on="1"/>
        <pt x="295" y="261" on="1"/>
        <pt x="275" y="261" on="1"/>
        <pt x="275" y="131" on="1"/>
      </contour>
    </TTGlyph>
    <TTGlyph name="exclam" xMin="20" yMin="-10" xMax="262" yMax="615">
      <contour>
        <pt x="34" y="176" on="1"/>
        <pt x="20" y="615" on="1"/>
        <pt x="262" y="615" on="1"/>
        <pt x="245" y="176" on="1"/>
      </contour>
      <contour>
        <pt x="30" y="59" on="1"/>
        <pt x="30" y="90" on="1"/>
        <pt x="30" y="127" on="0"/>
        <pt x="73" y="158" on="0"/>
        <pt x="123" y="158" on="1"/>
        <pt x="154" y="158" on="1"/>
        <pt x="209" y="158" on="0"/>
        <pt x="252" y="127" on="0"/>
        <pt x="252" y="90" on="1"/>
        <pt x="252" y="59" on="1"/>
        <pt x="252" y="21" on="0"/>
        <pt x="208" y="-10" on="0"/>
        <pt x="152" y="-10" on="1"/>
        <pt x="120" y="-10" on="1"/>
        <pt x="71" y="-10" on="0"/>
        <pt x="30" y="20" on="0"/>
      </contour>
    </TTGlyph>
    <TTGlyph name="exclamdown" xMin="10" yMin="-137" xMax="252" yMax="488">
      <contour>
        <pt x="238" y="302" on="1"/>
        <pt x="252" y="-137" on="1"/>
        <pt x="10" y="-137" on="1"/>
        <pt x="27" y="302" on="1"/>
      </contour>
      <contour>
        <pt x="242" y="419" on="1"/>
        <pt x="242" y="388" on="1"/>
        <pt x="242" y="351" on="0"/>
        <pt x="199" y="320" on="0"/>
        <pt x="149" y="320" on="1"/>
        <pt x="118" y="320" on="1"/>
        <pt x="63" y="320" on="0"/>
        <pt x="20" y="351" on="0"/>
        <pt x="20" y="388" on="1"/>
        <pt x="20" y="419" on="1"/>
        <pt x="20" y="457" on="0"/>
        <pt x="64" y="488" on="0"/>
        <pt x="120" y="488" on="1"/>
        <pt x="152" y="488" on="1"/>
        <pt x="201" y="488" on="0"/>
        <pt x="242" y="458" on="0"/>
      </contour>
    </TTGlyph>
    <TTGlyph name="f" xMin="0" yMin="0" xMax="336" yMax="640">
      <contour>
        <pt x="200" y="640" on="1"/>
        <pt x="248" y="640" on="0"/>
        <pt x="336" y="634" on="1"/>
        <pt x="327" y="491" on="1"/>
        <pt x="285" y="491" on="1"/>
        <pt x="285" y="474" on="1"/>
        <pt x="326" y="474" on="1"/>
        <pt x="320" y="325" on="1"/>
        <pt x="289" y="325" on="1"/>
        <pt x="289" y="0" on="1"/>
        <pt x="27" y="0" on="1"/>
        <pt x="27" y="325" on="1"/>
        <pt x="0" y="325" on="1"/>
        <pt x="0" y="474" on="1"/>
        <pt x="27" y="474" on="1"/>
        <pt x="27" y="493" on="1"/>
        <pt x="27" y="569" on="0"/>
        <pt x="107" y="640" on="0"/>
      </contour>
    </TTGlyph>
    <TTGlyph name="ff" xMin="0" yMin="0" xMax="631" yMax="650">
      <contour>
        <pt x="505" y="650" on="1"/>
        <pt x="543" y="650" on="0"/>
        <pt x="631" y="644" on="1"/>
        <pt x="622" y="491" on="1"/>
        <pt x="580" y="491" on="1"/>
        <pt x="580" y="474" on="1"/>
        <pt x="621" y="474" on="1"/>
        <pt x="615" y="325" on="1"/>
        <pt x="584" y="325" on="1"/>
        <pt x="584" y="0" on="1"/>
        <pt x="322" y="0" on="1"/>
        <pt x="322" y="325" on="1"/>
        <pt x="289" y="325" on="1"/>
        <pt x="289" y="0" on="1"/>
        <pt x="27" y="0" on="1"/>
        <pt x="27" y="325" on="1"/>
        <pt x="0" y="325" on="1"/>
        <pt x="0" y="474" on="1"/>
        <pt x="27" y="474" on="1"/>
        <pt x="27" y="503" on="1"/>
        <pt x="27" y="578" on="0"/>
        <pt x="106" y="650" on="0"/>
        <pt x="200" y="650" on="1"/>
        <pt x="250" y="650" on="0"/>
        <pt x="318" y="644" on="1"/>
        <pt x="311" y="491" on="1"/>
        <pt x="285" y="491" on="1"/>
        <pt x="285" y="474" on="1"/>
        <pt x="322" y="474" on="1"/>
        <pt x="322" y="493" on="1"/>
        <pt x="322" y="650" on="0"/>
      </contour>
    </TTGlyph>
    <TTGlyph name="ffi" xMin="0" yMin="0" xMax="879" yMax="650">
      <contour>
        <pt x="879" y="0" on="1"/>
        <pt x="617" y="0" on="1"/>
        <pt x="617" y="315" on="1"/>
        <pt x="584" y="315" on="1"/>
        <pt x="584" y="0" on="1"/>
        <pt x="322" y="0" on="1"/>
        <pt x="322" y="325" on="1"/>
        <pt x="289" y="325" on="1"/>
        <pt x="289" y="0" on="1"/>
        <pt x="27" y="0" on="1"/>
        <pt x="27" y="325" on="1"/>
        <pt x="0" y="325" on="1"/>
        <pt x="0" y="474" on="1"/>
        <pt x="27" y="474" on="1"/>
        <pt x="27" y="503" on="1"/>
        <pt x="27" y="578" on="0"/>
        <pt x="106" y="650" on="0"/>
        <pt x="200" y="650" on="1"/>
        <pt x="250" y="650" on="0"/>
        <pt x="318" y="644" on="1"/>
        <pt x="311" y="491" on="1"/>
        <pt x="285" y="491" on="1"/>
        <pt x="285" y="474" on="1"/>
        <pt x="322" y="474" on="1"/>
        <pt x="322" y="503" on="1"/>
        <pt x="322" y="578" on="0"/>
        <pt x="401" y="650" on="0"/>
        <pt x="495" y="650" on="1"/>
        <pt x="557" y="650" on="0"/>
        <pt x="608" y="644" on="1"/>
        <pt x="602" y="491" on="1"/>
        <pt x="580" y="491" on="1"/>
        <pt x="580" y="464" on="1"/>
        <pt x="879" y="464" on="1"/>
      </contour>
      <contour>
        <pt x="617" y="556" on="1"/>
        <pt x="617" y="567" on="1"/>
        <pt x="617" y="645" on="0"/>
        <pt x="730" y="645" on="1"/>
        <pt x="761" y="645" on="1"/>
        <pt x="879" y="645" on="0"/>
        <pt x="879" y="567" on="1"/>
        <pt x="879" y="556" on="1"/>
        <pt x="879" y="477" on="0"/>
        <pt x="761" y="477" on="1"/>
        <pt x="729" y="477" on="1"/>
        <pt x="617" y="477" on="0"/>
      </contour>
    </TTGlyph>
    <TTGlyph name="ffl" xMin="0" yMin="-10" xMax="902" yMax="650">
      <contour>
        <pt x="495" y="650" on="1"/>
        <pt x="557" y="650" on="0"/>
        <pt x="608" y="644" on="1"/>
        <pt x="602" y="491" on="1"/>
        <pt x="580" y="491" on="1"/>
        <pt x="580" y="464" on="1"/>
        <pt x="617" y="464" on="1"/>
        <pt x="617" y="640" on="1"/>
        <pt x="876" y="640" on="1"/>
        <pt x="876" y="190" on="1"/>
        <pt x="876" y="166" on="0"/>
        <pt x="902" y="166" on="1"/>
        <pt x="894" y="-10" on="1"/>
        <pt x="793" y="-10" on="1"/>
        <pt x="617" y="-10" on="0"/>
        <pt x="617" y="125" on="1"/>
        <pt x="617" y="315" on="1"/>
        <pt x="584" y="315" on="1"/>
        <pt x="584" y="0" on="1"/>
        <pt x="322" y="0" on="1"/>
        <pt x="322" y="325" on="1"/>
        <pt x="289" y="325" on="1"/>
        <pt x="289" y="0" on="1"/>
        <pt x="27" y="0" on="1"/>
        <pt x="27" y="325" on="1"/>
        <pt x="0" y="325" on="1"/>
        <pt x="0" y="474" on="1"/>
        <pt x="27" y="474" on="1"/>
        <pt x="27" y="503" on="1"/>
        <pt x="27" y="578" on="0"/>
        <pt x="106" y="650" on="0"/>
        <pt x="200" y="650" on="1"/>
        <pt x="250" y="650" on="0"/>
        <pt x="318" y="644" on="1"/>
        <pt x="311" y="491" on="1"/>
        <pt x="285" y="491" on="1"/>
        <pt x="285" y="474" on="1"/>
        <pt x="322" y="474" on="1"/>
        <pt x="322" y="503" on="1"/>
        <pt x="322" y="578" on="0"/>
        <pt x="401" y="650" on="0"/>
      </contour>
    </TTGlyph>
    <TTGlyph name="fi" xMin="0" yMin="0" xMax="585" yMax="645">
      <contour>
        <pt x="584" y="0" on="1"/>
        <pt x="322" y="0" on="1"/>
        <pt x="322" y="315" on="1"/>
        <pt x="289" y="315" on="1"/>
        <pt x="289" y="0" on="1"/>
        <pt x="27" y="0" on="1"/>
        <pt x="27" y="325" on="1"/>
        <pt x="0" y="325" on="1"/>
        <pt x="0" y="474" on="1"/>
        <pt x="27" y="474" on="1"/>
        <pt x="27" y="483" on="1"/>
        <pt x="27" y="640" on="0"/>
        <pt x="210" y="640" on="1"/>
        <pt x="262" y="640" on="0"/>
        <pt x="313" y="634" on="1"/>
        <pt x="307" y="491" on="1"/>
        <pt x="285" y="491" on="1"/>
        <pt x="285" y="464" on="1"/>
        <pt x="584" y="464" on="1"/>
      </contour>
      <contour>
        <pt x="323" y="556" on="1"/>
        <pt x="323" y="567" on="1"/>
        <pt x="323" y="645" on="0"/>
        <pt x="436" y="645" on="1"/>
        <pt x="467" y="645" on="1"/>
        <pt x="585" y="645" on="0"/>
        <pt x="585" y="567" on="1"/>
        <pt x="585" y="556" on="1"/>
        <pt x="585" y="477" on="0"/>
        <pt x="467" y="477" on="1"/>
        <pt x="435" y="477" on="1"/>
        <pt x="323" y="477" on="0"/>
      </contour>
    </TTGlyph>
    <TTGlyph name="five" xMin="8" yMin="-10" xMax="507" yMax="621">
      <contour>
        <pt x="414" y="402" on="0"/>
        <pt x="507" y="321" on="0"/>
        <pt x="507" y="108" on="0"/>
        <pt x="383" y="-10" on="0"/>
        <pt x="242" y="-10" on="1"/>
        <pt x="134" y="-10" on="0"/>
        <pt x="12" y="15" on="1"/>
        <pt x="26" y="208" on="1"/>
        <pt x="208" y="192" on="0"/>
        <pt x="242" y="192" on="0"/>
        <pt x="249" y="198" on="0"/>
        <pt x="249" y="207" on="1"/>
        <pt x="249" y="223" on="0"/>
        <pt x="233" y="223" on="1"/>
        <pt x="8" y="231" on="1"/>
        <pt x="8" y="621" on="1"/>
        <pt x="475" y="621" on="1"/>
        <pt x="475" y="423" on="1"/>
        <pt x="249" y="423" on="1"/>
        <pt x="249" y="398" on="1"/>
        <pt x="287" y="402" on="0"/>
        <pt x="308" y="402" on="1"/>
      </contour>
    </TTGlyph>
    <TTGlyph name="fj" xMin="0" yMin="-137" xMax="584" yMax="650">
      <contour>
        <pt x="584" y="464" on="1"/>
        <pt x="584" y="2" on="1"/>
        <pt x="584" y="-76" on="0"/>
        <pt x="491" y="-137" on="0"/>
        <pt x="377" y="-137" on="1"/>
        <pt x="307" y="-137" on="1"/>
        <pt x="298" y="0" on="1"/>
        <pt x="322" y="0" on="1"/>
        <pt x="322" y="315" on="1"/>
        <pt x="289" y="315" on="1"/>
        <pt x="289" y="0" on="1"/>
        <pt x="27" y="0" on="1"/>
        <pt x="27" y="325" on="1"/>
        <pt x="0" y="325" on="1"/>
        <pt x="0" y="474" on="1"/>
        <pt x="27" y="474" on="1"/>
        <pt x="27" y="503" on="1"/>
        <pt x="27" y="578" on="0"/>
        <pt x="106" y="650" on="0"/>
        <pt x="200" y="650" on="1"/>
        <pt x="262" y="650" on="0"/>
        <pt x="313" y="644" on="1"/>
        <pt x="307" y="491" on="1"/>
        <pt x="285" y="491" on="1"/>
        <pt x="285" y="464" on="1"/>
      </contour>
      <contour>
        <pt x="322" y="557" on="1"/>
        <pt x="322" y="568" on="1"/>
        <pt x="322" y="646" on="0"/>
        <pt x="435" y="646" on="1"/>
        <pt x="466" y="646" on="1"/>
        <pt x="584" y="646" on="0"/>
        <pt x="584" y="568" on="1"/>
        <pt x="584" y="557" on="1"/>
        <pt x="584" y="478" on="0"/>
        <pt x="466" y="478" on="1"/>
        <pt x="434" y="478" on="1"/>
        <pt x="322" y="478" on="0"/>
      </contour>
    </TTGlyph>
    <TTGlyph name="fl" xMin="0" yMin="-10" xMax="607" yMax="640">
      <contour>
        <pt x="210" y="640" on="1"/>
        <pt x="249" y="640" on="0"/>
        <pt x="312" y="631" on="1"/>
        <pt x="306" y="491" on="1"/>
        <pt x="285" y="491" on="1"/>
        <pt x="285" y="464" on="1"/>
        <pt x="324" y="464" on="1"/>
        <pt x="324" y="640" on="1"/>
        <pt x="581" y="640" on="1"/>
        <pt x="581" y="190" on="1"/>
        <pt x="581" y="166" on="0"/>
        <pt x="607" y="166" on="1"/>
        <pt x="599" y="-10" on="1"/>
        <pt x="498" y="-10" on="1"/>
        <pt x="322" y="-10" on="0"/>
        <pt x="322" y="125" on="1"/>
        <pt x="322" y="315" on="1"/>
        <pt x="289" y="315" on="1"/>
        <pt x="289" y="0" on="1"/>
        <pt x="27" y="0" on="1"/>
        <pt x="27" y="325" on="1"/>
        <pt x="0" y="325" on="1"/>
        <pt x="0" y="474" on="1"/>
        <pt x="27" y="474" on="1"/>
        <pt x="27" y="483" on="1"/>
        <pt x="27" y="640" on="0"/>
      </contour>
    </TTGlyph>
    <TTGlyph name="florin" xMin="-18" yMin="-147" xMax="466" yMax="640">
      <contour>
        <pt x="109" y="-147" on="1"/>
        <pt x="62" y="-147" on="0"/>
        <pt x="-18" y="-134" on="1"/>
        <pt x="-8" y="23" on="1"/>
        <pt x="64" y="15" on="1"/>
        <pt x="96" y="311" on="1"/>
        <pt x="25" y="311" on="1"/>
        <pt x="39" y="425" on="1"/>
        <pt x="106" y="425" on="1"/>
        <pt x="113" y="480" on="1"/>
        <pt x="123" y="560" on="0"/>
        <pt x="217" y="640" on="0"/>
        <pt x="319" y="640" on="1"/>
        <pt x="379" y="640" on="0"/>
        <pt x="466" y="628" on="1"/>
        <pt x="440" y="456" on="1"/>
        <pt x="365" y="465" on="1"/>
        <pt x="361" y="425" on="1"/>
        <pt x="438" y="425" on="1"/>
        <pt x="425" y="311" on="1"/>
        <pt x="349" y="311" on="1"/>
        <pt x="344" y="261" on="0"/>
        <pt x="322" y="61" on="0"/>
        <pt x="317" y="11" on="1"/>
        <pt x="309" y="-69" on="0"/>
        <pt x="209" y="-147" on="0"/>
      </contour>
    </TTGlyph>
    <TTGlyph name="foundryicon" xMin="40" yMin="23" xMax="1201" yMax="569">
      <contour>
        <pt x="186" y="157" on="1"/>
        <pt x="40" y="300" on="1"/>
        <pt x="186" y="441" on="1"/>
        <pt x="226" y="409" on="1"/>
        <pt x="138" y="325" on="1"/>
        <pt x="386" y="325" on="1"/>
        <pt x="380" y="355" on="0"/>
        <pt x="380" y="387" on="1"/>
        <pt x="380" y="469" on="0"/>
        <pt x="465" y="569" on="0"/>
        <pt x="535" y="569" on="1"/>
        <pt x="584" y="569" on="0"/>
        <pt x="643" y="536" on="0"/>
        <pt x="668" y="501" on="1"/>
        <pt x="714" y="569" on="0"/>
        <pt x="804" y="569" on="1"/>
        <pt x="875" y="569" on="0"/>
        <pt x="957" y="469" on="0"/>
        <pt x="957" y="387" on="1"/>
        <pt x="957" y="360" on="0"/>
        <pt x="950" y="325" on="1"/>
        <pt x="1151" y="325" on="1"/>
        <pt x="1151" y="441" on="1"/>
        <pt x="1201" y="441" on="1"/>
        <pt x="1201" y="157" on="1"/>
        <pt x="1151" y="157" on="1"/>
        <pt x="1151" y="273" on="1"/>
        <pt x="935" y="273" on="1"/>
        <pt x="895" y="171" on="0"/>
        <pt x="713" y="23" on="0"/>
        <pt x="618" y="23" on="0"/>
        <pt x="440" y="170" on="0"/>
        <pt x="401" y="273" on="1"/>
        <pt x="139" y="273" on="1"/>
        <pt x="226" y="188" on="1"/>
      </contour>
      <contour>
        <pt x="668" y="73" on="1"/>
        <pt x="695" y="77" on="0"/>
        <pt x="773" y="130" on="0"/>
        <pt x="850" y="210" on="0"/>
        <pt x="905" y="323" on="0"/>
        <pt x="905" y="444" on="0"/>
        <pt x="845" y="521" on="0"/>
        <pt x="790" y="521" on="1"/>
        <pt x="707" y="521" on="0"/>
        <pt x="676" y="437" on="1"/>
        <pt x="660" y="437" on="1"/>
        <pt x="629" y="521" on="0"/>
        <pt x="546" y="521" on="1"/>
        <pt x="492" y="521" on="0"/>
        <pt x="432" y="443" on="0"/>
        <pt x="432" y="376" on="1"/>
        <pt x="432" y="352" on="0"/>
        <pt x="437" y="325" on="1"/>
        <pt x="635" y="325" on="1"/>
        <pt x="635" y="273" on="1"/>
        <pt x="455" y="273" on="1"/>
        <pt x="488" y="196" on="0"/>
        <pt x="621" y="80" on="0"/>
      </contour>
    </TTGlyph>
    <TTGlyph name="four" xMin="0" yMin="0" xMax="577" yMax="621">
      <contour>
        <pt x="569" y="97" on="1"/>
        <pt x="526" y="97" on="1"/>
        <pt x="526" y="0" on="1"/>
        <pt x="244" y="0" on="1"/>
        <pt x="244" y="97" on="1"/>
        <pt x="15" y="97" on="1"/>
        <pt x="0" y="236" on="1"/>
        <pt x="143" y="621" on="1"/>
        <pt x="526" y="621" on="1"/>
        <pt x="526" y="263" on="1"/>
        <pt x="577" y="263" on="1"/>
      </contour>
      <contour>
        <pt x="259" y="259" on="1"/>
        <pt x="259" y="343" on="1"/>
        <pt x="223" y="343" on="1"/>
        <pt x="223" y="259" on="1"/>
      </contour>
    </TTGlyph>
    <TTGlyph name="fraction" xMin="-10" yMin="-137" xMax="393" yMax="621">
      <contour>
        <pt x="393" y="621" on="1"/>
        <pt x="237" y="-137" on="1"/>
        <pt x="-10" y="-137" on="1"/>
        <pt x="145" y="621" on="1"/>
      </contour>
    </TTGlyph>
    <TTGlyph name="g" xMin="2" yMin="-147" xMax="554" yMax="491">
      <contour>
        <pt x="235" y="491" on="1"/>
        <pt x="554" y="491" on="1"/>
        <pt x="554" y="366" on="1"/>
        <pt x="503" y="366" on="1"/>
        <pt x="503" y="361" on="1"/>
        <pt x="528" y="334" on="0"/>
        <pt x="528" y="287" on="1"/>
        <pt x="528" y="212" on="0"/>
        <pt x="439" y="141" on="0"/>
        <pt x="340" y="141" on="1"/>
        <pt x="210" y="141" on="1"/>
        <pt x="210" y="123" on="1"/>
        <pt x="409" y="123" on="1"/>
        <pt x="481" y="123" on="0"/>
        <pt x="547" y="71" on="0"/>
        <pt x="547" y="17" on="1"/>
        <pt x="547" y="-63" on="0"/>
        <pt x="396" y="-147" on="0"/>
        <pt x="253" y="-147" on="1"/>
        <pt x="66" y="-147" on="0"/>
        <pt x="27" y="-101" on="1"/>
        <pt x="10" y="-81" on="0"/>
        <pt x="10" y="-9" on="0"/>
        <pt x="50" y="9" on="1"/>
        <pt x="50" y="13" on="1"/>
        <pt x="2" y="33" on="0"/>
        <pt x="2" y="88" on="1"/>
        <pt x="2" y="155" on="0"/>
        <pt x="77" y="179" on="1"/>
        <pt x="77" y="184" on="1"/>
        <pt x="6" y="229" on="0"/>
        <pt x="6" y="410" on="0"/>
        <pt x="121" y="491" on="0"/>
      </contour>
      <contour>
        <pt x="210" y="-7" on="1"/>
        <pt x="210" y="-25" on="1"/>
        <pt x="353" y="-25" on="1"/>
        <pt x="353" y="-7" on="1"/>
      </contour>
      <contour>
        <pt x="266" y="340" on="1"/>
        <pt x="266" y="245" on="1"/>
        <pt x="286" y="245" on="1"/>
        <pt x="286" y="340" on="1"/>
      </contour>
    </TTGlyph>
    <TTGlyph name="germandbls" xMin="-6" yMin="-6" xMax="609" yMax="650">
      <contour>
        <pt x="316" y="364" on="1"/>
        <pt x="316" y="468" on="1"/>
        <pt x="280" y="468" on="1"/>
        <pt x="280" y="0" on="1"/>
        <pt x="27" y="0" on="1"/>
        <pt x="27" y="327" on="1"/>
        <pt x="-6" y="327" on="1"/>
        <pt x="-6" y="465" on="1"/>
        <pt x="27" y="465" on="1"/>
        <pt x="27" y="471" on="1"/>
        <pt x="27" y="563" on="0"/>
        <pt x="167" y="650" on="0"/>
        <pt x="309" y="650" on="1"/>
        <pt x="597" y="650" on="0"/>
        <pt x="597" y="458" on="1"/>
        <pt x="597" y="408" on="0"/>
        <pt x="574" y="352" on="0"/>
        <pt x="537" y="330" on="1"/>
        <pt x="537" y="326" on="1"/>
        <pt x="577" y="309" on="0"/>
        <pt x="609" y="243" on="0"/>
        <pt x="609" y="183" on="1"/>
        <pt x="609" y="89" on="0"/>
        <pt x="508" y="-6" on="0"/>
        <pt x="392" y="-6" on="1"/>
        <pt x="365" y="-6" on="0"/>
        <pt x="295" y="0" on="1"/>
        <pt x="295" y="127" on="1"/>
        <pt x="316" y="127" on="1"/>
        <pt x="316" y="250" on="1"/>
        <pt x="295" y="250" on="1"/>
        <pt x="295" y="364" on="1"/>
      </contour>
    </TTGlyph>
    <TTGlyph name="grave" xMin="105" yMin="511" xMax="403" yMax="641">
      <contour>
        <pt x="224" y="511" on="1"/>
        <pt x="105" y="641" on="1"/>
        <pt x="339" y="641" on="1"/>
        <pt x="403" y="511" on="1"/>
      </contour>
    </TTGlyph>
    <TTGlyph name="greater" xMin="15" yMin="-21" xMax="337" yMax="551">
      <contour>
        <pt x="337" y="199" on="1"/>
        <pt x="15" y="-21" on="1"/>
        <pt x="15" y="211" on="1"/>
        <pt x="98" y="266" on="1"/>
        <pt x="15" y="322" on="1"/>
        <pt x="15" y="551" on="1"/>
        <pt x="337" y="331" on="1"/>
      </contour>
    </TTGlyph>
    <TTGlyph name="greaterequal" xMin="15" yMin="-44" xMax="458" yMax="603">
      <contour>
        <pt x="453" y="239" on="1"/>
        <pt x="15" y="151" on="1"/>
        <pt x="15" y="351" on="1"/>
        <pt x="213" y="362" on="1"/>
        <pt x="213" y="370" on="1"/>
        <pt x="15" y="382" on="1"/>
        <pt x="15" y="603" on="1"/>
        <pt x="453" y="490" on="1"/>
      </contour>
      <contour>
        <pt x="458" y="-44" on="1"/>
        <pt x="15" y="-44" on="1"/>
        <pt x="15" y="150" on="1"/>
        <pt x="458" y="150" on="1"/>
      </contour>
    </TTGlyph>
    <TTGlyph name="guillemotleft" xMin="0" yMin="33" xMax="601" yMax="434">
      <contour>
        <pt x="257" y="210" on="1"/>
        <pt x="257" y="249" on="1"/>
        <pt x="384" y="434" on="1"/>
        <pt x="601" y="434" on="1"/>
        <pt x="467" y="233" on="1"/>
        <pt x="601" y="33" on="1"/>
        <pt x="374" y="33" on="1"/>
      </contour>
      <contour>
        <pt x="0" y="210" on="1"/>
        <pt x="0" y="249" on="1"/>
        <pt x="127" y="434" on="1"/>
        <pt x="344" y="434" on="1"/>
        <pt x="210" y="233" on="1"/>
        <pt x="344" y="33" on="1"/>
        <pt x="117" y="33" on="1"/>
      </contour>
    </TTGlyph>
    <TTGlyph name="guillemotright" xMin="2" yMin="32" xMax="603" yMax="433">
      <contour>
        <pt x="346" y="256" on="1"/>
        <pt x="346" y="217" on="1"/>
        <pt x="219" y="32" on="1"/>
        <pt x="2" y="32" on="1"/>
        <pt x="136" y="233" on="1"/>
        <pt x="2" y="433" on="1"/>
        <pt x="229" y="433" on="1"/>
      </contour>
      <contour>
        <pt x="603" y="256" on="1"/>
        <pt x="603" y="217" on="1"/>
        <pt x="476" y="32" on="1"/>
        <pt x="259" y="32" on="1"/>
        <pt x="393" y="233" on="1"/>
        <pt x="259" y="433" on="1"/>
        <pt x="486" y="433" on="1"/>
      </contour>
    </TTGlyph>
    <TTGlyph name="guilsinglleft" xMin="0" yMin="33" xMax="344" yMax="434">
      <contour>
        <pt x="0" y="210" on="1"/>
        <pt x="0" y="249" on="1"/>
        <pt x="127" y="434" on="1"/>
        <pt x="344" y="434" on="1"/>
        <pt x="210" y="233" on="1"/>
        <pt x="344" y="33" on="1"/>
        <pt x="117" y="33" on="1"/>
      </contour>
    </TTGlyph>
    <TTGlyph name="guilsinglright" xMin="2" yMin="32" xMax="346" yMax="433">
      <contour>
        <pt x="346" y="256" on="1"/>
        <pt x="346" y="217" on="1"/>
        <pt x="219" y="32" on="1"/>
        <pt x="2" y="32" on="1"/>
        <pt x="136" y="233" on="1"/>
        <pt x="2" y="433" on="1"/>
        <pt x="229" y="433" on="1"/>
      </contour>
    </TTGlyph>
    <TTGlyph name="h" xMin="10" yMin="0" xMax="560" yMax="630">
      <contour>
        <pt x="320" y="491" on="0"/>
        <pt x="480" y="491" on="0"/>
        <pt x="560" y="414" on="0"/>
        <pt x="560" y="349" on="1"/>
        <pt x="560" y="0" on="1"/>
        <pt x="293" y="0" on="1"/>
        <pt x="293" y="299" on="1"/>
        <pt x="273" y="299" on="1"/>
        <pt x="273" y="0" on="1"/>
        <pt x="10" y="0" on="1"/>
        <pt x="10" y="630" on="1"/>
        <pt x="265" y="630" on="1"/>
        <pt x="265" y="465" on="1"/>
      </contour>
    </TTGlyph>
    <TTGlyph name="hbar" xMin="0" yMin="0" xMax="560" yMax="630">
      <contour>
        <pt x="329" y="501" on="1"/>
        <pt x="265" y="501" on="1"/>
        <pt x="265" y="465" on="1"/>
        <pt x="320" y="491" on="0"/>
        <pt x="480" y="491" on="0"/>
        <pt x="560" y="414" on="0"/>
        <pt x="560" y="349" on="1"/>
        <pt x="560" y="0" on="1"/>
        <pt x="293" y="0" on="1"/>
        <pt x="293" y="299" on="1"/>
        <pt x="273" y="299" on="1"/>
        <pt x="273" y="0" on="1"/>
        <pt x="10" y="0" on="1"/>
        <pt x="10" y="501" on="1"/>
        <pt x="0" y="501" on="1"/>
        <pt x="0" y="611" on="1"/>
        <pt x="10" y="611" on="1"/>
        <pt x="10" y="630" on="1"/>
        <pt x="265" y="630" on="1"/>
        <pt x="265" y="611" on="1"/>
        <pt x="329" y="611" on="1"/>
      </contour>
    </TTGlyph>
    <TTGlyph name="hungarumlaut" xMin="53" yMin="500" xMax="492" yMax="636">
      <contour>
        <pt x="304" y="636" on="1"/>
        <pt x="174" y="500" on="1"/>
        <pt x="53" y="500" on="1"/>
        <pt x="133" y="636" on="1"/>
      </contour>
      <contour>
        <pt x="492" y="636" on="1"/>
        <pt x="351" y="500" on="1"/>
        <pt x="219" y="500" on="1"/>
        <pt x="316" y="636" on="1"/>
      </contour>
    </TTGlyph>
    <TTGlyph name="hyphen" xMin="15" yMin="146" xMax="373" yMax="340">
      <contour>
        <pt x="373" y="146" on="1"/>
        <pt x="15" y="146" on="1"/>
        <pt x="15" y="340" on="1"/>
        <pt x="373" y="340" on="1"/>
      </contour>
    </TTGlyph>
    <TTGlyph name="i" xMin="10" yMin="0" xMax="272" yMax="645">
      <contour>
        <pt x="272" y="0" on="1"/>
        <pt x="10" y="0" on="1"/>
        <pt x="10" y="464" on="1"/>
        <pt x="272" y="464" on="1"/>
      </contour>
      <contour>
        <pt x="10" y="556" on="1"/>
        <pt x="10" y="567" on="1"/>
        <pt x="10" y="645" on="0"/>
        <pt x="123" y="645" on="1"/>
        <pt x="154" y="645" on="1"/>
        <pt x="272" y="645" on="0"/>
        <pt x="272" y="567" on="1"/>
        <pt x="272" y="556" on="1"/>
        <pt x="272" y="477" on="0"/>
        <pt x="154" y="477" on="1"/>
        <pt x="122" y="477" on="1"/>
        <pt x="10" y="477" on="0"/>
      </contour>
    </TTGlyph>
    <TTGlyph name="iacute" xMin="10" yMin="0" xMax="331" yMax="641">
      <contour>
        <pt x="272" y="0" on="1"/>
        <pt x="10" y="0" on="1"/>
        <pt x="10" y="464" on="1"/>
        <pt x="272" y="464" on="1"/>
      </contour>
      <contour>
        <pt x="331" y="641" on="1"/>
        <pt x="212" y="511" on="1"/>
        <pt x="33" y="511" on="1"/>
        <pt x="97" y="641" on="1"/>
      </contour>
    </TTGlyph>
    <TTGlyph name="icircumflex" xMin="-48" yMin="0" xMax="340" yMax="635">
      <contour>
        <pt x="275" y="0" on="1"/>
        <pt x="13" y="0" on="1"/>
        <pt x="13" y="464" on="1"/>
        <pt x="275" y="464" on="1"/>
      </contour>
      <contour>
        <pt x="272" y="635" on="1"/>
        <pt x="340" y="501" on="1"/>
        <pt x="166" y="501" on="1"/>
        <pt x="150" y="537" on="1"/>
        <pt x="146" y="537" on="1"/>
        <pt x="130" y="501" on="1"/>
        <pt x="-48" y="501" on="1"/>
        <pt x="20" y="635" on="1"/>
      </contour>
    </TTGlyph>
    <TTGlyph name="idieresis" xMin="-68" yMin="0" xMax="354" yMax="640">
      <contour>
        <pt x="275" y="0" on="1"/>
        <pt x="13" y="0" on="1"/>
        <pt x="13" y="464" on="1"/>
        <pt x="275" y="464" on="1"/>
      </contour>
      <contour>
        <pt x="-24" y="506" on="0"/>
        <pt x="-68" y="534" on="0"/>
        <pt x="-68" y="611" on="0"/>
        <pt x="-23" y="640" on="0"/>
        <pt x="89" y="640" on="0"/>
        <pt x="132" y="611" on="0"/>
        <pt x="132" y="534" on="0"/>
        <pt x="90" y="506" on="0"/>
      </contour>
      <contour>
        <pt x="198" y="506" on="0"/>
        <pt x="154" y="534" on="0"/>
        <pt x="154" y="611" on="0"/>
        <pt x="199" y="640" on="0"/>
        <pt x="311" y="640" on="0"/>
        <pt x="354" y="611" on="0"/>
        <pt x="354" y="534" on="0"/>
        <pt x="312" y="506" on="0"/>
      </contour>
    </TTGlyph>
    <TTGlyph name="igrave" xMin="-38" yMin="0" xMax="272" yMax="641">
      <contour>
        <pt x="272" y="0" on="1"/>
        <pt x="10" y="0" on="1"/>
        <pt x="10" y="464" on="1"/>
        <pt x="272" y="464" on="1"/>
      </contour>
      <contour>
        <pt x="81" y="511" on="1"/>
        <pt x="-38" y="641" on="1"/>
        <pt x="196" y="641" on="1"/>
        <pt x="260" y="511" on="1"/>
      </contour>
    </TTGlyph>
    <TTGlyph name="ij" xMin="10" yMin="-137" xMax="568" yMax="645">
      <contour>
        <pt x="568" y="464" on="1"/>
        <pt x="568" y="2" on="1"/>
        <pt x="568" y="-76" on="0"/>
        <pt x="475" y="-137" on="0"/>
        <pt x="361" y="-137" on="1"/>
        <pt x="290" y="-137" on="1"/>
        <pt x="282" y="0" on="1"/>
        <pt x="306" y="0" on="1"/>
        <pt x="306" y="464" on="1"/>
      </contour>
      <contour>
        <pt x="272" y="0" on="1"/>
        <pt x="10" y="0" on="1"/>
        <pt x="10" y="464" on="1"/>
        <pt x="272" y="464" on="1"/>
      </contour>
      <contour>
        <pt x="10" y="556" on="1"/>
        <pt x="10" y="567" on="1"/>
        <pt x="10" y="645" on="0"/>
        <pt x="123" y="645" on="1"/>
        <pt x="154" y="645" on="1"/>
        <pt x="272" y="645" on="0"/>
        <pt x="272" y="567" on="1"/>
        <pt x="272" y="556" on="1"/>
        <pt x="272" y="477" on="0"/>
        <pt x="154" y="477" on="1"/>
        <pt x="122" y="477" on="1"/>
        <pt x="10" y="477" on="0"/>
      </contour>
      <contour>
        <pt x="304" y="556" on="1"/>
        <pt x="304" y="567" on="1"/>
        <pt x="304" y="645" on="0"/>
        <pt x="417" y="645" on="1"/>
        <pt x="448" y="645" on="1"/>
        <pt x="566" y="645" on="0"/>
        <pt x="566" y="567" on="1"/>
        <pt x="566" y="556" on="1"/>
        <pt x="566" y="477" on="0"/>
        <pt x="448" y="477" on="1"/>
        <pt x="416" y="477" on="1"/>
        <pt x="304" y="477" on="0"/>
      </contour>
    </TTGlyph>
    <TTGlyph name="infinity" xMin="36" yMin="71" xMax="709" yMax="463">
      <contour>
        <pt x="138" y="463" on="0"/>
        <pt x="306" y="463" on="0"/>
        <pt x="367" y="392" on="1"/>
        <pt x="432" y="463" on="0"/>
        <pt x="615" y="463" on="0"/>
        <pt x="709" y="360" on="0"/>
        <pt x="709" y="176" on="0"/>
        <pt x="617" y="71" on="0"/>
        <pt x="429" y="71" on="0"/>
        <pt x="369" y="146" on="1"/>
        <pt x="307" y="71" on="0"/>
        <pt x="129" y="71" on="0"/>
        <pt x="36" y="173" on="0"/>
        <pt x="36" y="357" on="0"/>
      </contour>
      <contour>
        <pt x="510" y="211" on="1"/>
        <pt x="532" y="211" on="0"/>
        <pt x="532" y="322" on="0"/>
        <pt x="487" y="322" on="0"/>
        <pt x="452" y="264" on="1"/>
        <pt x="486" y="211" on="0"/>
      </contour>
      <contour>
        <pt x="233" y="322" on="1"/>
        <pt x="213" y="322" on="0"/>
        <pt x="213" y="211" on="0"/>
        <pt x="233" y="211" on="1"/>
        <pt x="258" y="211" on="0"/>
        <pt x="292" y="267" on="1"/>
        <pt x="258" y="322" on="0"/>
      </contour>
    </TTGlyph>
    <TTGlyph name="integral" xMin="-22" yMin="-125" xMax="422" yMax="790">
      <contour>
        <pt x="80" y="172" on="1"/>
        <pt x="97" y="550" on="1"/>
        <pt x="103" y="673" on="0"/>
        <pt x="207" y="790" on="0"/>
        <pt x="337" y="790" on="1"/>
        <pt x="422" y="790" on="1"/>
        <pt x="409" y="589" on="1"/>
        <pt x="363" y="589" on="0"/>
        <pt x="340" y="560" on="0"/>
        <pt x="338" y="513" on="1"/>
        <pt x="319" y="118" on="1"/>
        <pt x="312" y="-22" on="0"/>
        <pt x="205" y="-125" on="0"/>
        <pt x="59" y="-125" on="1"/>
        <pt x="-22" y="-125" on="1"/>
        <pt x="-3" y="86" on="1"/>
        <pt x="49" y="86" on="0"/>
        <pt x="78" y="119" on="0"/>
      </contour>
    </TTGlyph>
    <TTGlyph name="itilde" xMin="-68" yMin="0" xMax="350" yMax="656">
      <contour>
        <pt x="272" y="0" on="1"/>
        <pt x="10" y="0" on="1"/>
        <pt x="10" y="464" on="1"/>
        <pt x="272" y="464" on="1"/>
      </contour>
      <contour>
        <pt x="350" y="656" on="1"/>
        <pt x="350" y="642" on="1"/>
        <pt x="350" y="570" on="0"/>
        <pt x="299" y="505" on="0"/>
        <pt x="223" y="505" on="1"/>
        <pt x="189" y="505" on="0"/>
        <pt x="113" y="529" on="1"/>
        <pt x="113" y="505" on="1"/>
        <pt x="-68" y="505" on="1"/>
        <pt x="-68" y="520" on="1"/>
        <pt x="-68" y="590" on="0"/>
        <pt x="-15" y="656" on="0"/>
        <pt x="55" y="656" on="1"/>
        <pt x="88" y="656" on="0"/>
        <pt x="170" y="632" on="1"/>
        <pt x="170" y="656" on="1"/>
      </contour>
    </TTGlyph>
    <TTGlyph name="j" xMin="0" yMin="-137" xMax="286" yMax="646">
      <contour>
        <pt x="286" y="464" on="1"/>
        <pt x="286" y="2" on="1"/>
        <pt x="286" y="-76" on="0"/>
        <pt x="193" y="-137" on="0"/>
        <pt x="79" y="-137" on="1"/>
        <pt x="8" y="-137" on="1"/>
        <pt x="0" y="0" on="1"/>
        <pt x="24" y="0" on="1"/>
        <pt x="24" y="464" on="1"/>
      </contour>
      <contour>
        <pt x="19" y="557" on="1"/>
        <pt x="19" y="568" on="1"/>
        <pt x="19" y="646" on="0"/>
        <pt x="132" y="646" on="1"/>
        <pt x="163" y="646" on="1"/>
        <pt x="281" y="646" on="0"/>
        <pt x="281" y="568" on="1"/>
        <pt x="281" y="557" on="1"/>
        <pt x="281" y="478" on="0"/>
        <pt x="163" y="478" on="1"/>
        <pt x="131" y="478" on="1"/>
        <pt x="19" y="478" on="0"/>
      </contour>
    </TTGlyph>
    <TTGlyph name="jcircumflex" xMin="-46" yMin="-137" xMax="342" yMax="635">
      <contour>
        <pt x="286" y="464" on="1"/>
        <pt x="286" y="2" on="1"/>
        <pt x="286" y="-76" on="0"/>
        <pt x="193" y="-137" on="0"/>
        <pt x="79" y="-137" on="1"/>
        <pt x="8" y="-137" on="1"/>
        <pt x="0" y="0" on="1"/>
        <pt x="24" y="0" on="1"/>
        <pt x="24" y="464" on="1"/>
      </contour>
      <contour>
        <pt x="274" y="635" on="1"/>
        <pt x="342" y="501" on="1"/>
        <pt x="168" y="501" on="1"/>
        <pt x="152" y="537" on="1"/>
        <pt x="148" y="537" on="1"/>
        <pt x="132" y="501" on="1"/>
        <pt x="-46" y="501" on="1"/>
        <pt x="22" y="635" on="1"/>
      </contour>
    </TTGlyph>
    <TTGlyph name="k" xMin="10" yMin="0" xMax="566" yMax="630">
      <contour>
        <pt x="563" y="0" on="1"/>
        <pt x="297" y="0" on="1"/>
        <pt x="269" y="177" on="1"/>
        <pt x="259" y="177" on="1"/>
        <pt x="259" y="0" on="1"/>
        <pt x="10" y="0" on="1"/>
        <pt x="10" y="630" on="1"/>
        <pt x="259" y="630" on="1"/>
        <pt x="259" y="291" on="1"/>
        <pt x="269" y="291" on="1"/>
        <pt x="303" y="479" on="1"/>
        <pt x="566" y="479" on="1"/>
        <pt x="525" y="283" on="1"/>
        <pt x="519" y="254" on="0"/>
        <pt x="492" y="240" on="1"/>
        <pt x="492" y="236" on="1"/>
        <pt x="521" y="226" on="0"/>
        <pt x="526" y="195" on="1"/>
      </contour>
    </TTGlyph>
    <TTGlyph name="kcommaaccent" xMin="10" yMin="-175" xMax="566" yMax="630">
      <contour>
        <pt x="563" y="0" on="1"/>
        <pt x="297" y="0" on="1"/>
        <pt x="269" y="177" on="1"/>
        <pt x="259" y="177" on="1"/>
        <pt x="259" y="0" on="1"/>
        <pt x="10" y="0" on="1"/>
        <pt x="10" y="630" on="1"/>
        <pt x="259" y="630" on="1"/>
        <pt x="259" y="291" on="1"/>
        <pt x="269" y="291" on="1"/>
        <pt x="303" y="479" on="1"/>
        <pt x="566" y="479" on="1"/>
        <pt x="525" y="283" on="1"/>
        <pt x="519" y="254" on="0"/>
        <pt x="492" y="240" on="1"/>
        <pt x="492" y="236" on="1"/>
        <pt x="521" y="226" on="0"/>
        <pt x="526" y="195" on="1"/>
      </contour>
      <contour>
        <pt x="185" y="-89" on="1"/>
        <pt x="185" y="-64" on="1"/>
        <pt x="185" y="-9" on="0"/>
        <pt x="261" y="-9" on="1"/>
        <pt x="296" y="-9" on="1"/>
        <pt x="340" y="-9" on="0"/>
        <pt x="375" y="-37" on="0"/>
        <pt x="375" y="-109" on="0"/>
        <pt x="351" y="-151" on="0"/>
        <pt x="315" y="-175" on="1"/>
        <pt x="218" y="-175" on="1"/>
        <pt x="245" y="-137" on="1"/>
        <pt x="212" y="-137" on="0"/>
        <pt x="185" y="-117" on="0"/>
      </contour>
    </TTGlyph>
    <TTGlyph name="kgreenlandic" xMin="10" yMin="0" xMax="563" yMax="491">
      <contour>
        <pt x="563" y="0" on="1"/>
        <pt x="297" y="0" on="1"/>
        <pt x="269" y="177" on="1"/>
        <pt x="259" y="177" on="1"/>
        <pt x="259" y="0" on="1"/>
        <pt x="10" y="0" on="1"/>
        <pt x="10" y="479" on="1"/>
        <pt x="261" y="479" on="1"/>
        <pt x="261" y="291" on="1"/>
        <pt x="267" y="291" on="1"/>
        <pt x="290" y="396" on="0"/>
        <pt x="384" y="491" on="0"/>
        <pt x="473" y="491" on="1"/>
        <pt x="546" y="491" on="1"/>
        <pt x="528" y="262" on="1"/>
        <pt x="487" y="262" on="0"/>
        <pt x="478" y="233" on="1"/>
        <pt x="517" y="222" on="0"/>
        <pt x="527" y="176" on="1"/>
      </contour>
    </TTGlyph>
    <TTGlyph name="l" xMin="10" yMin="-10" xMax="295" yMax="630">
      <contour>
        <pt x="10" y="125" on="1"/>
        <pt x="10" y="630" on="1"/>
        <pt x="269" y="630" on="1"/>
        <pt x="269" y="190" on="1"/>
        <pt x="269" y="166" on="0"/>
        <pt x="295" y="166" on="1"/>
        <pt x="287" y="-10" on="1"/>
        <pt x="186" y="-10" on="1"/>
        <pt x="10" y="-10" on="0"/>
      </contour>
    </TTGlyph>
    <TTGlyph name="ldot" xMin="10" yMin="-10" xMax="554" yMax="630">
      <contour>
        <pt x="10" y="125" on="1"/>
        <pt x="10" y="630" on="1"/>
        <pt x="269" y="630" on="1"/>
        <pt x="269" y="190" on="1"/>
        <pt x="269" y="166" on="0"/>
        <pt x="295" y="166" on="1"/>
        <pt x="287" y="-10" on="1"/>
        <pt x="186" y="-10" on="1"/>
        <pt x="10" y="-10" on="0"/>
      </contour>
      <contour>
        <pt x="287" y="278" on="1"/>
        <pt x="287" y="309" on="1"/>
        <pt x="287" y="346" on="0"/>
        <pt x="344" y="379" on="0"/>
        <pt x="403" y="379" on="1"/>
        <pt x="431" y="379" on="1"/>
        <pt x="495" y="379" on="0"/>
        <pt x="554" y="346" on="0"/>
        <pt x="554" y="309" on="1"/>
        <pt x="554" y="278" on="1"/>
        <pt x="554" y="240" on="0"/>
        <pt x="494" y="208" on="0"/>
        <pt x="429" y="208" on="1"/>
        <pt x="399" y="208" on="1"/>
        <pt x="341" y="208" on="0"/>
        <pt x="287" y="238" on="0"/>
      </contour>
    </TTGlyph>
    <TTGlyph name="less" xMin="5" yMin="-21" xMax="327" yMax="551">
      <contour>
        <pt x="327" y="-21" on="1"/>
        <pt x="5" y="199" on="1"/>
        <pt x="5" y="331" on="1"/>
        <pt x="327" y="551" on="1"/>
        <pt x="327" y="322" on="1"/>
        <pt x="244" y="266" on="1"/>
        <pt x="327" y="211" on="1"/>
      </contour>
    </TTGlyph>
    <TTGlyph name="lessequal" xMin="15" yMin="-44" xMax="458" yMax="603">
      <contour>
        <pt x="458" y="151" on="1"/>
        <pt x="20" y="239" on="1"/>
        <pt x="20" y="490" on="1"/>
        <pt x="458" y="603" on="1"/>
        <pt x="458" y="382" on="1"/>
        <pt x="260" y="370" on="1"/>
        <pt x="260" y="362" on="1"/>
        <pt x="458" y="351" on="1"/>
      </contour>
      <contour>
        <pt x="458" y="-44" on="1"/>
        <pt x="15" y="-44" on="1"/>
        <pt x="15" y="150" on="1"/>
        <pt x="458" y="150" on="1"/>
      </contour>
    </TTGlyph>
    <TTGlyph name="logicalnot" xMin="15" yMin="86" xMax="488" yMax="380">
      <contour>
        <pt x="273" y="86" on="1"/>
        <pt x="273" y="186" on="1"/>
        <pt x="15" y="186" on="1"/>
        <pt x="15" y="380" on="1"/>
        <pt x="488" y="380" on="1"/>
        <pt x="488" y="86" on="1"/>
      </contour>
    </TTGlyph>
    <TTGlyph name="lozenge" xMin="12" yMin="-46" xMax="515" yMax="620">
      <contour>
        <pt x="515" y="287" on="1"/>
        <pt x="349" y="-46" on="1"/>
        <pt x="177" y="-46" on="1"/>
        <pt x="12" y="285" on="1"/>
        <pt x="180" y="620" on="1"/>
        <pt x="349" y="620" on="1"/>
      </contour>
      <contour>
        <pt x="298" y="287" on="1"/>
        <pt x="263" y="367" on="1"/>
        <pt x="230" y="288" on="1"/>
        <pt x="264" y="206" on="1"/>
      </contour>
    </TTGlyph>
    <TTGlyph name="lslash" xMin="0" yMin="-10" xMax="317" yMax="640">
      <contour>
        <pt x="30" y="125" on="1"/>
        <pt x="30" y="151" on="1"/>
        <pt x="0" y="139" on="1"/>
        <pt x="0" y="353" on="1"/>
        <pt x="30" y="365" on="1"/>
        <pt x="30" y="640" on="1"/>
        <pt x="289" y="640" on="1"/>
        <pt x="289" y="469" on="1"/>
        <pt x="317" y="481" on="1"/>
        <pt x="317" y="268" on="1"/>
        <pt x="289" y="256" on="1"/>
        <pt x="289" y="190" on="1"/>
        <pt x="289" y="166" on="0"/>
        <pt x="315" y="166" on="1"/>
        <pt x="307" y="-10" on="1"/>
        <pt x="206" y="-10" on="1"/>
        <pt x="30" y="-10" on="0"/>
      </contour>
    </TTGlyph>
    <TTGlyph name="m" xMin="10" yMin="0" xMax="848" yMax="491">
      <contour>
        <pt x="679" y="491" on="1"/>
        <pt x="848" y="491" on="0"/>
        <pt x="848" y="354" on="1"/>
        <pt x="848" y="0" on="1"/>
        <pt x="581" y="0" on="1"/>
        <pt x="581" y="299" on="1"/>
        <pt x="561" y="299" on="1"/>
        <pt x="561" y="0" on="1"/>
        <pt x="293" y="0" on="1"/>
        <pt x="293" y="299" on="1"/>
        <pt x="273" y="299" on="1"/>
        <pt x="273" y="0" on="1"/>
        <pt x="10" y="0" on="1"/>
        <pt x="10" y="479" on="1"/>
        <pt x="252" y="479" on="1"/>
        <pt x="256" y="452" on="1"/>
        <pt x="334" y="491" on="0"/>
        <pt x="480" y="491" on="0"/>
        <pt x="525" y="448" on="1"/>
        <pt x="596" y="491" on="0"/>
      </contour>
    </TTGlyph>
    <TTGlyph name="macron" xMin="71" yMin="497" xMax="430" yMax="621">
      <contour>
        <pt x="430" y="497" on="1"/>
        <pt x="71" y="497" on="1"/>
        <pt x="71" y="621" on="1"/>
        <pt x="430" y="621" on="1"/>
      </contour>
    </TTGlyph>
    <TTGlyph name="minus" xMin="15" yMin="186" xMax="430" yMax="380">
      <contour>
        <pt x="430" y="186" on="1"/>
        <pt x="15" y="186" on="1"/>
        <pt x="15" y="380" on="1"/>
        <pt x="430" y="380" on="1"/>
      </contour>
    </TTGlyph>
    <TTGlyph name="mu" xMin="10" yMin="-137" xMax="584" yMax="479">
      <contour>
        <pt x="570" y="-5" on="1"/>
        <pt x="502" y="-10" on="0"/>
        <pt x="422" y="-10" on="0"/>
        <pt x="373" y="2" on="0"/>
        <pt x="350" y="20" on="1"/>
        <pt x="344" y="20" on="1"/>
        <pt x="316" y="-10" on="0"/>
        <pt x="266" y="-10" on="1"/>
        <pt x="266" y="-137" on="1"/>
        <pt x="10" y="-137" on="1"/>
        <pt x="10" y="479" on="1"/>
        <pt x="276" y="479" on="1"/>
        <pt x="276" y="170" on="1"/>
        <pt x="296" y="170" on="1"/>
        <pt x="296" y="479" on="1"/>
        <pt x="560" y="479" on="1"/>
        <pt x="560" y="173" on="1"/>
        <pt x="560" y="150" on="0"/>
        <pt x="584" y="150" on="1"/>
      </contour>
    </TTGlyph>
    <TTGlyph name="multiply" xMin="8" yMin="70" xMax="448" yMax="504">
      <contour>
        <pt x="15" y="206" on="1"/>
        <pt x="91" y="284" on="1"/>
        <pt x="8" y="367" on="1"/>
        <pt x="144" y="504" on="1"/>
        <pt x="228" y="419" on="1"/>
        <pt x="313" y="504" on="1"/>
        <pt x="448" y="367" on="1"/>
        <pt x="366" y="284" on="1"/>
        <pt x="442" y="206" on="1"/>
        <pt x="307" y="70" on="1"/>
        <pt x="228" y="149" on="1"/>
        <pt x="150" y="71" on="1"/>
      </contour>
    </TTGlyph>
    <TTGlyph name="n" xMin="10" yMin="0" xMax="560" yMax="491">
      <contour>
        <pt x="256" y="452" on="1"/>
        <pt x="336" y="491" on="0"/>
        <pt x="480" y="491" on="0"/>
        <pt x="560" y="414" on="0"/>
        <pt x="560" y="349" on="1"/>
        <pt x="560" y="0" on="1"/>
        <pt x="293" y="0" on="1"/>
        <pt x="293" y="299" on="1"/>
        <pt x="273" y="299" on="1"/>
        <pt x="273" y="0" on="1"/>
        <pt x="10" y="0" on="1"/>
        <pt x="10" y="479" on="1"/>
        <pt x="252" y="479" on="1"/>
      </contour>
    </TTGlyph>
    <TTGlyph name="nacute" xMin="10" yMin="0" xMax="560" yMax="641">
      <contour>
        <pt x="256" y="452" on="1"/>
        <pt x="336" y="491" on="0"/>
        <pt x="480" y="491" on="0"/>
        <pt x="560" y="414" on="0"/>
        <pt x="560" y="349" on="1"/>
        <pt x="560" y="0" on="1"/>
        <pt x="293" y="0" on="1"/>
        <pt x="293" y="299" on="1"/>
        <pt x="273" y="299" on="1"/>
        <pt x="273" y="0" on="1"/>
        <pt x="10" y="0" on="1"/>
        <pt x="10" y="479" on="1"/>
        <pt x="252" y="479" on="1"/>
      </contour>
      <contour>
        <pt x="474" y="641" on="1"/>
        <pt x="355" y="511" on="1"/>
        <pt x="176" y="511" on="1"/>
        <pt x="240" y="641" on="1"/>
      </contour>
    </TTGlyph>
    <TTGlyph name="nine" xMin="-6" yMin="-10" xMax="566" yMax="621">
      <contour>
        <pt x="289" y="205" on="1"/>
        <pt x="217" y="205" on="1"/>
        <pt x="105" y="205" on="0"/>
        <pt x="-6" y="292" on="0"/>
        <pt x="-6" y="399" on="1"/>
        <pt x="-6" y="621" on="0"/>
        <pt x="270" y="621" on="1"/>
        <pt x="429" y="621" on="0"/>
        <pt x="566" y="472" on="0"/>
        <pt x="566" y="139" on="0"/>
        <pt x="386" y="-10" on="0"/>
        <pt x="192" y="-10" on="1"/>
        <pt x="32" y="-10" on="1"/>
        <pt x="43" y="182" on="1"/>
        <pt x="264" y="182" on="1"/>
        <pt x="278" y="182" on="0"/>
        <pt x="289" y="192" on="0"/>
      </contour>
      <contour>
        <pt x="257" y="443" on="1"/>
        <pt x="257" y="326" on="1"/>
        <pt x="293" y="326" on="1"/>
        <pt x="293" y="443" on="1"/>
      </contour>
    </TTGlyph>
    <TTGlyph name="notequal" xMin="1" yMin="-26" xMax="442" yMax="532">
      <contour>
        <pt x="1" y="-26" on="1"/>
        <pt x="49" y="86" on="1"/>
        <pt x="20" y="86" on="1"/>
        <pt x="20" y="246" on="1"/>
        <pt x="119" y="246" on="1"/>
        <pt x="129" y="270" on="1"/>
        <pt x="20" y="270" on="1"/>
        <pt x="20" y="429" on="1"/>
        <pt x="198" y="429" on="1"/>
        <pt x="243" y="532" on="1"/>
        <pt x="442" y="532" on="1"/>
        <pt x="398" y="429" on="1"/>
        <pt x="428" y="429" on="1"/>
        <pt x="428" y="270" on="1"/>
        <pt x="329" y="270" on="1"/>
        <pt x="319" y="246" on="1"/>
        <pt x="428" y="246" on="1"/>
        <pt x="428" y="86" on="1"/>
        <pt x="250" y="86" on="1"/>
        <pt x="202" y="-26" on="1"/>
      </contour>
    </TTGlyph>
    <TTGlyph name="ntilde" xMin="10" yMin="0" xMax="560" yMax="656">
      <contour>
        <pt x="256" y="452" on="1"/>
        <pt x="336" y="491" on="0"/>
        <pt x="480" y="491" on="0"/>
        <pt x="560" y="414" on="0"/>
        <pt x="560" y="349" on="1"/>
        <pt x="560" y="0" on="1"/>
        <pt x="293" y="0" on="1"/>
        <pt x="293" y="299" on="1"/>
        <pt x="273" y="299" on="1"/>
        <pt x="273" y="0" on="1"/>
        <pt x="10" y="0" on="1"/>
        <pt x="10" y="479" on="1"/>
        <pt x="252" y="479" on="1"/>
      </contour>
      <contour>
        <pt x="488" y="656" on="1"/>
        <pt x="488" y="642" on="1"/>
        <pt x="488" y="570" on="0"/>
        <pt x="437" y="505" on="0"/>
        <pt x="361" y="505" on="1"/>
        <pt x="327" y="505" on="0"/>
        <pt x="251" y="529" on="1"/>
        <pt x="251" y="505" on="1"/>
        <pt x="70" y="505" on="1"/>
        <pt x="70" y="520" on="1"/>
        <pt x="70" y="590" on="0"/>
        <pt x="123" y="656" on="0"/>
        <pt x="193" y="656" on="1"/>
        <pt x="226" y="656" on="0"/>
        <pt x="308" y="632" on="1"/>
        <pt x="308" y="656" on="1"/>
      </contour>
    </TTGlyph>
    <TTGlyph name="numbersign" xMin="8" yMin="0" xMax="552" yMax="591">
      <contour>
        <pt x="552" y="309" on="1"/>
        <pt x="489" y="309" on="1"/>
        <pt x="487" y="287" on="1"/>
        <pt x="539" y="287" on="1"/>
        <pt x="539" y="141" on="1"/>
        <pt x="472" y="141" on="1"/>
        <pt x="457" y="0" on="1"/>
        <pt x="262" y="0" on="1"/>
        <pt x="277" y="141" on="1"/>
        <pt x="252" y="141" on="1"/>
        <pt x="237" y="0" on="1"/>
        <pt x="34" y="0" on="1"/>
        <pt x="52" y="141" on="1"/>
        <pt x="8" y="141" on="1"/>
        <pt x="8" y="287" on="1"/>
        <pt x="66" y="287" on="1"/>
        <pt x="69" y="309" on="1"/>
        <pt x="22" y="309" on="1"/>
        <pt x="22" y="452" on="1"/>
        <pt x="82" y="452" on="1"/>
        <pt x="101" y="591" on="1"/>
        <pt x="297" y="591" on="1"/>
        <pt x="282" y="452" on="1"/>
        <pt x="304" y="452" on="1"/>
        <pt x="319" y="591" on="1"/>
        <pt x="517" y="591" on="1"/>
        <pt x="502" y="452" on="1"/>
        <pt x="552" y="452" on="1"/>
      </contour>
      <contour>
        <pt x="291" y="314" on="1"/>
        <pt x="267" y="314" on="1"/>
        <pt x="263" y="282" on="1"/>
        <pt x="287" y="282" on="1"/>
      </contour>
    </TTGlyph>
    <TTGlyph name="o" xMin="4" yMin="-10" xMax="564" yMax="491">
      <contour>
        <pt x="4" y="373" on="0"/>
        <pt x="141" y="491" on="0"/>
        <pt x="431" y="491" on="0"/>
        <pt x="564" y="375" on="0"/>
        <pt x="564" y="110" on="0"/>
        <pt x="435" y="-10" on="0"/>
        <pt x="139" y="-10" on="0"/>
        <pt x="4" y="110" on="0"/>
      </contour>
      <contour>
        <pt x="296" y="131" on="1"/>
        <pt x="296" y="321" on="1"/>
        <pt x="276" y="321" on="1"/>
        <pt x="276" y="131" on="1"/>
      </contour>
    </TTGlyph>
    <TTGlyph name="oacute" xMin="4" yMin="-10" xMax="564" yMax="641">
      <contour>
        <pt x="4" y="373" on="0"/>
        <pt x="141" y="491" on="0"/>
        <pt x="431" y="491" on="0"/>
        <pt x="564" y="375" on="0"/>
        <pt x="564" y="110" on="0"/>
        <pt x="435" y="-10" on="0"/>
        <pt x="139" y="-10" on="0"/>
        <pt x="4" y="110" on="0"/>
      </contour>
      <contour>
        <pt x="479" y="641" on="1"/>
        <pt x="360" y="511" on="1"/>
        <pt x="181" y="511" on="1"/>
        <pt x="245" y="641" on="1"/>
      </contour>
      <contour>
        <pt x="296" y="131" on="1"/>
        <pt x="296" y="321" on="1"/>
        <pt x="276" y="321" on="1"/>
        <pt x="276" y="131" on="1"/>
      </contour>
    </TTGlyph>
    <TTGlyph name="ocircumflex" xMin="4" yMin="-10" xMax="564" yMax="635">
      <contour>
        <pt x="4" y="373" on="0"/>
        <pt x="141" y="491" on="0"/>
        <pt x="431" y="491" on="0"/>
        <pt x="564" y="375" on="0"/>
        <pt x="564" y="110" on="0"/>
        <pt x="435" y="-10" on="0"/>
        <pt x="139" y="-10" on="0"/>
        <pt x="4" y="110" on="0"/>
      </contour>
      <contour>
        <pt x="411" y="635" on="1"/>
        <pt x="479" y="501" on="1"/>
        <pt x="305" y="501" on="1"/>
        <pt x="289" y="537" on="1"/>
        <pt x="285" y="537" on="1"/>
        <pt x="269" y="501" on="1"/>
        <pt x="91" y="501" on="1"/>
        <pt x="159" y="635" on="1"/>
      </contour>
      <contour>
        <pt x="296" y="131" on="1"/>
        <pt x="296" y="321" on="1"/>
        <pt x="276" y="321" on="1"/>
        <pt x="276" y="131" on="1"/>
      </contour>
    </TTGlyph>
    <TTGlyph name="odieresis" xMin="4" yMin="-10" xMax="564" yMax="640">
      <contour>
        <pt x="4" y="373" on="0"/>
        <pt x="141" y="491" on="0"/>
        <pt x="431" y="491" on="0"/>
        <pt x="564" y="375" on="0"/>
        <pt x="564" y="110" on="0"/>
        <pt x="435" y="-10" on="0"/>
        <pt x="139" y="-10" on="0"/>
        <pt x="4" y="110" on="0"/>
      </contour>
      <contour>
        <pt x="340" y="506" on="0"/>
        <pt x="296" y="534" on="0"/>
        <pt x="296" y="611" on="0"/>
        <pt x="341" y="640" on="0"/>
        <pt x="453" y="640" on="0"/>
        <pt x="496" y="611" on="0"/>
        <pt x="496" y="534" on="0"/>
        <pt x="454" y="506" on="0"/>
      </contour>
      <contour>
        <pt x="118" y="506" on="0"/>
        <pt x="74" y="534" on="0"/>
        <pt x="74" y="611" on="0"/>
        <pt x="119" y="640" on="0"/>
        <pt x="231" y="640" on="0"/>
        <pt x="274" y="611" on="0"/>
        <pt x="274" y="534" on="0"/>
        <pt x="232" y="506" on="0"/>
      </contour>
      <contour>
        <pt x="296" y="131" on="1"/>
        <pt x="296" y="321" on="1"/>
        <pt x="276" y="321" on="1"/>
        <pt x="276" y="131" on="1"/>
      </contour>
    </TTGlyph>
    <TTGlyph name="oe" xMin="4" yMin="-10" xMax="835" yMax="491">
      <contour>
        <pt x="835" y="298" on="1"/>
        <pt x="835" y="255" on="0"/>
        <pt x="827" y="180" on="1"/>
        <pt x="562" y="180" on="1"/>
        <pt x="562" y="162" on="1"/>
        <pt x="605" y="157" on="0"/>
        <pt x="691" y="157" on="0"/>
        <pt x="809" y="163" on="1"/>
        <pt x="819" y="12" on="1"/>
        <pt x="681" y="-10" on="0"/>
        <pt x="491" y="-10" on="0"/>
        <pt x="434" y="13" on="1"/>
        <pt x="381" y="-10" on="0"/>
        <pt x="288" y="-10" on="1"/>
        <pt x="139" y="-10" on="0"/>
        <pt x="4" y="110" on="0"/>
        <pt x="4" y="373" on="0"/>
        <pt x="141" y="491" on="0"/>
        <pt x="288" y="491" on="1"/>
        <pt x="381" y="491" on="0"/>
        <pt x="437" y="466" on="1"/>
        <pt x="493" y="491" on="0"/>
        <pt x="585" y="491" on="1"/>
        <pt x="724" y="491" on="0"/>
        <pt x="835" y="392" on="0"/>
      </contour>
      <contour>
        <pt x="296" y="131" on="1"/>
        <pt x="296" y="321" on="1"/>
        <pt x="276" y="321" on="1"/>
        <pt x="276" y="131" on="1"/>
      </contour>
      <contour>
        <pt x="581" y="254" on="1"/>
        <pt x="581" y="333" on="1"/>
        <pt x="561" y="333" on="1"/>
        <pt x="561" y="254" on="1"/>
      </contour>
    </TTGlyph>
    <TTGlyph name="ogonek" xMin="140" yMin="-168" xMax="394" yMax="4">
      <contour>
        <pt x="140" y="-93" on="1"/>
        <pt x="140" y="-62" on="0"/>
        <pt x="185" y="-17" on="0"/>
        <pt x="230" y="4" on="1"/>
        <pt x="354" y="4" on="1"/>
        <pt x="291" y="-77" on="1"/>
        <pt x="293" y="-80" on="1"/>
        <pt x="338" y="-72" on="0"/>
        <pt x="376" y="-54" on="1"/>
        <pt x="394" y="-138" on="1"/>
        <pt x="330" y="-168" on="0"/>
        <pt x="247" y="-168" on="1"/>
        <pt x="140" y="-168" on="0"/>
      </contour>
    </TTGlyph>
    <TTGlyph name="ograve" xMin="4" yMin="-10" xMax="564" yMax="641">
      <contour>
        <pt x="4" y="373" on="0"/>
        <pt x="141" y="491" on="0"/>
        <pt x="431" y="491" on="0"/>
        <pt x="564" y="375" on="0"/>
        <pt x="564" y="110" on="0"/>
        <pt x="435" y="-10" on="0"/>
        <pt x="139" y="-10" on="0"/>
        <pt x="4" y="110" on="0"/>
      </contour>
      <contour>
        <pt x="213" y="511" on="1"/>
        <pt x="94" y="641" on="1"/>
        <pt x="328" y="641" on="1"/>
        <pt x="392" y="511" on="1"/>
      </contour>
      <contour>
        <pt x="296" y="131" on="1"/>
        <pt x="296" y="321" on="1"/>
        <pt x="276" y="321" on="1"/>
        <pt x="276" y="131" on="1"/>
      </contour>
    </TTGlyph>
    <TTGlyph name="one" xMin="0" yMin="0" xMax="339" yMax="621">
      <contour>
        <pt x="339" y="0" on="1"/>
        <pt x="57" y="0" on="1"/>
        <pt x="57" y="397" on="1"/>
        <pt x="0" y="397" on="1"/>
        <pt x="0" y="560" on="1"/>
        <pt x="92" y="621" on="1"/>
        <pt x="339" y="621" on="1"/>
      </contour>
    </TTGlyph>
    <TTGlyph name="onehalf" xMin="10" yMin="0" xMax="854" yMax="621">
      <contour>
        <pt x="544" y="621" on="1"/>
        <pt x="414" y="0" on="1"/>
        <pt x="212" y="0" on="1"/>
        <pt x="341" y="621" on="1"/>
      </contour>
      <contour>
        <pt x="247" y="186" on="1"/>
        <pt x="50" y="186" on="1"/>
        <pt x="50" y="464" on="1"/>
        <pt x="10" y="464" on="1"/>
        <pt x="10" y="578" on="1"/>
        <pt x="74" y="621" on="1"/>
        <pt x="247" y="621" on="1"/>
      </contour>
      <contour>
        <pt x="677" y="441" on="1"/>
        <pt x="854" y="441" on="0"/>
        <pt x="854" y="308" on="1"/>
        <pt x="854" y="255" on="0"/>
        <pt x="815" y="181" on="0"/>
        <pt x="772" y="140" on="1"/>
        <pt x="772" y="136" on="1"/>
        <pt x="853" y="136" on="1"/>
        <pt x="853" y="0" on="1"/>
        <pt x="520" y="0" on="1"/>
        <pt x="516" y="107" on="1"/>
        <pt x="616" y="197" on="0"/>
        <pt x="616" y="253" on="1"/>
        <pt x="616" y="274" on="0"/>
        <pt x="595" y="274" on="1"/>
        <pt x="584" y="274" on="0"/>
        <pt x="518" y="263" on="1"/>
        <pt x="504" y="420" on="1"/>
        <pt x="585" y="441" on="0"/>
      </contour>
    </TTGlyph>
    <TTGlyph name="onequarter" xMin="10" yMin="0" xMax="868" yMax="621">
      <contour>
        <pt x="544" y="621" on="1"/>
        <pt x="414" y="0" on="1"/>
        <pt x="212" y="0" on="1"/>
        <pt x="341" y="621" on="1"/>
      </contour>
      <contour>
        <pt x="247" y="186" on="1"/>
        <pt x="50" y="186" on="1"/>
        <pt x="50" y="464" on="1"/>
        <pt x="10" y="464" on="1"/>
        <pt x="10" y="578" on="1"/>
        <pt x="74" y="621" on="1"/>
        <pt x="247" y="621" on="1"/>
      </contour>
      <contour>
        <pt x="862" y="68" on="1"/>
        <pt x="832" y="68" on="1"/>
        <pt x="832" y="0" on="1"/>
        <pt x="635" y="0" on="1"/>
        <pt x="635" y="68" on="1"/>
        <pt x="474" y="68" on="1"/>
        <pt x="464" y="165" on="1"/>
        <pt x="564" y="435" on="1"/>
        <pt x="832" y="435" on="1"/>
        <pt x="832" y="184" on="1"/>
        <pt x="868" y="184" on="1"/>
      </contour>
      <contour>
        <pt x="645" y="181" on="1"/>
        <pt x="645" y="240" on="1"/>
        <pt x="620" y="240" on="1"/>
        <pt x="620" y="181" on="1"/>
      </contour>
    </TTGlyph>
    <TTGlyph name="onesuperior" xMin="10" yMin="186" xMax="247" yMax="621">
      <contour>
        <pt x="247" y="186" on="1"/>
        <pt x="50" y="186" on="1"/>
        <pt x="50" y="464" on="1"/>
        <pt x="10" y="464" on="1"/>
        <pt x="10" y="578" on="1"/>
        <pt x="74" y="621" on="1"/>
        <pt x="247" y="621" on="1"/>
      </contour>
    </TTGlyph>
    <TTGlyph name="ordfeminine" xMin="32" yMin="288" xMax="413" yMax="639">
      <contour>
        <pt x="399" y="537" on="1"/>
        <pt x="396" y="417" on="1"/>
        <pt x="396" y="400" on="0"/>
        <pt x="413" y="400" on="1"/>
        <pt x="404" y="291" on="1"/>
        <pt x="373" y="288" on="0"/>
        <pt x="273" y="288" on="0"/>
        <pt x="245" y="310" on="1"/>
        <pt x="242" y="310" on="1"/>
        <pt x="202" y="288" on="0"/>
        <pt x="150" y="288" on="1"/>
        <pt x="32" y="288" on="0"/>
        <pt x="32" y="390" on="1"/>
        <pt x="32" y="452" on="0"/>
        <pt x="121" y="497" on="0"/>
        <pt x="218" y="501" on="1"/>
        <pt x="218" y="515" on="1"/>
        <pt x="59" y="502" on="1"/>
        <pt x="45" y="625" on="1"/>
        <pt x="157" y="639" on="0"/>
        <pt x="324" y="639" on="0"/>
        <pt x="399" y="593" on="0"/>
      </contour>
      <contour>
        <pt x="211" y="432" on="1"/>
        <pt x="211" y="376" on="1"/>
        <pt x="225" y="376" on="1"/>
        <pt x="225" y="432" on="1"/>
      </contour>
    </TTGlyph>
    <TTGlyph name="ordmasculine" xMin="31" yMin="288" xMax="423" yMax="639">
      <contour>
        <pt x="31" y="556" on="0"/>
        <pt x="127" y="639" on="0"/>
        <pt x="330" y="639" on="0"/>
        <pt x="423" y="558" on="0"/>
        <pt x="423" y="373" on="0"/>
        <pt x="332" y="288" on="0"/>
        <pt x="125" y="288" on="0"/>
        <pt x="31" y="372" on="0"/>
      </contour>
      <contour>
        <pt x="235" y="387" on="1"/>
        <pt x="235" y="520" on="1"/>
        <pt x="221" y="520" on="1"/>
        <pt x="221" y="387" on="1"/>
      </contour>
    </TTGlyph>
    <TTGlyph name="oslash" xMin="4" yMin="-53" xMax="564" yMax="532">
      <contour>
        <pt x="288" y="491" on="1"/>
        <pt x="302" y="491" on="1"/>
        <pt x="323" y="532" on="1"/>
        <pt x="542" y="532" on="1"/>
        <pt x="494" y="436" on="1"/>
        <pt x="564" y="378" on="0"/>
        <pt x="564" y="110" on="0"/>
        <pt x="435" y="-10" on="0"/>
        <pt x="288" y="-10" on="1"/>
        <pt x="278" y="-10" on="1"/>
        <pt x="258" y="-53" on="1"/>
        <pt x="37" y="-53" on="1"/>
        <pt x="82" y="41" on="1"/>
        <pt x="4" y="99" on="0"/>
        <pt x="4" y="373" on="0"/>
        <pt x="141" y="491" on="0"/>
      </contour>
      <contour>
        <pt x="296" y="131" on="1"/>
        <pt x="296" y="321" on="1"/>
        <pt x="276" y="321" on="1"/>
        <pt x="276" y="131" on="1"/>
      </contour>
    </TTGlyph>
    <TTGlyph name="otilde" xMin="4" yMin="-10" xMax="564" yMax="656">
      <contour>
        <pt x="4" y="373" on="0"/>
        <pt x="141" y="491" on="0"/>
        <pt x="431" y="491" on="0"/>
        <pt x="564" y="375" on="0"/>
        <pt x="564" y="110" on="0"/>
        <pt x="435" y="-10" on="0"/>
        <pt x="139" y="-10" on="0"/>
        <pt x="4" y="110" on="0"/>
      </contour>
      <contour>
        <pt x="489" y="656" on="1"/>
        <pt x="489" y="642" on="1"/>
        <pt x="489" y="570" on="0"/>
        <pt x="438" y="505" on="0"/>
        <pt x="362" y="505" on="1"/>
        <pt x="328" y="505" on="0"/>
        <pt x="252" y="529" on="1"/>
        <pt x="252" y="505" on="1"/>
        <pt x="71" y="505" on="1"/>
        <pt x="71" y="520" on="1"/>
        <pt x="71" y="590" on="0"/>
        <pt x="124" y="656" on="0"/>
        <pt x="194" y="656" on="1"/>
        <pt x="227" y="656" on="0"/>
        <pt x="309" y="632" on="1"/>
        <pt x="309" y="656" on="1"/>
      </contour>
      <contour>
        <pt x="296" y="131" on="1"/>
        <pt x="296" y="321" on="1"/>
        <pt x="276" y="321" on="1"/>
        <pt x="276" y="131" on="1"/>
      </contour>
    </TTGlyph>
    <TTGlyph name="p" xMin="10" yMin="-137" xMax="566" yMax="491">
      <contour>
        <pt x="345" y="-10" on="1"/>
        <pt x="316" y="-10" on="0"/>
        <pt x="273" y="0" on="1"/>
        <pt x="273" y="-137" on="1"/>
        <pt x="10" y="-137" on="1"/>
        <pt x="10" y="479" on="1"/>
        <pt x="242" y="479" on="1"/>
        <pt x="246" y="459" on="1"/>
        <pt x="296" y="491" on="0"/>
        <pt x="367" y="491" on="1"/>
        <pt x="482" y="491" on="0"/>
        <pt x="566" y="379" on="0"/>
        <pt x="566" y="113" on="0"/>
        <pt x="473" y="-10" on="0"/>
      </contour>
      <contour>
        <pt x="283" y="131" on="1"/>
        <pt x="283" y="321" on="1"/>
        <pt x="263" y="321" on="1"/>
        <pt x="263" y="131" on="1"/>
      </contour>
    </TTGlyph>
    <TTGlyph name="paragraph" xMin="6" yMin="-137" xMax="655" yMax="628">
      <contour>
        <pt x="425" y="474" on="1"/>
        <pt x="425" y="-137" on="1"/>
        <pt x="230" y="-137" on="1"/>
        <pt x="230" y="153" on="1"/>
        <pt x="109" y="153" on="0"/>
        <pt x="6" y="262" on="0"/>
        <pt x="6" y="519" on="0"/>
        <pt x="113" y="628" on="0"/>
        <pt x="236" y="628" on="1"/>
        <pt x="655" y="628" on="1"/>
        <pt x="655" y="-137" on="1"/>
        <pt x="461" y="-137" on="1"/>
        <pt x="461" y="474" on="1"/>
      </contour>
    </TTGlyph>
    <TTGlyph name="parenleft" xMin="12" yMin="-147" xMax="406" yMax="645">
      <contour>
        <pt x="210" y="645" on="1"/>
        <pt x="406" y="595" on="1"/>
        <pt x="288" y="450" on="0"/>
        <pt x="288" y="68" on="0"/>
        <pt x="406" y="-106" on="1"/>
        <pt x="202" y="-147" on="1"/>
        <pt x="108" y="-60" on="0"/>
        <pt x="12" y="124" on="0"/>
        <pt x="12" y="379" on="0"/>
        <pt x="108" y="565" on="0"/>
      </contour>
    </TTGlyph>
    <TTGlyph name="parenright" xMin="-4" yMin="-147" xMax="390" yMax="645">
      <contour>
        <pt x="294" y="565" on="0"/>
        <pt x="390" y="377" on="0"/>
        <pt x="390" y="129" on="0"/>
        <pt x="292" y="-61" on="0"/>
        <pt x="199" y="-147" on="1"/>
        <pt x="-4" y="-106" on="1"/>
        <pt x="116" y="55" on="0"/>
        <pt x="116" y="448" on="0"/>
        <pt x="-4" y="594" on="1"/>
        <pt x="193" y="645" on="1"/>
      </contour>
    </TTGlyph>
    <TTGlyph name="partialdiff" xMin="2" yMin="-10" xMax="574" yMax="621">
      <contour>
        <pt x="271" y="261" on="1"/>
        <pt x="271" y="141" on="1"/>
        <pt x="311" y="141" on="1"/>
        <pt x="311" y="261" on="1"/>
      </contour>
      <contour>
        <pt x="229" y="400" on="1"/>
        <pt x="297" y="400" on="1"/>
        <pt x="297" y="423" on="0"/>
        <pt x="270" y="423" on="1"/>
        <pt x="51" y="423" on="1"/>
        <pt x="40" y="621" on="1"/>
        <pt x="200" y="621" on="1"/>
        <pt x="394" y="621" on="0"/>
        <pt x="574" y="466" on="0"/>
        <pt x="574" y="286" on="1"/>
        <pt x="574" y="133" on="0"/>
        <pt x="433" y="-10" on="0"/>
        <pt x="133" y="-10" on="0"/>
        <pt x="2" y="101" on="0"/>
        <pt x="2" y="312" on="0"/>
        <pt x="112" y="400" on="0"/>
      </contour>
    </TTGlyph>
    <TTGlyph name="percent" xMin="4" yMin="-10" xMax="1047" yMax="630">
      <contour>
        <pt x="329" y="630" on="0"/>
        <pt x="410" y="529" on="0"/>
        <pt x="410" y="280" on="0"/>
        <pt x="329" y="181" on="0"/>
        <pt x="86" y="181" on="0"/>
        <pt x="4" y="280" on="0"/>
        <pt x="4" y="529" on="0"/>
        <pt x="86" y="630" on="0"/>
      </contour>
      <contour>
        <pt x="966" y="439" on="0"/>
        <pt x="1047" y="338" on="0"/>
        <pt x="1047" y="89" on="0"/>
        <pt x="966" y="-10" on="0"/>
        <pt x="723" y="-10" on="0"/>
        <pt x="641" y="89" on="0"/>
        <pt x="641" y="338" on="0"/>
        <pt x="723" y="439" on="0"/>
      </contour>
      <contour>
        <pt x="694" y="621" on="1"/>
        <pt x="566" y="0" on="1"/>
        <pt x="359" y="0" on="1"/>
        <pt x="486" y="621" on="1"/>
      </contour>
      <contour>
        <pt x="221" y="298" on="1"/>
        <pt x="221" y="492" on="1"/>
        <pt x="196" y="492" on="1"/>
        <pt x="196" y="298" on="1"/>
      </contour>
      <contour>
        <pt x="858" y="107" on="1"/>
        <pt x="858" y="301" on="1"/>
        <pt x="833" y="301" on="1"/>
        <pt x="833" y="107" on="1"/>
      </contour>
    </TTGlyph>
    <TTGlyph name="period" xMin="10" yMin="-10" xMax="232" yMax="158">
      <contour>
        <pt x="10" y="59" on="1"/>
        <pt x="10" y="90" on="1"/>
        <pt x="10" y="127" on="0"/>
        <pt x="53" y="158" on="0"/>
        <pt x="103" y="158" on="1"/>
        <pt x="134" y="158" on="1"/>
        <pt x="189" y="158" on="0"/>
        <pt x="232" y="127" on="0"/>
        <pt x="232" y="90" on="1"/>
        <pt x="232" y="59" on="1"/>
        <pt x="232" y="21" on="0"/>
        <pt x="188" y="-10" on="0"/>
        <pt x="132" y="-10" on="1"/>
        <pt x="100" y="-10" on="1"/>
        <pt x="51" y="-10" on="0"/>
        <pt x="10" y="20" on="0"/>
      </contour>
    </TTGlyph>
    <TTGlyph name="periodcentered" xMin="20" yMin="218" xMax="287" yMax="389">
      <contour>
        <pt x="20" y="288" on="1"/>
        <pt x="20" y="319" on="1"/>
        <pt x="20" y="356" on="0"/>
        <pt x="77" y="389" on="0"/>
        <pt x="136" y="389" on="1"/>
        <pt x="164" y="389" on="1"/>
        <pt x="228" y="389" on="0"/>
        <pt x="287" y="356" on="0"/>
        <pt x="287" y="319" on="1"/>
        <pt x="287" y="288" on="1"/>
        <pt x="287" y="250" on="0"/>
        <pt x="227" y="218" on="0"/>
        <pt x="162" y="218" on="1"/>
        <pt x="132" y="218" on="1"/>
        <pt x="74" y="218" on="0"/>
        <pt x="20" y="248" on="0"/>
      </contour>
    </TTGlyph>
    <TTGlyph name="perthousand" xMin="4" yMin="-10" xMax="1469" yMax="630">
      <contour>
        <pt x="329" y="630" on="0"/>
        <pt x="410" y="529" on="0"/>
        <pt x="410" y="280" on="0"/>
        <pt x="329" y="181" on="0"/>
        <pt x="86" y="181" on="0"/>
        <pt x="4" y="280" on="0"/>
        <pt x="4" y="529" on="0"/>
        <pt x="86" y="630" on="0"/>
      </contour>
      <contour>
        <pt x="966" y="439" on="0"/>
        <pt x="1047" y="338" on="0"/>
        <pt x="1047" y="89" on="0"/>
        <pt x="966" y="-10" on="0"/>
        <pt x="723" y="-10" on="0"/>
        <pt x="641" y="89" on="0"/>
        <pt x="641" y="338" on="0"/>
        <pt x="723" y="439" on="0"/>
      </contour>
      <contour>
        <pt x="1388" y="439" on="0"/>
        <pt x="1469" y="338" on="0"/>
        <pt x="1469" y="89" on="0"/>
        <pt x="1388" y="-10" on="0"/>
        <pt x="1145" y="-10" on="0"/>
        <pt x="1063" y="89" on="0"/>
        <pt x="1063" y="338" on="0"/>
        <pt x="1145" y="439" on="0"/>
      </contour>
      <contour>
        <pt x="694" y="621" on="1"/>
        <pt x="566" y="0" on="1"/>
        <pt x="359" y="0" on="1"/>
        <pt x="486" y="621" on="1"/>
      </contour>
      <contour>
        <pt x="1280" y="107" on="1"/>
        <pt x="1280" y="301" on="1"/>
        <pt x="1255" y="301" on="1"/>
        <pt x="1255" y="107" on="1"/>
      </contour>
      <contour>
        <pt x="221" y="298" on="1"/>
        <pt x="221" y="492" on="1"/>
        <pt x="196" y="492" on="1"/>
        <pt x="196" y="298" on="1"/>
      </contour>
      <contour>
        <pt x="858" y="107" on="1"/>
        <pt x="858" y="301" on="1"/>
        <pt x="833" y="301" on="1"/>
        <pt x="833" y="107" on="1"/>
      </contour>
    </TTGlyph>
    <TTGlyph name="pi" xMin="4" yMin="0" xMax="606" yMax="479">
      <contour>
        <pt x="581" y="0" on="1"/>
        <pt x="314" y="0" on="1"/>
        <pt x="314" y="299" on="1"/>
        <pt x="294" y="299" on="1"/>
        <pt x="294" y="0" on="1"/>
        <pt x="31" y="0" on="1"/>
        <pt x="31" y="300" on="1"/>
        <pt x="4" y="300" on="1"/>
        <pt x="4" y="479" on="1"/>
        <pt x="606" y="479" on="1"/>
        <pt x="606" y="300" on="1"/>
        <pt x="581" y="300" on="1"/>
      </contour>
    </TTGlyph>
    <TTGlyph name="plus" xMin="15" yMin="87" xMax="434" yMax="498">
      <contour>
        <pt x="127" y="87" on="1"/>
        <pt x="127" y="188" on="1"/>
        <pt x="15" y="188" on="1"/>
        <pt x="15" y="378" on="1"/>
        <pt x="127" y="378" on="1"/>
        <pt x="127" y="498" on="1"/>
        <pt x="321" y="498" on="1"/>
        <pt x="321" y="378" on="1"/>
        <pt x="434" y="378" on="1"/>
        <pt x="434" y="188" on="1"/>
        <pt x="321" y="188" on="1"/>
        <pt x="321" y="87" on="1"/>
      </contour>
    </TTGlyph>
    <TTGlyph name="plusminus" xMin="15" yMin="0" xMax="434" yMax="568">
      <contour>
        <pt x="127" y="193" on="1"/>
        <pt x="127" y="268" on="1"/>
        <pt x="15" y="268" on="1"/>
        <pt x="15" y="458" on="1"/>
        <pt x="127" y="458" on="1"/>
        <pt x="127" y="568" on="1"/>
        <pt x="321" y="568" on="1"/>
        <pt x="321" y="458" on="1"/>
        <pt x="434" y="458" on="1"/>
        <pt x="434" y="268" on="1"/>
        <pt x="321" y="268" on="1"/>
        <pt x="321" y="193" on="1"/>
      </contour>
      <contour>
        <pt x="430" y="0" on="1"/>
        <pt x="15" y="0" on="1"/>
        <pt x="15" y="180" on="1"/>
        <pt x="430" y="180" on="1"/>
      </contour>
    </TTGlyph>
    <TTGlyph name="product" xMin="2" yMin="0" xMax="687" yMax="621">
      <contour>
        <pt x="332" y="0" on="1"/>
        <pt x="50" y="0" on="1"/>
        <pt x="50" y="419" on="1"/>
        <pt x="2" y="419" on="1"/>
        <pt x="2" y="621" on="1"/>
        <pt x="687" y="621" on="1"/>
        <pt x="687" y="419" on="1"/>
        <pt x="644" y="419" on="1"/>
        <pt x="644" y="0" on="1"/>
        <pt x="364" y="0" on="1"/>
        <pt x="364" y="419" on="1"/>
        <pt x="332" y="419" on="1"/>
      </contour>
    </TTGlyph>
    <TTGlyph name="q" xMin="4" yMin="-137" xMax="562" yMax="491">
      <contour>
        <pt x="107" y="-10" on="0"/>
        <pt x="4" y="117" on="0"/>
        <pt x="4" y="362" on="0"/>
        <pt x="108" y="491" on="0"/>
        <pt x="207" y="491" on="1"/>
        <pt x="272" y="491" on="0"/>
        <pt x="326" y="461" on="1"/>
        <pt x="329" y="479" on="1"/>
        <pt x="562" y="479" on="1"/>
        <pt x="562" y="-137" on="1"/>
        <pt x="299" y="-137" on="1"/>
        <pt x="299" y="-1" on="1"/>
        <pt x="267" y="-10" on="0"/>
        <pt x="232" y="-10" on="1"/>
      </contour>
      <contour>
        <pt x="309" y="131" on="1"/>
        <pt x="309" y="321" on="1"/>
        <pt x="289" y="321" on="1"/>
        <pt x="289" y="131" on="1"/>
      </contour>
    </TTGlyph>
    <TTGlyph name="question" xMin="10" yMin="-10" xMax="392" yMax="625">
      <contour>
        <pt x="392" y="438" on="1"/>
        <pt x="392" y="353" on="0"/>
        <pt x="330" y="262" on="0"/>
        <pt x="253" y="234" on="1"/>
        <pt x="253" y="175" on="1"/>
        <pt x="47" y="175" on="1"/>
        <pt x="47" y="278" on="1"/>
        <pt x="47" y="315" on="0"/>
        <pt x="74" y="346" on="0"/>
        <pt x="135" y="371" on="0"/>
        <pt x="150" y="388" on="0"/>
        <pt x="150" y="403" on="1"/>
        <pt x="150" y="431" on="0"/>
        <pt x="120" y="431" on="1"/>
        <pt x="99" y="431" on="0"/>
        <pt x="10" y="420" on="1"/>
        <pt x="10" y="612" on="1"/>
        <pt x="98" y="625" on="0"/>
        <pt x="168" y="625" on="1"/>
        <pt x="392" y="625" on="0"/>
      </contour>
      <contour>
        <pt x="39" y="59" on="1"/>
        <pt x="39" y="90" on="1"/>
        <pt x="39" y="127" on="0"/>
        <pt x="82" y="158" on="0"/>
        <pt x="132" y="158" on="1"/>
        <pt x="163" y="158" on="1"/>
        <pt x="218" y="158" on="0"/>
        <pt x="261" y="127" on="0"/>
        <pt x="261" y="90" on="1"/>
        <pt x="261" y="59" on="1"/>
        <pt x="261" y="21" on="0"/>
        <pt x="217" y="-10" on="0"/>
        <pt x="161" y="-10" on="1"/>
        <pt x="129" y="-10" on="1"/>
        <pt x="80" y="-10" on="0"/>
        <pt x="39" y="20" on="0"/>
      </contour>
    </TTGlyph>
    <TTGlyph name="questiondown" xMin="0" yMin="-147" xMax="382" yMax="488">
      <contour>
        <pt x="0" y="40" on="1"/>
        <pt x="0" y="125" on="0"/>
        <pt x="62" y="216" on="0"/>
        <pt x="139" y="244" on="1"/>
        <pt x="139" y="303" on="1"/>
        <pt x="345" y="303" on="1"/>
        <pt x="345" y="200" on="1"/>
        <pt x="345" y="163" on="0"/>
        <pt x="318" y="132" on="0"/>
        <pt x="257" y="107" on="0"/>
        <pt x="242" y="90" on="0"/>
        <pt x="242" y="75" on="1"/>
        <pt x="242" y="47" on="0"/>
        <pt x="272" y="47" on="1"/>
        <pt x="293" y="47" on="0"/>
        <pt x="382" y="58" on="1"/>
        <pt x="382" y="-134" on="1"/>
        <pt x="294" y="-147" on="0"/>
        <pt x="224" y="-147" on="1"/>
        <pt x="0" y="-147" on="0"/>
      </contour>
      <contour>
        <pt x="353" y="419" on="1"/>
        <pt x="353" y="388" on="1"/>
        <pt x="353" y="351" on="0"/>
        <pt x="310" y="320" on="0"/>
        <pt x="260" y="320" on="1"/>
        <pt x="229" y="320" on="1"/>
        <pt x="174" y="320" on="0"/>
        <pt x="131" y="351" on="0"/>
        <pt x="131" y="388" on="1"/>
        <pt x="131" y="419" on="1"/>
        <pt x="131" y="457" on="0"/>
        <pt x="175" y="488" on="0"/>
        <pt x="231" y="488" on="1"/>
        <pt x="263" y="488" on="1"/>
        <pt x="312" y="488" on="0"/>
        <pt x="353" y="458" on="0"/>
      </contour>
    </TTGlyph>
    <TTGlyph name="quotedbl" xMin="20" yMin="387" xMax="477" yMax="650">
      <contour>
        <pt x="20" y="551" on="1"/>
        <pt x="20" y="582" on="1"/>
        <pt x="20" y="619" on="0"/>
        <pt x="63" y="650" on="0"/>
        <pt x="113" y="650" on="1"/>
        <pt x="144" y="650" on="1"/>
        <pt x="199" y="650" on="0"/>
        <pt x="242" y="619" on="0"/>
        <pt x="242" y="582" on="1"/>
        <pt x="242" y="548" on="1"/>
        <pt x="242" y="495" on="0"/>
        <pt x="193" y="420" on="0"/>
        <pt x="139" y="387" on="1"/>
        <pt x="61" y="387" on="1"/>
        <pt x="90" y="482" on="1"/>
        <pt x="80" y="482" on="1"/>
        <pt x="47" y="482" on="0"/>
        <pt x="20" y="512" on="0"/>
      </contour>
      <contour>
        <pt x="255" y="551" on="1"/>
        <pt x="255" y="582" on="1"/>
        <pt x="255" y="619" on="0"/>
        <pt x="298" y="650" on="0"/>
        <pt x="348" y="650" on="1"/>
        <pt x="379" y="650" on="1"/>
        <pt x="434" y="650" on="0"/>
        <pt x="477" y="619" on="0"/>
        <pt x="477" y="582" on="1"/>
        <pt x="477" y="548" on="1"/>
        <pt x="477" y="495" on="0"/>
        <pt x="428" y="420" on="0"/>
        <pt x="374" y="387" on="1"/>
        <pt x="296" y="387" on="1"/>
        <pt x="325" y="482" on="1"/>
        <pt x="315" y="482" on="1"/>
        <pt x="282" y="482" on="0"/>
        <pt x="255" y="512" on="0"/>
      </contour>
    </TTGlyph>
    <TTGlyph name="quotedblbase" xMin="10" yMin="-105" xMax="467" yMax="158">
      <contour>
        <pt x="10" y="59" on="1"/>
        <pt x="10" y="90" on="1"/>
        <pt x="10" y="127" on="0"/>
        <pt x="53" y="158" on="0"/>
        <pt x="103" y="158" on="1"/>
        <pt x="134" y="158" on="1"/>
        <pt x="189" y="158" on="0"/>
        <pt x="232" y="127" on="0"/>
        <pt x="232" y="90" on="1"/>
        <pt x="232" y="56" on="1"/>
        <pt x="232" y="3" on="0"/>
        <pt x="183" y="-72" on="0"/>
        <pt x="129" y="-105" on="1"/>
        <pt x="51" y="-105" on="1"/>
        <pt x="80" y="-10" on="1"/>
        <pt x="70" y="-10" on="1"/>
        <pt x="37" y="-10" on="0"/>
        <pt x="10" y="20" on="0"/>
      </contour>
      <contour>
        <pt x="245" y="59" on="1"/>
        <pt x="245" y="90" on="1"/>
        <pt x="245" y="127" on="0"/>
        <pt x="288" y="158" on="0"/>
        <pt x="338" y="158" on="1"/>
        <pt x="369" y="158" on="1"/>
        <pt x="424" y="158" on="0"/>
        <pt x="467" y="127" on="0"/>
        <pt x="467" y="90" on="1"/>
        <pt x="467" y="56" on="1"/>
        <pt x="467" y="3" on="0"/>
        <pt x="418" y="-72" on="0"/>
        <pt x="364" y="-105" on="1"/>
        <pt x="286" y="-105" on="1"/>
        <pt x="315" y="-10" on="1"/>
        <pt x="305" y="-10" on="1"/>
        <pt x="272" y="-10" on="0"/>
        <pt x="245" y="20" on="0"/>
      </contour>
    </TTGlyph>
    <TTGlyph name="quotedblleft" xMin="10" yMin="387" xMax="467" yMax="650">
      <contour>
        <pt x="467" y="486" on="1"/>
        <pt x="467" y="455" on="1"/>
        <pt x="467" y="418" on="0"/>
        <pt x="424" y="387" on="0"/>
        <pt x="374" y="387" on="1"/>
        <pt x="343" y="387" on="1"/>
        <pt x="288" y="387" on="0"/>
        <pt x="245" y="418" on="0"/>
        <pt x="245" y="455" on="1"/>
        <pt x="245" y="489" on="1"/>
        <pt x="245" y="542" on="0"/>
        <pt x="294" y="617" on="0"/>
        <pt x="348" y="650" on="1"/>
        <pt x="426" y="650" on="1"/>
        <pt x="397" y="555" on="1"/>
        <pt x="407" y="555" on="1"/>
        <pt x="440" y="555" on="0"/>
        <pt x="467" y="525" on="0"/>
      </contour>
      <contour>
        <pt x="232" y="486" on="1"/>
        <pt x="232" y="455" on="1"/>
        <pt x="232" y="418" on="0"/>
        <pt x="189" y="387" on="0"/>
        <pt x="139" y="387" on="1"/>
        <pt x="108" y="387" on="1"/>
        <pt x="53" y="387" on="0"/>
        <pt x="10" y="418" on="0"/>
        <pt x="10" y="455" on="1"/>
        <pt x="10" y="489" on="1"/>
        <pt x="10" y="542" on="0"/>
        <pt x="59" y="617" on="0"/>
        <pt x="113" y="650" on="1"/>
        <pt x="191" y="650" on="1"/>
        <pt x="162" y="555" on="1"/>
        <pt x="172" y="555" on="1"/>
        <pt x="205" y="555" on="0"/>
        <pt x="232" y="525" on="0"/>
      </contour>
    </TTGlyph>
    <TTGlyph name="quotedblright" xMin="20" yMin="387" xMax="477" yMax="650">
      <contour>
        <pt x="20" y="551" on="1"/>
        <pt x="20" y="582" on="1"/>
        <pt x="20" y="619" on="0"/>
        <pt x="63" y="650" on="0"/>
        <pt x="113" y="650" on="1"/>
        <pt x="144" y="650" on="1"/>
        <pt x="199" y="650" on="0"/>
        <pt x="242" y="619" on="0"/>
        <pt x="242" y="582" on="1"/>
        <pt x="242" y="548" on="1"/>
        <pt x="242" y="495" on="0"/>
        <pt x="193" y="420" on="0"/>
        <pt x="139" y="387" on="1"/>
        <pt x="61" y="387" on="1"/>
        <pt x="90" y="482" on="1"/>
        <pt x="80" y="482" on="1"/>
        <pt x="47" y="482" on="0"/>
        <pt x="20" y="512" on="0"/>
      </contour>
      <contour>
        <pt x="255" y="551" on="1"/>
        <pt x="255" y="582" on="1"/>
        <pt x="255" y="619" on="0"/>
        <pt x="298" y="650" on="0"/>
        <pt x="348" y="650" on="1"/>
        <pt x="379" y="650" on="1"/>
        <pt x="434" y="650" on="0"/>
        <pt x="477" y="619" on="0"/>
        <pt x="477" y="582" on="1"/>
        <pt x="477" y="548" on="1"/>
        <pt x="477" y="495" on="0"/>
        <pt x="428" y="420" on="0"/>
        <pt x="374" y="387" on="1"/>
        <pt x="296" y="387" on="1"/>
        <pt x="325" y="482" on="1"/>
        <pt x="315" y="482" on="1"/>
        <pt x="282" y="482" on="0"/>
        <pt x="255" y="512" on="0"/>
      </contour>
    </TTGlyph>
    <TTGlyph name="quoteleft" xMin="10" yMin="387" xMax="232" yMax="650">
      <contour>
        <pt x="232" y="486" on="1"/>
        <pt x="232" y="455" on="1"/>
        <pt x="232" y="418" on="0"/>
        <pt x="189" y="387" on="0"/>
        <pt x="139" y="387" on="1"/>
        <pt x="108" y="387" on="1"/>
        <pt x="53" y="387" on="0"/>
        <pt x="10" y="418" on="0"/>
        <pt x="10" y="455" on="1"/>
        <pt x="10" y="489" on="1"/>
        <pt x="10" y="542" on="0"/>
        <pt x="59" y="617" on="0"/>
        <pt x="113" y="650" on="1"/>
        <pt x="191" y="650" on="1"/>
        <pt x="162" y="555" on="1"/>
        <pt x="172" y="555" on="1"/>
        <pt x="205" y="555" on="0"/>
        <pt x="232" y="525" on="0"/>
      </contour>
    </TTGlyph>
    <TTGlyph name="quoteright" xMin="20" yMin="387" xMax="242" yMax="650">
      <contour>
        <pt x="20" y="551" on="1"/>
        <pt x="20" y="582" on="1"/>
        <pt x="20" y="619" on="0"/>
        <pt x="63" y="650" on="0"/>
        <pt x="113" y="650" on="1"/>
        <pt x="144" y="650" on="1"/>
        <pt x="199" y="650" on="0"/>
        <pt x="242" y="619" on="0"/>
        <pt x="242" y="582" on="1"/>
        <pt x="242" y="548" on="1"/>
        <pt x="242" y="495" on="0"/>
        <pt x="193" y="420" on="0"/>
        <pt x="139" y="387" on="1"/>
        <pt x="61" y="387" on="1"/>
        <pt x="90" y="482" on="1"/>
        <pt x="80" y="482" on="1"/>
        <pt x="47" y="482" on="0"/>
        <pt x="20" y="512" on="0"/>
      </contour>
    </TTGlyph>
    <TTGlyph name="quotesinglbase" xMin="10" yMin="-105" xMax="232" yMax="158">
      <contour>
        <pt x="10" y="59" on="1"/>
        <pt x="10" y="90" on="1"/>
        <pt x="10" y="127" on="0"/>
        <pt x="53" y="158" on="0"/>
        <pt x="103" y="158" on="1"/>
        <pt x="134" y="158" on="1"/>
        <pt x="189" y="158" on="0"/>
        <pt x="232" y="127" on="0"/>
        <pt x="232" y="90" on="1"/>
        <pt x="232" y="56" on="1"/>
        <pt x="232" y="3" on="0"/>
        <pt x="183" y="-72" on="0"/>
        <pt x="129" y="-105" on="1"/>
        <pt x="51" y="-105" on="1"/>
        <pt x="80" y="-10" on="1"/>
        <pt x="70" y="-10" on="1"/>
        <pt x="37" y="-10" on="0"/>
        <pt x="10" y="20" on="0"/>
      </contour>
    </TTGlyph>
    <TTGlyph name="quotesingle" xMin="10" yMin="387" xMax="232" yMax="650">
      <contour>
        <pt x="10" y="551" on="1"/>
        <pt x="10" y="582" on="1"/>
        <pt x="10" y="619" on="0"/>
        <pt x="53" y="650" on="0"/>
        <pt x="103" y="650" on="1"/>
        <pt x="134" y="650" on="1"/>
        <pt x="189" y="650" on="0"/>
        <pt x="232" y="619" on="0"/>
        <pt x="232" y="582" on="1"/>
        <pt x="232" y="548" on="1"/>
        <pt x="232" y="495" on="0"/>
        <pt x="183" y="420" on="0"/>
        <pt x="129" y="387" on="1"/>
        <pt x="51" y="387" on="1"/>
        <pt x="80" y="482" on="1"/>
        <pt x="70" y="482" on="1"/>
        <pt x="37" y="482" on="0"/>
        <pt x="10" y="512" on="0"/>
      </contour>
    </TTGlyph>
    <TTGlyph name="r" xMin="10" yMin="0" xMax="347" yMax="483">
      <contour>
        <pt x="273" y="228" on="1"/>
        <pt x="273" y="0" on="1"/>
        <pt x="10" y="0" on="1"/>
        <pt x="10" y="479" on="1"/>
        <pt x="230" y="479" on="1"/>
        <pt x="232" y="454" on="1"/>
        <pt x="236" y="454" on="1"/>
        <pt x="266" y="483" on="0"/>
        <pt x="347" y="483" on="1"/>
        <pt x="336" y="277" on="1"/>
        <pt x="324" y="277" on="1"/>
        <pt x="296" y="277" on="0"/>
        <pt x="273" y="257" on="0"/>
      </contour>
    </TTGlyph>
</ttFont>
